%TF.GenerationSoftware,KiCad,Pcbnew,7.0.9*%
%TF.CreationDate,2024-02-13T22:10:24+01:00*%
%TF.ProjectId,bratski_keyboard,62726174-736b-4695-9f6b-6579626f6172,rev?*%
%TF.SameCoordinates,Original*%
%TF.FileFunction,Legend,Top*%
%TF.FilePolarity,Positive*%
%FSLAX46Y46*%
G04 Gerber Fmt 4.6, Leading zero omitted, Abs format (unit mm)*
G04 Created by KiCad (PCBNEW 7.0.9) date 2024-02-13 22:10:24*
%MOMM*%
%LPD*%
G01*
G04 APERTURE LIST*
G04 APERTURE END LIST*
%TO.C,G\u002A\u002A\u002A*%
G36*
X267140641Y-99060000D02*
G01*
X267140641Y-104065157D01*
X239776000Y-104065157D01*
X212411360Y-104065157D01*
X212411360Y-100185773D01*
X214435957Y-100185773D01*
X214513070Y-100451488D01*
X214678439Y-100692722D01*
X214764985Y-100776910D01*
X214895781Y-100875726D01*
X215039120Y-100945365D01*
X215214020Y-100990310D01*
X215439500Y-101015046D01*
X215734578Y-101024059D01*
X215814398Y-101024380D01*
X216340641Y-101024641D01*
X216340641Y-101398858D01*
X216340641Y-101773076D01*
X216901967Y-101773076D01*
X217463293Y-101773076D01*
X217463293Y-101398858D01*
X217463293Y-101024641D01*
X216901967Y-101024641D01*
X216340641Y-101024641D01*
X216340641Y-100837532D01*
X216340641Y-100650424D01*
X216901967Y-100650424D01*
X217463293Y-100650424D01*
X217463293Y-100252818D01*
X217463293Y-99855212D01*
X217837511Y-99855212D01*
X217837511Y-100814144D01*
X217837511Y-101773076D01*
X218036313Y-101772048D01*
X218213319Y-101750286D01*
X218393867Y-101697991D01*
X218422626Y-101685837D01*
X218573806Y-101594280D01*
X218722381Y-101469680D01*
X218759792Y-101430204D01*
X218913202Y-101194007D01*
X218984244Y-100942660D01*
X218979684Y-100689437D01*
X218906284Y-100447612D01*
X218770811Y-100230457D01*
X218580029Y-100051247D01*
X218340702Y-99923254D01*
X218059595Y-99859753D01*
X217957128Y-99855212D01*
X217837511Y-99855212D01*
X217463293Y-99855212D01*
X216901967Y-99855212D01*
X216340641Y-99855212D01*
X216340641Y-100252818D01*
X216340641Y-100650424D01*
X215878717Y-100650424D01*
X215594018Y-100646731D01*
X215384161Y-100633090D01*
X215230632Y-100605660D01*
X215114916Y-100560596D01*
X215018501Y-100494056D01*
X214986055Y-100465138D01*
X214858920Y-100289292D01*
X214810540Y-100089014D01*
X214838392Y-99886197D01*
X214939950Y-99702735D01*
X215088748Y-99574404D01*
X215129869Y-99551563D01*
X215177215Y-99532794D01*
X215239815Y-99517696D01*
X215326697Y-99505872D01*
X215446891Y-99496919D01*
X215609427Y-99490441D01*
X215823333Y-99486036D01*
X216097639Y-99483305D01*
X216441374Y-99481849D01*
X216863566Y-99481268D01*
X217195827Y-99481169D01*
X217701889Y-99480957D01*
X218123185Y-99479670D01*
X218468505Y-99476183D01*
X218746638Y-99469370D01*
X218966371Y-99458108D01*
X219136494Y-99441272D01*
X219265797Y-99417737D01*
X219363067Y-99386378D01*
X219437094Y-99346070D01*
X219496666Y-99295688D01*
X219550572Y-99234109D01*
X219597182Y-99173853D01*
X219679674Y-99047566D01*
X219712207Y-98946904D01*
X220794517Y-98946904D01*
X220820060Y-99218196D01*
X220896673Y-99453417D01*
X220925582Y-99505643D01*
X221068340Y-99670667D01*
X221279778Y-99808654D01*
X221568571Y-99924291D01*
X221838143Y-99998456D01*
X222035322Y-100047987D01*
X222206008Y-100095746D01*
X222323553Y-100134081D01*
X222351233Y-100145816D01*
X222501840Y-100270101D01*
X222589970Y-100441897D01*
X222610649Y-100634920D01*
X222558903Y-100822888D01*
X222496890Y-100915620D01*
X222428302Y-100984293D01*
X222350930Y-101025717D01*
X222237405Y-101048705D01*
X222060357Y-101062072D01*
X222038711Y-101063188D01*
X221793795Y-101061624D01*
X221514339Y-101038646D01*
X221293274Y-101005881D01*
X221109467Y-100972122D01*
X220961854Y-100946286D01*
X220873717Y-100932397D01*
X220860454Y-100931087D01*
X220845035Y-100973574D01*
X220838160Y-101084379D01*
X220840711Y-101222608D01*
X220854638Y-101514129D01*
X221111912Y-101568187D01*
X221338290Y-101601757D01*
X221612769Y-101621418D01*
X221907607Y-101627305D01*
X222195064Y-101619555D01*
X222447400Y-101598304D01*
X222636873Y-101563687D01*
X222647428Y-101560659D01*
X222914577Y-101439135D01*
X223113268Y-101254515D01*
X223242498Y-101008531D01*
X223301264Y-100702912D01*
X223298654Y-100437598D01*
X223258110Y-100183089D01*
X223174958Y-99977377D01*
X223039021Y-99811295D01*
X222840123Y-99675675D01*
X222568086Y-99561352D01*
X222212732Y-99459159D01*
X222212181Y-99459022D01*
X221955276Y-99391706D01*
X221774427Y-99333682D01*
X221653598Y-99277776D01*
X221576749Y-99216812D01*
X221533979Y-99155558D01*
X221488887Y-98986272D01*
X221504088Y-98796217D01*
X221575266Y-98632290D01*
X221583079Y-98621925D01*
X221680028Y-98498674D01*
X222448456Y-98498674D01*
X223216884Y-98498674D01*
X223216884Y-98218011D01*
X223216884Y-97937348D01*
X223637879Y-97937348D01*
X223637879Y-98218011D01*
X223637879Y-98498674D01*
X224175816Y-98498674D01*
X224713754Y-98498674D01*
X224713754Y-100042320D01*
X224713754Y-101585967D01*
X225087971Y-101585967D01*
X225462188Y-101585967D01*
X225462188Y-100042320D01*
X225462188Y-99761657D01*
X226843077Y-99761657D01*
X226855944Y-100175045D01*
X226898984Y-100513479D01*
X226976608Y-100791941D01*
X227093224Y-101025413D01*
X227253242Y-101228879D01*
X227284261Y-101260745D01*
X227466802Y-101419362D01*
X227656458Y-101527277D01*
X227875157Y-101591467D01*
X228144828Y-101618909D01*
X228410709Y-101619127D01*
X228642748Y-101608491D01*
X228813422Y-101587370D01*
X228954830Y-101549386D01*
X229099072Y-101488161D01*
X229119390Y-101478317D01*
X229365890Y-101320545D01*
X229558682Y-101110318D01*
X229702835Y-100838571D01*
X229803422Y-100496238D01*
X229856504Y-100160437D01*
X229878985Y-99701067D01*
X229843940Y-99257484D01*
X229754886Y-98847549D01*
X229615341Y-98489124D01*
X229484426Y-98271386D01*
X229392220Y-98153606D01*
X229300453Y-98067144D01*
X229192953Y-98007229D01*
X229053547Y-97969090D01*
X228866065Y-97947953D01*
X228614334Y-97939047D01*
X228353001Y-97937523D01*
X228038611Y-97940386D01*
X227800897Y-97952485D01*
X227623054Y-97979343D01*
X227488278Y-98026486D01*
X227379763Y-98099440D01*
X227280704Y-98203728D01*
X227193006Y-98318903D01*
X227038853Y-98584462D01*
X226931228Y-98896893D01*
X226867076Y-99268783D01*
X226843345Y-99712724D01*
X226843077Y-99761657D01*
X225462188Y-99761657D01*
X225462188Y-98498674D01*
X226000126Y-98498674D01*
X226538063Y-98498674D01*
X226538063Y-98218011D01*
X226538063Y-97937348D01*
X230420568Y-97937348D01*
X230420568Y-98218011D01*
X230420568Y-98498674D01*
X231102052Y-98498674D01*
X231783536Y-98498674D01*
X231768627Y-99539466D01*
X231761424Y-99922000D01*
X231750056Y-100222848D01*
X231731519Y-100453870D01*
X231702808Y-100626927D01*
X231660918Y-100753881D01*
X231602844Y-100846591D01*
X231525581Y-100916920D01*
X231426126Y-100976727D01*
X231401297Y-100989485D01*
X231226455Y-101044194D01*
X231001276Y-101069213D01*
X230764724Y-101062735D01*
X230572285Y-101027906D01*
X230420568Y-100984394D01*
X230420568Y-101282074D01*
X230422798Y-101443879D01*
X230435668Y-101535169D01*
X230468449Y-101578972D01*
X230530410Y-101598316D01*
X230549205Y-101601632D01*
X230649593Y-101609981D01*
X230816826Y-101614912D01*
X231024240Y-101615888D01*
X231169002Y-101614128D01*
X231414003Y-101605687D01*
X231589924Y-101588770D01*
X231721126Y-101559496D01*
X231831970Y-101513984D01*
X231847271Y-101506085D01*
X232116380Y-101314211D01*
X232316409Y-101060807D01*
X232370951Y-100954475D01*
X232395387Y-100891063D01*
X232414979Y-100813744D01*
X232430411Y-100711443D01*
X232442369Y-100573083D01*
X232451537Y-100387589D01*
X232458602Y-100143884D01*
X232464248Y-99830892D01*
X232465113Y-99761657D01*
X233181924Y-99761657D01*
X233212462Y-100230814D01*
X233303214Y-100637690D01*
X233452428Y-100978974D01*
X233658354Y-101251355D01*
X233919239Y-101451520D01*
X234124044Y-101543627D01*
X234328744Y-101591088D01*
X234592489Y-101619562D01*
X234882582Y-101628399D01*
X235166328Y-101616947D01*
X235411031Y-101584553D01*
X235472501Y-101570508D01*
X235682999Y-101515801D01*
X235697222Y-101240302D01*
X235711446Y-100964802D01*
X235533502Y-100996073D01*
X235115238Y-101051375D01*
X234769993Y-101055351D01*
X234491297Y-101006004D01*
X234272676Y-100901342D01*
X234107659Y-100739367D01*
X233990687Y-100520456D01*
X233948892Y-100383917D01*
X233922763Y-100220540D01*
X233909760Y-100007246D01*
X233907151Y-99761657D01*
X233916061Y-99427854D01*
X233943177Y-99166518D01*
X233992616Y-98957630D01*
X234068495Y-98781170D01*
X234129354Y-98681154D01*
X234236498Y-98522063D01*
X234971443Y-98509181D01*
X235706387Y-98496298D01*
X235706387Y-98216823D01*
X235706387Y-97937348D01*
X236361267Y-97937348D01*
X236361267Y-99761657D01*
X236361267Y-101585967D01*
X236712096Y-101585967D01*
X237062925Y-101585967D01*
X237062925Y-100814144D01*
X237062925Y-100042320D01*
X237811360Y-100042320D01*
X238559794Y-100042320D01*
X238559794Y-100814144D01*
X238559794Y-101585967D01*
X238910623Y-101585967D01*
X239261452Y-101585967D01*
X239261452Y-99761657D01*
X239261452Y-97937348D01*
X240150218Y-97937348D01*
X240150218Y-99761657D01*
X240150218Y-101585967D01*
X241343035Y-101585967D01*
X242535853Y-101585967D01*
X242535853Y-101305304D01*
X242535853Y-101024641D01*
X241693864Y-101024641D01*
X240851875Y-101024641D01*
X240851875Y-100533481D01*
X240851875Y-100042320D01*
X241553533Y-100042320D01*
X242255190Y-100042320D01*
X242255190Y-99761657D01*
X242255190Y-99480995D01*
X241553533Y-99480995D01*
X240851875Y-99480995D01*
X240851875Y-98989834D01*
X240851875Y-98498674D01*
X241670476Y-98498674D01*
X242489076Y-98498674D01*
X242489076Y-98218011D01*
X242489076Y-97978261D01*
X242922400Y-97978261D01*
X242922925Y-97996930D01*
X242941238Y-98053673D01*
X242983627Y-98189850D01*
X243046999Y-98395373D01*
X243128257Y-98660153D01*
X243224307Y-98974104D01*
X243332055Y-99327137D01*
X243448406Y-99709164D01*
X243471826Y-99786156D01*
X243589255Y-100171485D01*
X243698589Y-100528747D01*
X243796763Y-100848035D01*
X243880710Y-101119444D01*
X243947365Y-101333070D01*
X243993661Y-101479007D01*
X244016533Y-101547351D01*
X244018054Y-101550884D01*
X244070380Y-101565517D01*
X244195563Y-101577159D01*
X244372915Y-101584354D01*
X244517051Y-101585967D01*
X244995858Y-101585967D01*
X245543514Y-99796740D01*
X245663183Y-99404918D01*
X245773820Y-99041005D01*
X245804205Y-98940547D01*
X246559459Y-98940547D01*
X246583106Y-99218295D01*
X246657766Y-99446878D01*
X246791147Y-99633176D01*
X246990958Y-99784068D01*
X247264907Y-99906433D01*
X247620703Y-100007152D01*
X247796678Y-100044709D01*
X248050657Y-100126847D01*
X248236896Y-100253884D01*
X248349145Y-100416370D01*
X248381158Y-100604855D01*
X248326687Y-100809888D01*
X248316341Y-100830748D01*
X248226846Y-100944338D01*
X248127031Y-101015534D01*
X247955374Y-101058953D01*
X247708809Y-101071312D01*
X247400459Y-101053230D01*
X247043444Y-101005324D01*
X246755096Y-100950922D01*
X246600674Y-100918434D01*
X246614764Y-101217117D01*
X246628855Y-101515801D01*
X246886129Y-101572340D01*
X247080570Y-101601374D01*
X247324310Y-101617640D01*
X247594777Y-101621864D01*
X247869400Y-101614774D01*
X248125608Y-101597095D01*
X248340830Y-101569554D01*
X248492492Y-101532879D01*
X248523330Y-101519635D01*
X248776646Y-101341083D01*
X248954472Y-101109145D01*
X249054167Y-100829135D01*
X249073088Y-100506368D01*
X249065927Y-100428252D01*
X249008949Y-100159658D01*
X248901796Y-99940990D01*
X248735794Y-99765105D01*
X248502271Y-99624855D01*
X248192551Y-99513097D01*
X247859641Y-99434522D01*
X247679756Y-99385759D01*
X247512031Y-99318763D01*
X247438646Y-99277897D01*
X247344336Y-99203456D01*
X247295369Y-99121099D01*
X247273983Y-98994478D01*
X247269678Y-98932148D01*
X247269347Y-98770374D01*
X247297348Y-98665853D01*
X247351538Y-98594591D01*
X247393426Y-98558947D01*
X247446626Y-98533391D01*
X247526171Y-98516261D01*
X247647093Y-98505896D01*
X247824426Y-98500634D01*
X248073200Y-98498813D01*
X248219278Y-98498674D01*
X248991102Y-98498674D01*
X248991102Y-98218011D01*
X248991102Y-97937348D01*
X249786313Y-97937348D01*
X249786313Y-99761657D01*
X249786313Y-101585967D01*
X250137142Y-101585967D01*
X250487971Y-101585967D01*
X250487971Y-100811912D01*
X250487971Y-100037856D01*
X250772588Y-100051783D01*
X251057205Y-100065709D01*
X251462551Y-100825399D01*
X251867897Y-101585088D01*
X252273174Y-101585527D01*
X252678452Y-101585967D01*
X252163153Y-100670757D01*
X251647854Y-99755547D01*
X252143787Y-98868384D01*
X252289025Y-98607523D01*
X252417471Y-98374814D01*
X252522526Y-98182380D01*
X252597588Y-98042347D01*
X252636057Y-97966840D01*
X252639720Y-97957393D01*
X252596629Y-97947997D01*
X252481874Y-97943757D01*
X252317233Y-97945252D01*
X252254311Y-97947151D01*
X251868902Y-97960737D01*
X251452663Y-98723008D01*
X251036425Y-99485279D01*
X250773892Y-99471443D01*
X250511360Y-99457606D01*
X250498506Y-98697477D01*
X250485653Y-97937348D01*
X253247824Y-97937348D01*
X253247824Y-99761657D01*
X253247824Y-101585967D01*
X253598652Y-101585967D01*
X253949481Y-101585967D01*
X253949481Y-101255743D01*
X254673542Y-101255743D01*
X254699102Y-101420771D01*
X254764700Y-101535453D01*
X254891912Y-101613348D01*
X255057321Y-101635160D01*
X255224456Y-101601170D01*
X255338087Y-101531036D01*
X255433395Y-101392713D01*
X255451602Y-101247522D01*
X255406758Y-101109666D01*
X255312911Y-100993351D01*
X255184111Y-100912779D01*
X255034408Y-100882157D01*
X254877849Y-100915687D01*
X254786021Y-100972870D01*
X254702984Y-101094059D01*
X254673542Y-101255743D01*
X253949481Y-101255743D01*
X253949481Y-99761657D01*
X253949481Y-99724272D01*
X255961591Y-99724272D01*
X255987701Y-100210248D01*
X256068367Y-100621680D01*
X256204699Y-100960809D01*
X256397805Y-101229874D01*
X256648793Y-101431115D01*
X256856145Y-101531538D01*
X257070223Y-101587666D01*
X257344104Y-101621821D01*
X257646377Y-101632826D01*
X257945631Y-101619501D01*
X258203901Y-101582091D01*
X258440089Y-101531437D01*
X258440089Y-101248803D01*
X258440089Y-100966169D01*
X258291885Y-100995810D01*
X257868676Y-101057064D01*
X257514319Y-101055800D01*
X257225989Y-100989623D01*
X257000863Y-100856138D01*
X256836115Y-100652953D01*
X256728921Y-100377671D01*
X256676457Y-100027900D01*
X256675902Y-99899583D01*
X258926480Y-99899583D01*
X258960944Y-100270240D01*
X259035895Y-100618126D01*
X259151527Y-100928128D01*
X259308032Y-101185134D01*
X259505604Y-101374034D01*
X259516336Y-101381268D01*
X259708993Y-101495968D01*
X259890812Y-101569832D01*
X260090278Y-101609592D01*
X260335872Y-101621982D01*
X260521673Y-101618940D01*
X260755498Y-101607927D01*
X260924839Y-101588557D01*
X261058728Y-101555105D01*
X261186200Y-101501840D01*
X261232124Y-101478775D01*
X261482811Y-101306536D01*
X261679394Y-101073544D01*
X261825584Y-100773157D01*
X261925092Y-100398733D01*
X261958921Y-100178280D01*
X261984984Y-99753552D01*
X261960605Y-99343025D01*
X261889778Y-98960211D01*
X261776497Y-98618622D01*
X261624754Y-98331771D01*
X261438544Y-98113170D01*
X261323160Y-98027095D01*
X261255589Y-97992408D01*
X261174103Y-97967889D01*
X261062095Y-97951841D01*
X260902957Y-97942566D01*
X260680081Y-97938367D01*
X260446730Y-97937523D01*
X260167213Y-97938319D01*
X259964337Y-97942210D01*
X259821194Y-97951219D01*
X259720878Y-97967369D01*
X259646480Y-97992682D01*
X259581093Y-98029180D01*
X259559077Y-98043710D01*
X259354685Y-98233644D01*
X259189619Y-98491479D01*
X259064072Y-98802102D01*
X258978237Y-99150402D01*
X258932309Y-99521266D01*
X258926480Y-99899583D01*
X256675902Y-99899583D01*
X256674714Y-99624918D01*
X256707995Y-99248174D01*
X256769438Y-98952876D01*
X256861355Y-98730556D01*
X256952955Y-98605255D01*
X256996522Y-98563956D01*
X257047480Y-98534971D01*
X257122001Y-98516127D01*
X257236255Y-98505253D01*
X257406412Y-98500177D01*
X257648643Y-98498727D01*
X257746585Y-98498674D01*
X258440089Y-98498674D01*
X258440089Y-98218011D01*
X258440089Y-97937348D01*
X262696811Y-97937348D01*
X262696811Y-99761657D01*
X262696811Y-101585967D01*
X263046899Y-101585967D01*
X263396988Y-101585967D01*
X263409422Y-100287901D01*
X263421857Y-98989834D01*
X263791598Y-99539466D01*
X263939114Y-99756840D01*
X264046879Y-99907919D01*
X264126367Y-100004693D01*
X264189052Y-100059149D01*
X264246408Y-100083277D01*
X264309908Y-100089066D01*
X264317617Y-100089098D01*
X264382734Y-100084588D01*
X264440175Y-100062991D01*
X264501467Y-100012207D01*
X264578141Y-99920135D01*
X264681726Y-99774676D01*
X264823752Y-99563730D01*
X264836642Y-99544381D01*
X265199389Y-98999665D01*
X265211823Y-100292816D01*
X265224257Y-101585967D01*
X265574346Y-101585967D01*
X265924435Y-101585967D01*
X265924435Y-99761657D01*
X265924435Y-97937348D01*
X265561912Y-97938089D01*
X265199389Y-97938829D01*
X264762534Y-98616358D01*
X264619261Y-98837474D01*
X264494228Y-99028369D01*
X264395874Y-99176328D01*
X264332636Y-99268637D01*
X264312908Y-99293886D01*
X264284903Y-99256493D01*
X264215231Y-99152831D01*
X264112274Y-98995670D01*
X263984412Y-98797784D01*
X263867835Y-98615617D01*
X263435535Y-97937348D01*
X263066173Y-97937348D01*
X262696811Y-97937348D01*
X258440089Y-97937348D01*
X257581730Y-97937348D01*
X256723370Y-97937348D01*
X256540938Y-98069592D01*
X256336091Y-98273683D01*
X256172877Y-98554701D01*
X256054175Y-98904422D01*
X255982865Y-99314623D01*
X255961591Y-99724272D01*
X253949481Y-99724272D01*
X253949481Y-97937348D01*
X253598652Y-97937348D01*
X253247824Y-97937348D01*
X250485653Y-97937348D01*
X250135983Y-97937348D01*
X249786313Y-97937348D01*
X248991102Y-97937348D01*
X248046759Y-97937348D01*
X247725258Y-97937832D01*
X247483185Y-97940186D01*
X247306413Y-97945760D01*
X247180816Y-97955907D01*
X247092270Y-97971977D01*
X247026647Y-97995323D01*
X246969823Y-98027295D01*
X246946697Y-98042597D01*
X246766495Y-98218914D01*
X246638756Y-98461782D01*
X246569900Y-98756307D01*
X246559459Y-98940547D01*
X245804205Y-98940547D01*
X245872513Y-98714713D01*
X245956346Y-98435755D01*
X246022404Y-98213841D01*
X246067773Y-98058684D01*
X246089538Y-97979994D01*
X246091044Y-97972431D01*
X246048032Y-97955633D01*
X245934401Y-97943220D01*
X245773065Y-97937492D01*
X245741395Y-97937348D01*
X245391873Y-97937348D01*
X245313660Y-98206317D01*
X245280031Y-98322783D01*
X245224993Y-98514359D01*
X245152803Y-98766187D01*
X245067715Y-99063411D01*
X244973986Y-99391176D01*
X244875872Y-99734623D01*
X244875819Y-99734807D01*
X244782141Y-100058525D01*
X244695847Y-100348404D01*
X244620376Y-100593552D01*
X244559167Y-100783079D01*
X244515657Y-100906093D01*
X244493286Y-100951702D01*
X244491854Y-100951014D01*
X244473788Y-100897020D01*
X244433772Y-100763826D01*
X244374954Y-100562355D01*
X244300484Y-100303529D01*
X244213512Y-99998272D01*
X244117187Y-99657509D01*
X244051317Y-99423089D01*
X243635116Y-97938480D01*
X243267589Y-97937914D01*
X243076233Y-97941427D01*
X242965420Y-97954149D01*
X242922400Y-97978261D01*
X242489076Y-97978261D01*
X242489076Y-97937348D01*
X241319647Y-97937348D01*
X240150218Y-97937348D01*
X239261452Y-97937348D01*
X238910623Y-97937348D01*
X238559794Y-97937348D01*
X238559794Y-98709171D01*
X238559794Y-99480995D01*
X237811360Y-99480995D01*
X237062925Y-99480995D01*
X237062925Y-98709171D01*
X237062925Y-97937348D01*
X236712096Y-97937348D01*
X236361267Y-97937348D01*
X235706387Y-97937348D01*
X234817756Y-97937348D01*
X233929124Y-97937348D01*
X233738247Y-98109794D01*
X233516993Y-98371511D01*
X233350089Y-98705328D01*
X233239317Y-99105956D01*
X233186457Y-99568107D01*
X233181924Y-99761657D01*
X232465113Y-99761657D01*
X232469161Y-99437537D01*
X232470073Y-99352357D01*
X232484935Y-97937348D01*
X231452751Y-97937348D01*
X230420568Y-97937348D01*
X226538063Y-97937348D01*
X225087971Y-97937348D01*
X223637879Y-97937348D01*
X223216884Y-97937348D01*
X222302407Y-97937348D01*
X221956639Y-97938705D01*
X221690393Y-97944768D01*
X221489649Y-97958523D01*
X221340390Y-97982957D01*
X221228599Y-98021057D01*
X221140256Y-98075809D01*
X221061345Y-98150200D01*
X221005863Y-98213595D01*
X220889264Y-98414905D01*
X220818201Y-98669241D01*
X220794517Y-98946904D01*
X219712207Y-98946904D01*
X219720131Y-98922385D01*
X219731873Y-98754250D01*
X219731986Y-98727937D01*
X219707231Y-98494664D01*
X219623545Y-98311102D01*
X219466793Y-98151491D01*
X219381633Y-98089374D01*
X219314808Y-98048323D01*
X219243505Y-98019560D01*
X219150269Y-98000922D01*
X219017649Y-97990247D01*
X218828191Y-97985371D01*
X218564444Y-97984132D01*
X218532250Y-97984125D01*
X217837511Y-97984125D01*
X217837511Y-98171234D01*
X217837511Y-98358343D01*
X218494517Y-98358343D01*
X218755351Y-98359058D01*
X218939690Y-98362896D01*
X219064593Y-98372394D01*
X219147117Y-98390090D01*
X219204320Y-98418521D01*
X219253260Y-98460225D01*
X219266340Y-98473159D01*
X219356366Y-98620585D01*
X219368749Y-98783623D01*
X219308355Y-98934815D01*
X219180047Y-99046704D01*
X219163300Y-99054842D01*
X219086890Y-99069778D01*
X218927702Y-99082114D01*
X218683795Y-99091900D01*
X218353225Y-99099184D01*
X217934049Y-99104017D01*
X217424324Y-99106447D01*
X217115605Y-99106777D01*
X215181895Y-99106777D01*
X214932580Y-99237021D01*
X214764652Y-99339921D01*
X214648489Y-99458500D01*
X214553021Y-99616580D01*
X214448731Y-99904497D01*
X214435957Y-100185773D01*
X212411360Y-100185773D01*
X212411360Y-99060000D01*
X212411360Y-97188913D01*
X213253348Y-97188913D01*
X213253348Y-97937348D01*
X213253348Y-98685783D01*
X213814674Y-98685783D01*
X214376000Y-98685783D01*
X214376000Y-97937348D01*
X214376000Y-97188913D01*
X214796995Y-97188913D01*
X214796995Y-97937348D01*
X214796995Y-98685783D01*
X214984104Y-98685783D01*
X215171212Y-98685783D01*
X215171212Y-97937348D01*
X215171212Y-97188913D01*
X215545429Y-97188913D01*
X215545429Y-97937348D01*
X215545429Y-98685783D01*
X216106755Y-98685783D01*
X216668081Y-98685783D01*
X216668081Y-97937348D01*
X216668081Y-97188913D01*
X217042299Y-97188913D01*
X217042299Y-97937348D01*
X217042299Y-98685783D01*
X217252796Y-98685783D01*
X217463293Y-98685783D01*
X217463293Y-97937348D01*
X217463293Y-97188913D01*
X217252796Y-97188913D01*
X217042299Y-97188913D01*
X216668081Y-97188913D01*
X216106755Y-97188913D01*
X215545429Y-97188913D01*
X215171212Y-97188913D01*
X214984104Y-97188913D01*
X214796995Y-97188913D01*
X214376000Y-97188913D01*
X213814674Y-97188913D01*
X213253348Y-97188913D01*
X212411360Y-97188913D01*
X212411360Y-95271050D01*
X213253348Y-95271050D01*
X213253348Y-96042873D01*
X213253348Y-96814696D01*
X213440457Y-96814696D01*
X213627566Y-96814696D01*
X213627566Y-96042873D01*
X213627566Y-95271050D01*
X214001783Y-95271050D01*
X214001783Y-96011688D01*
X214003744Y-96266110D01*
X214009160Y-96487022D01*
X214017327Y-96657748D01*
X214027543Y-96761615D01*
X214034373Y-96784916D01*
X214091500Y-96796723D01*
X214222200Y-96804286D01*
X214406560Y-96806928D01*
X214607393Y-96804407D01*
X215147824Y-96791308D01*
X215160677Y-96031179D01*
X215173530Y-95271050D01*
X215545429Y-95271050D01*
X215545429Y-96042873D01*
X215545429Y-96814696D01*
X215732538Y-96814696D01*
X215919647Y-96814696D01*
X215919647Y-96042873D01*
X215919647Y-95271050D01*
X216293864Y-95271050D01*
X216293864Y-96011688D01*
X216295825Y-96266110D01*
X216301241Y-96487022D01*
X216309408Y-96657748D01*
X216319624Y-96761615D01*
X216326454Y-96784916D01*
X216383581Y-96796723D01*
X216514281Y-96804286D01*
X216698641Y-96806928D01*
X216899474Y-96804407D01*
X217439905Y-96791308D01*
X217452758Y-96031179D01*
X217465611Y-95271050D01*
X217837511Y-95271050D01*
X217837511Y-96045697D01*
X217837511Y-96820344D01*
X218012925Y-96805826D01*
X218188339Y-96791308D01*
X218201192Y-96031179D01*
X218214045Y-95271050D01*
X218585945Y-95271050D01*
X218585945Y-96042873D01*
X218585945Y-96814696D01*
X218773054Y-96814696D01*
X218960162Y-96814696D01*
X218960162Y-96042873D01*
X218960162Y-95271050D01*
X218773054Y-95271050D01*
X218585945Y-95271050D01*
X218214045Y-95271050D01*
X218025778Y-95271050D01*
X217837511Y-95271050D01*
X217465611Y-95271050D01*
X216879737Y-95271050D01*
X216293864Y-95271050D01*
X215919647Y-95271050D01*
X215732538Y-95271050D01*
X215545429Y-95271050D01*
X215173530Y-95271050D01*
X214587656Y-95271050D01*
X214001783Y-95271050D01*
X213627566Y-95271050D01*
X213440457Y-95271050D01*
X213253348Y-95271050D01*
X212411360Y-95271050D01*
X212411360Y-94054844D01*
X239776000Y-94054844D01*
X267140641Y-94054844D01*
X267140641Y-99060000D01*
G37*
G36*
X228534129Y-98503714D02*
G01*
X228699396Y-98517131D01*
X228807959Y-98536375D01*
X228826656Y-98543584D01*
X228891304Y-98609342D01*
X228969458Y-98731474D01*
X229022053Y-98835942D01*
X229066510Y-98942796D01*
X229097383Y-99045731D01*
X229117113Y-99164988D01*
X229128142Y-99320806D01*
X229132912Y-99533425D01*
X229133865Y-99762774D01*
X229132926Y-100032983D01*
X229128132Y-100229155D01*
X229116972Y-100370799D01*
X229096939Y-100477423D01*
X229065522Y-100568536D01*
X229020212Y-100663646D01*
X229017253Y-100669410D01*
X228864073Y-100883473D01*
X228665047Y-101016268D01*
X228416625Y-101069974D01*
X228362372Y-101071418D01*
X228188264Y-101051154D01*
X228021152Y-101000873D01*
X227987425Y-100984906D01*
X227855507Y-100882524D01*
X227733412Y-100734641D01*
X227707492Y-100692549D01*
X227662158Y-100607368D01*
X227630333Y-100525695D01*
X227609640Y-100429088D01*
X227597703Y-100299104D01*
X227592146Y-100117301D01*
X227590591Y-99865237D01*
X227590549Y-99785046D01*
X227594505Y-99449322D01*
X227608490Y-99191062D01*
X227635683Y-98994427D01*
X227679264Y-98843579D01*
X227742411Y-98722678D01*
X227824334Y-98620146D01*
X227886474Y-98560874D01*
X227954120Y-98524792D01*
X228051420Y-98506210D01*
X228202519Y-98499438D01*
X228339825Y-98498674D01*
X228534129Y-98503714D01*
G37*
G36*
X260672300Y-98500766D02*
G01*
X260801289Y-98510936D01*
X260885292Y-98535028D01*
X260948579Y-98578883D01*
X260992667Y-98623515D01*
X261117671Y-98821595D01*
X261203818Y-99103352D01*
X261250734Y-99467187D01*
X261260036Y-99761261D01*
X261243729Y-100158239D01*
X261192943Y-100474024D01*
X261105177Y-100715340D01*
X260977928Y-100888915D01*
X260808695Y-101001473D01*
X260796884Y-101006545D01*
X260565564Y-101063032D01*
X260318198Y-101058580D01*
X260097155Y-100994512D01*
X260076560Y-100984039D01*
X259918709Y-100852663D01*
X259796627Y-100669542D01*
X259750471Y-100573662D01*
X259718337Y-100482785D01*
X259697707Y-100377404D01*
X259686066Y-100238014D01*
X259680897Y-100045110D01*
X259679685Y-99779187D01*
X259679684Y-99762906D01*
X259681008Y-99489228D01*
X259686607Y-99288863D01*
X259698920Y-99141589D01*
X259720386Y-99027182D01*
X259753445Y-98925420D01*
X259791496Y-98835942D01*
X259866893Y-98692435D01*
X259943377Y-98583361D01*
X259987223Y-98543584D01*
X260070944Y-98522976D01*
X260220520Y-98507350D01*
X260408282Y-98499256D01*
X260474054Y-98498674D01*
X260672300Y-98500766D01*
G37*
G36*
X214001783Y-97937348D02*
G01*
X214001783Y-98311565D01*
X213814674Y-98311565D01*
X213627566Y-98311565D01*
X213627566Y-97937348D01*
X213627566Y-97563131D01*
X213814674Y-97563131D01*
X214001783Y-97563131D01*
X214001783Y-97937348D01*
G37*
G36*
X216293864Y-97937348D02*
G01*
X216293864Y-98311565D01*
X216106755Y-98311565D01*
X215919647Y-98311565D01*
X215919647Y-97937348D01*
X215919647Y-97563131D01*
X216106755Y-97563131D01*
X216293864Y-97563131D01*
X216293864Y-97937348D01*
G37*
G36*
X214787268Y-96031179D02*
G01*
X214800930Y-96393702D01*
X214586498Y-96393702D01*
X214372065Y-96393702D01*
X214385727Y-96031179D01*
X214399389Y-95668656D01*
X214586498Y-95668656D01*
X214773606Y-95668656D01*
X214787268Y-96031179D01*
G37*
G36*
X217042299Y-96019484D02*
G01*
X217042299Y-96393702D01*
X216855190Y-96393702D01*
X216668081Y-96393702D01*
X216668081Y-96019484D01*
X216668081Y-95645267D01*
X216855190Y-95645267D01*
X217042299Y-95645267D01*
X217042299Y-96019484D01*
G37*
%TD*%
M02*
