%TF.GenerationSoftware,KiCad,Pcbnew,7.0.9*%
%TF.CreationDate,2024-02-13T22:10:24+01:00*%
%TF.ProjectId,bratski_keyboard,62726174-736b-4695-9f6b-6579626f6172,rev?*%
%TF.SameCoordinates,Original*%
%TF.FileFunction,Paste,Bot*%
%TF.FilePolarity,Positive*%
%FSLAX46Y46*%
G04 Gerber Fmt 4.6, Leading zero omitted, Abs format (unit mm)*
G04 Created by KiCad (PCBNEW 7.0.9) date 2024-02-13 22:10:24*
%MOMM*%
%LPD*%
G01*
G04 APERTURE LIST*
%ADD10R,1.200000X0.900000*%
G04 APERTURE END LIST*
D10*
%TO.C,D10*%
X214947500Y-55783750D03*
X214947500Y-52483750D03*
%TD*%
%TO.C,D16*%
X100647500Y-74833750D03*
X100647500Y-71533750D03*
%TD*%
%TO.C,D19*%
X157797500Y-74833750D03*
X157797500Y-71533750D03*
%TD*%
%TO.C,D7*%
X157797500Y-55783750D03*
X157797500Y-52483750D03*
%TD*%
%TO.C,D34*%
X219710000Y-93821250D03*
X219710000Y-90521250D03*
%TD*%
%TO.C,D1*%
X43497500Y-55783750D03*
X43497500Y-52483750D03*
%TD*%
%TO.C,D43*%
X236378750Y-112933750D03*
X236378750Y-109633750D03*
%TD*%
%TO.C,D24*%
X257810000Y-74833750D03*
X257810000Y-71533750D03*
%TD*%
%TO.C,D40*%
X143510000Y-112933750D03*
X143510000Y-109633750D03*
%TD*%
%TO.C,D31*%
X162560000Y-93883750D03*
X162560000Y-90583750D03*
%TD*%
%TO.C,D22*%
X214947500Y-74833750D03*
X214947500Y-71533750D03*
%TD*%
%TO.C,D2*%
X62547500Y-55783750D03*
X62547500Y-52483750D03*
%TD*%
%TO.C,D27*%
X86360000Y-93883750D03*
X86360000Y-90583750D03*
%TD*%
%TO.C,D3*%
X81597500Y-55783750D03*
X81597500Y-52483750D03*
%TD*%
%TO.C,D29*%
X124460000Y-93883750D03*
X124460000Y-90583750D03*
%TD*%
%TO.C,D44*%
X260191250Y-112933750D03*
X260191250Y-109633750D03*
%TD*%
%TO.C,D12*%
X257810000Y-55783750D03*
X257810000Y-52483750D03*
%TD*%
%TO.C,D14*%
X62547500Y-74833750D03*
X62547500Y-71533750D03*
%TD*%
%TO.C,D30*%
X143510000Y-93883750D03*
X143510000Y-90583750D03*
%TD*%
%TO.C,D8*%
X176847500Y-55783750D03*
X176847500Y-52483750D03*
%TD*%
%TO.C,D41*%
X186372500Y-112933750D03*
X186372500Y-109633750D03*
%TD*%
%TO.C,D37*%
X48260000Y-112933750D03*
X48260000Y-109633750D03*
%TD*%
%TO.C,D20*%
X176847500Y-74833750D03*
X176847500Y-71533750D03*
%TD*%
%TO.C,D35*%
X238760000Y-93883750D03*
X238760000Y-90583750D03*
%TD*%
%TO.C,D4*%
X100647500Y-55783750D03*
X100647500Y-52483750D03*
%TD*%
%TO.C,D15*%
X81597500Y-74833750D03*
X81597500Y-71533750D03*
%TD*%
%TO.C,D11*%
X233997500Y-55783750D03*
X233997500Y-52483750D03*
%TD*%
%TO.C,D42*%
X212566250Y-112933750D03*
X212566250Y-109633750D03*
%TD*%
%TO.C,D25*%
X45878750Y-93883750D03*
X45878750Y-90583750D03*
%TD*%
%TO.C,D28*%
X105410000Y-93821250D03*
X105410000Y-90521250D03*
%TD*%
%TO.C,D39*%
X100647500Y-112933750D03*
X100647500Y-109633750D03*
%TD*%
%TO.C,D17*%
X119697500Y-74833750D03*
X119697500Y-71533750D03*
%TD*%
%TO.C,D13*%
X43497500Y-74833750D03*
X43497500Y-71533750D03*
%TD*%
%TO.C,D9*%
X195897500Y-55783750D03*
X195897500Y-52483750D03*
%TD*%
%TO.C,D36*%
X260191250Y-93883750D03*
X260191250Y-90583750D03*
%TD*%
%TO.C,D21*%
X195897500Y-74833750D03*
X195897500Y-71533750D03*
%TD*%
%TO.C,D23*%
X233997500Y-74833750D03*
X233997500Y-71533750D03*
%TD*%
%TO.C,D32*%
X181610000Y-93883750D03*
X181610000Y-90583750D03*
%TD*%
%TO.C,D6*%
X138747500Y-55783750D03*
X138747500Y-52483750D03*
%TD*%
%TO.C,D18*%
X138747500Y-74833750D03*
X138747500Y-71533750D03*
%TD*%
%TO.C,D26*%
X67310000Y-93883750D03*
X67310000Y-90583750D03*
%TD*%
%TO.C,D38*%
X74453750Y-112933750D03*
X74453750Y-109633750D03*
%TD*%
%TO.C,D5*%
X119697500Y-55783750D03*
X119697500Y-52483750D03*
%TD*%
%TO.C,D33*%
X200660000Y-93883750D03*
X200660000Y-90583750D03*
%TD*%
M02*
