M48
; DRILL file {KiCad 7.0.9} date Tue Feb 13 22:10:19 2024
; FORMAT={-:-/ absolute / inch / decimal}
; #@! TF.CreationDate,2024-02-13T22:10:19+01:00
; #@! TF.GenerationSoftware,Kicad,Pcbnew,7.0.9
; #@! TF.FileFunction,NonPlated,1,2,NPTH
FMAT,2
INCH
; #@! TA.AperFunction,NonPlated,NPTH,ComponentDrill
T1C0.0689
; #@! TA.AperFunction,NonPlated,NPTH,ComponentDrill
T2C0.1570
%
G90
G05
T1
X1.3875Y-2.1
X1.3875Y-2.85
X1.4812Y-3.6
X1.575Y-4.35
X1.7875Y-2.1
X1.7875Y-2.85
X1.8812Y-3.6
X1.975Y-4.35
X2.1375Y-2.1
X2.1375Y-2.85
X2.325Y-3.6
X2.5375Y-2.1
X2.5375Y-2.85
X2.6062Y-4.35
X2.725Y-3.6
X2.8875Y-2.1
X2.8875Y-2.85
X3.0063Y-4.35
X3.075Y-3.6
X3.2875Y-2.1
X3.2875Y-2.85
X3.475Y-3.6
X3.6375Y-2.1
X3.6375Y-2.85
X3.6375Y-4.35
X3.825Y-3.6
X4.0375Y-2.1
X4.0375Y-2.85
X4.0375Y-4.35
X4.225Y-3.6
X4.3875Y-2.1
X4.3875Y-2.85
X4.575Y-3.6
X4.7875Y-2.1
X4.7875Y-2.85
X4.975Y-3.6
X5.1375Y-2.1
X5.1375Y-2.85
X5.325Y-3.6
X5.325Y-4.35
X5.5375Y-2.1
X5.5375Y-2.85
X5.725Y-3.6
X5.725Y-4.35
X5.8875Y-2.1
X5.8875Y-2.85
X6.075Y-3.6
X6.2875Y-2.1
X6.2875Y-2.85
X6.475Y-3.6
X6.6375Y-2.1
X6.6375Y-2.85
X6.825Y-3.6
X7.0125Y-4.35
X7.0375Y-2.1
X7.0375Y-2.85
X7.225Y-3.6
X7.3875Y-2.1
X7.3875Y-2.85
X7.4125Y-4.35
X7.575Y-3.6
X7.7875Y-2.1
X7.7875Y-2.85
X7.975Y-3.6
X8.0437Y-4.35
X8.1375Y-2.1
X8.1375Y-2.85
X8.325Y-3.6
X8.4437Y-4.35
X8.5375Y-2.1
X8.5375Y-2.85
X8.725Y-3.6
X8.8875Y-2.1
X8.8875Y-2.85
X8.9812Y-4.35
X9.075Y-3.6
X9.2875Y-2.1
X9.2875Y-2.85
X9.3812Y-4.35
X9.475Y-3.6
X9.825Y-2.1
X9.825Y-2.85
X9.9187Y-3.6
X9.9187Y-4.35
X10.225Y-2.1
X10.225Y-2.85
X10.3187Y-3.6
X10.3187Y-4.35
T2
X1.5875Y-2.1
X1.5875Y-2.85
X1.6812Y-3.6
X1.775Y-4.35
X2.3375Y-2.1
X2.3375Y-2.85
X2.525Y-3.6
X2.8062Y-4.35
X3.0875Y-2.1
X3.0875Y-2.85
X3.275Y-3.6
X3.8375Y-2.1
X3.8375Y-2.85
X3.8375Y-4.35
X4.025Y-3.6
X4.5875Y-2.1
X4.5875Y-2.85
X4.775Y-3.6
X4.775Y-4.025
X5.3375Y-2.1
X5.3375Y-2.85
X5.525Y-3.6
X5.525Y-4.35
X6.0875Y-2.1
X6.0875Y-2.85
X6.275Y-3.6
X6.275Y-4.025
X6.8375Y-2.1
X6.8375Y-2.85
X7.025Y-3.6
X7.2125Y-4.35
X7.5875Y-2.1
X7.5875Y-2.85
X7.775Y-3.6
X8.2438Y-4.35
X8.3375Y-2.1
X8.3375Y-2.85
X8.525Y-3.6
X9.0875Y-2.1
X9.0875Y-2.85
X9.1813Y-4.35
X9.275Y-3.6
X10.025Y-2.1
X10.025Y-2.85
X10.1188Y-3.6
X10.1188Y-4.35
T0
M30
