%TF.GenerationSoftware,KiCad,Pcbnew,7.0.9*%
%TF.CreationDate,2024-02-13T22:10:24+01:00*%
%TF.ProjectId,bratski_keyboard,62726174-736b-4695-9f6b-6579626f6172,rev?*%
%TF.SameCoordinates,Original*%
%TF.FileFunction,Copper,L1,Top*%
%TF.FilePolarity,Positive*%
%FSLAX46Y46*%
G04 Gerber Fmt 4.6, Leading zero omitted, Abs format (unit mm)*
G04 Created by KiCad (PCBNEW 7.0.9) date 2024-02-13 22:10:24*
%MOMM*%
%LPD*%
G01*
G04 APERTURE LIST*
%TA.AperFunction,ComponentPad*%
%ADD10C,2.300000*%
%TD*%
%TA.AperFunction,ComponentPad*%
%ADD11C,4.000000*%
%TD*%
%TA.AperFunction,ComponentPad*%
%ADD12O,1.700000X1.700000*%
%TD*%
%TA.AperFunction,ComponentPad*%
%ADD13R,1.700000X1.700000*%
%TD*%
%TA.AperFunction,ViaPad*%
%ADD14C,0.800000*%
%TD*%
%TA.AperFunction,Conductor*%
%ADD15C,0.250000*%
%TD*%
G04 APERTURE END LIST*
D10*
%TO.P,SW42,1,1*%
%TO.N,COL9*%
X205581250Y-107950000D03*
%TO.P,SW42,2,2*%
%TO.N,Net-(D42-Pad2)*%
X211931250Y-105410000D03*
%TD*%
%TO.P,SW9,1,1*%
%TO.N,COL8*%
X188912500Y-50800000D03*
%TO.P,SW9,2,2*%
%TO.N,Net-(D9-Pad2)*%
X195262500Y-48260000D03*
%TD*%
%TO.P,SW5,1,1*%
%TO.N,COL4*%
X112712500Y-50800000D03*
%TO.P,SW5,2,2*%
%TO.N,Net-(D5-Pad2)*%
X119062500Y-48260000D03*
%TD*%
%TO.P,SW24,1,1*%
%TO.N,COL11*%
X250825000Y-69850000D03*
%TO.P,SW24,2,2*%
%TO.N,Net-(D24-Pad2)*%
X257175000Y-67310000D03*
%TD*%
%TO.P,SW17,1,1*%
%TO.N,COL4*%
X112712500Y-69850000D03*
%TO.P,SW17,2,2*%
%TO.N,Net-(D17-Pad2)*%
X119062500Y-67310000D03*
%TD*%
%TO.P,SW27,1,1*%
%TO.N,COL2*%
X79375000Y-88900000D03*
%TO.P,SW27,2,2*%
%TO.N,Net-(D27-Pad2)*%
X85725000Y-86360000D03*
%TD*%
%TO.P,SW30,1,1*%
%TO.N,COL5*%
X136525000Y-88900000D03*
%TO.P,SW30,2,2*%
%TO.N,Net-(D30-Pad2)*%
X142875000Y-86360000D03*
%TD*%
%TO.P,SW39,1,1*%
%TO.N,COL3*%
X93662500Y-107950000D03*
%TO.P,SW39,2,2*%
%TO.N,Net-(D39-Pad2)*%
X100012500Y-105410000D03*
%TD*%
%TO.P,SW6,1,1*%
%TO.N,COL5*%
X131762500Y-50800000D03*
%TO.P,SW6,2,2*%
%TO.N,Net-(D6-Pad2)*%
X138112500Y-48260000D03*
%TD*%
%TO.P,SW11,1,1*%
%TO.N,COL10*%
X227012500Y-50800000D03*
%TO.P,SW11,2,2*%
%TO.N,Net-(D11-Pad2)*%
X233362500Y-48260000D03*
%TD*%
%TO.P,SW13,1,1*%
%TO.N,COL0*%
X36512500Y-69850000D03*
%TO.P,SW13,2,2*%
%TO.N,Net-(D13-Pad2)*%
X42862500Y-67310000D03*
%TD*%
%TO.P,SW35,2,2*%
%TO.N,Net-(D35-Pad2)*%
X238125000Y-86360000D03*
%TO.P,SW35,1,1*%
%TO.N,COL10*%
X231775000Y-88900000D03*
%TD*%
%TO.P,SW44,1,1*%
%TO.N,COL11*%
X253206250Y-107950000D03*
%TO.P,SW44,2,2*%
%TO.N,Net-(D44-Pad2)*%
X259556250Y-105410000D03*
%TD*%
%TO.P,SW38,1,1*%
%TO.N,COL1*%
X67468750Y-107950000D03*
%TO.P,SW38,2,2*%
%TO.N,Net-(D38-Pad2)*%
X73818750Y-105410000D03*
%TD*%
%TO.P,SW29,1,1*%
%TO.N,COL4*%
X117475000Y-88900000D03*
%TO.P,SW29,2,2*%
%TO.N,Net-(D29-Pad2)*%
X123825000Y-86360000D03*
%TD*%
%TO.P,SW22,1,1*%
%TO.N,COL9*%
X207962500Y-69850000D03*
%TO.P,SW22,2,2*%
%TO.N,Net-(D22-Pad2)*%
X214312500Y-67310000D03*
%TD*%
%TO.P,SW31,1,1*%
%TO.N,COL6*%
X155575000Y-88900000D03*
%TO.P,SW31,2,2*%
%TO.N,Net-(D31-Pad2)*%
X161925000Y-86360000D03*
%TD*%
%TO.P,SW1,1,1*%
%TO.N,COL0*%
X36512500Y-50800000D03*
%TO.P,SW1,2,2*%
%TO.N,Net-(D1-Pad2)*%
X42862500Y-48260000D03*
%TD*%
%TO.P,SW10,1,1*%
%TO.N,COL9*%
X207962500Y-50800000D03*
%TO.P,SW10,2,2*%
%TO.N,Net-(D10-Pad2)*%
X214312500Y-48260000D03*
%TD*%
%TO.P,SW19,1,1*%
%TO.N,COL6*%
X150812500Y-69850000D03*
%TO.P,SW19,2,2*%
%TO.N,Net-(D19-Pad2)*%
X157162500Y-67310000D03*
%TD*%
%TO.P,SW37,1,1*%
%TO.N,COL0*%
X41275000Y-107950000D03*
%TO.P,SW37,2,2*%
%TO.N,Net-(D37-Pad2)*%
X47625000Y-105410000D03*
%TD*%
%TO.P,SW18,1,1*%
%TO.N,COL5*%
X131762500Y-69850000D03*
%TO.P,SW18,2,2*%
%TO.N,Net-(D18-Pad2)*%
X138112500Y-67310000D03*
%TD*%
%TO.P,SW12,1,1*%
%TO.N,COL11*%
X250825000Y-50800000D03*
%TO.P,SW12,2,2*%
%TO.N,Net-(D12-Pad2)*%
X257175000Y-48260000D03*
%TD*%
%TO.P,SW8,1,1*%
%TO.N,COL7*%
X169862500Y-50800000D03*
%TO.P,SW8,2,2*%
%TO.N,Net-(D8-Pad2)*%
X176212500Y-48260000D03*
%TD*%
%TO.P,SW21,1,1*%
%TO.N,COL8*%
X188912500Y-69850000D03*
%TO.P,SW21,2,2*%
%TO.N,Net-(D21-Pad2)*%
X195262500Y-67310000D03*
%TD*%
%TO.P,SW43,1,1*%
%TO.N,COL10*%
X229393750Y-107950000D03*
%TO.P,SW43,2,2*%
%TO.N,Net-(D43-Pad2)*%
X235743750Y-105410000D03*
%TD*%
%TO.P,SW16,1,1*%
%TO.N,COL3*%
X93662500Y-69850000D03*
%TO.P,SW16,2,2*%
%TO.N,Net-(D16-Pad2)*%
X100012500Y-67310000D03*
%TD*%
%TO.P,SW3,1,1*%
%TO.N,COL2*%
X74612500Y-50800000D03*
%TO.P,SW3,2,2*%
%TO.N,Net-(D3-Pad2)*%
X80962500Y-48260000D03*
%TD*%
%TO.P,SW40,1,1*%
%TO.N,COL5*%
X136525000Y-107950000D03*
%TO.P,SW40,2,2*%
%TO.N,Net-(D40-Pad2)*%
X142875000Y-105410000D03*
%TD*%
%TO.P,SW25,1,1*%
%TO.N,COL0*%
X38893750Y-88900000D03*
%TO.P,SW25,2,2*%
%TO.N,Net-(D25-Pad2)*%
X45243750Y-86360000D03*
%TD*%
%TO.P,SW36,1,1*%
%TO.N,COL11*%
X253206250Y-88900000D03*
%TO.P,SW36,2,2*%
%TO.N,Net-(D36-Pad2)*%
X259556250Y-86360000D03*
%TD*%
%TO.P,SW32,1,1*%
%TO.N,COL7*%
X174625000Y-88900000D03*
%TO.P,SW32,2,2*%
%TO.N,Net-(D32-Pad2)*%
X180975000Y-86360000D03*
%TD*%
%TO.P,SW4,1,1*%
%TO.N,COL3*%
X93662500Y-50800000D03*
%TO.P,SW4,2,2*%
%TO.N,Net-(D4-Pad2)*%
X100012500Y-48260000D03*
%TD*%
%TO.P,SW15,1,1*%
%TO.N,COL2*%
X74612500Y-69850000D03*
%TO.P,SW15,2,2*%
%TO.N,Net-(D15-Pad2)*%
X80962500Y-67310000D03*
%TD*%
%TO.P,SW23,1,1*%
%TO.N,COL10*%
X227012500Y-69850000D03*
%TO.P,SW23,2,2*%
%TO.N,Net-(D23-Pad2)*%
X233362500Y-67310000D03*
%TD*%
%TO.P,SW2,1,1*%
%TO.N,COL1*%
X55562500Y-50800000D03*
%TO.P,SW2,2,2*%
%TO.N,Net-(D2-Pad2)*%
X61912500Y-48260000D03*
%TD*%
%TO.P,SW26,1,1*%
%TO.N,COL1*%
X60325000Y-88900000D03*
%TO.P,SW26,2,2*%
%TO.N,Net-(D26-Pad2)*%
X66675000Y-86360000D03*
%TD*%
%TO.P,SW14,1,1*%
%TO.N,COL1*%
X55562500Y-69850000D03*
%TO.P,SW14,2,2*%
%TO.N,Net-(D14-Pad2)*%
X61912500Y-67310000D03*
%TD*%
%TO.P,SW20,1,1*%
%TO.N,COL7*%
X169862500Y-69850000D03*
%TO.P,SW20,2,2*%
%TO.N,Net-(D20-Pad2)*%
X176212500Y-67310000D03*
%TD*%
%TO.P,SW34,1,1*%
%TO.N,COL9*%
X212725000Y-88900000D03*
%TO.P,SW34,2,2*%
%TO.N,Net-(D34-Pad2)*%
X219075000Y-86360000D03*
%TD*%
%TO.P,SW33,1,1*%
%TO.N,COL8*%
X193675000Y-88900000D03*
%TO.P,SW33,2,2*%
%TO.N,Net-(D33-Pad2)*%
X200025000Y-86360000D03*
%TD*%
%TO.P,SW28,1,1*%
%TO.N,COL3*%
X98425000Y-88900000D03*
%TO.P,SW28,2,2*%
%TO.N,Net-(D28-Pad2)*%
X104775000Y-86360000D03*
%TD*%
%TO.P,SW41,1,1*%
%TO.N,COL7*%
X179387500Y-107950000D03*
%TO.P,SW41,2,2*%
%TO.N,Net-(D41-Pad2)*%
X185737500Y-105410000D03*
%TD*%
D11*
%TO.P,S1,*%
%TO.N,*%
X159385000Y-117475000D03*
X121285000Y-117475000D03*
%TD*%
D10*
%TO.P,SW7,1,1*%
%TO.N,COL6*%
X150812500Y-50800000D03*
%TO.P,SW7,2,2*%
%TO.N,Net-(D7-Pad2)*%
X157162500Y-48260000D03*
%TD*%
D12*
%TO.P,U1,1,GPIO0*%
%TO.N,ROW3*%
X266858750Y-62230000D03*
%TO.P,U1,2,GPIO1*%
%TO.N,ROW2*%
X264318750Y-62230000D03*
D13*
%TO.P,U1,3,GND*%
%TO.N,unconnected-(U1-Pad3)*%
X261778750Y-62230000D03*
D12*
%TO.P,U1,4,GPIO2*%
%TO.N,ROW1*%
X259238750Y-62230000D03*
%TO.P,U1,5,GPIO3*%
%TO.N,ROW0*%
X256698750Y-62230000D03*
%TO.P,U1,6,GPIO4*%
%TO.N,unconnected-(U1-Pad6)*%
X254158750Y-62230000D03*
%TO.P,U1,7,GPIO5*%
%TO.N,unconnected-(U1-Pad7)*%
X251618750Y-62230000D03*
D13*
%TO.P,U1,8,GND*%
%TO.N,unconnected-(U1-Pad8)*%
X249078750Y-62230000D03*
D12*
%TO.P,U1,9,GPIO6*%
%TO.N,COL0*%
X246538750Y-62230000D03*
%TO.P,U1,10,GPIO7*%
%TO.N,COL1*%
X243998750Y-62230000D03*
%TO.P,U1,11,GPIO8*%
%TO.N,COL2*%
X241458750Y-62230000D03*
%TO.P,U1,12,GPIO9*%
%TO.N,COL3*%
X238918750Y-62230000D03*
D13*
%TO.P,U1,13,GND*%
%TO.N,unconnected-(U1-Pad13)*%
X236378750Y-62230000D03*
D12*
%TO.P,U1,14,GPIO10*%
%TO.N,unconnected-(U1-Pad14)*%
X233838750Y-62230000D03*
%TO.P,U1,15,GPIO11*%
%TO.N,unconnected-(U1-Pad15)*%
X231298750Y-62230000D03*
%TO.P,U1,16,GPIO12*%
%TO.N,COL7*%
X228758750Y-62230000D03*
%TO.P,U1,17,GPIO13*%
%TO.N,COL6*%
X226218750Y-62230000D03*
D13*
%TO.P,U1,18,GND*%
%TO.N,unconnected-(U1-Pad18)*%
X223678750Y-62230000D03*
D12*
%TO.P,U1,19,GPIO14*%
%TO.N,COL5*%
X221138750Y-62230000D03*
%TO.P,U1,20,GPIO15*%
%TO.N,COL4*%
X218598750Y-62230000D03*
%TO.P,U1,21,GPIO16*%
%TO.N,unconnected-(U1-Pad21)*%
X218598750Y-44450000D03*
%TO.P,U1,22,GPIO17*%
%TO.N,unconnected-(U1-Pad22)*%
X221138750Y-44450000D03*
D13*
%TO.P,U1,23,GND*%
%TO.N,unconnected-(U1-Pad23)*%
X223678750Y-44450000D03*
D12*
%TO.P,U1,24,GPIO18*%
%TO.N,unconnected-(U1-Pad24)*%
X226218750Y-44450000D03*
%TO.P,U1,25,GPIO19*%
%TO.N,COL8*%
X228758750Y-44450000D03*
%TO.P,U1,26,GPIO20*%
%TO.N,COL9*%
X231298750Y-44450000D03*
%TO.P,U1,27,GPIO21*%
%TO.N,COL10*%
X233838750Y-44450000D03*
D13*
%TO.P,U1,28,GND*%
%TO.N,unconnected-(U1-Pad28)*%
X236378750Y-44450000D03*
D12*
%TO.P,U1,29,GPIO22*%
%TO.N,unconnected-(U1-Pad29)*%
X238918750Y-44450000D03*
%TO.P,U1,30,RUN*%
%TO.N,unconnected-(U1-Pad30)*%
X241458750Y-44450000D03*
%TO.P,U1,31,GPIO26_ADC0*%
%TO.N,unconnected-(U1-Pad31)*%
X243998750Y-44450000D03*
%TO.P,U1,32,GPIO27_ADC1*%
%TO.N,unconnected-(U1-Pad32)*%
X246538750Y-44450000D03*
D13*
%TO.P,U1,33,AGND*%
%TO.N,unconnected-(U1-Pad33)*%
X249078750Y-44450000D03*
D12*
%TO.P,U1,34,GPIO28_ADC2*%
%TO.N,COL11*%
X251618750Y-44450000D03*
%TO.P,U1,35,ADC_VREF*%
%TO.N,unconnected-(U1-Pad35)*%
X254158750Y-44450000D03*
%TO.P,U1,36,3V3*%
%TO.N,unconnected-(U1-Pad36)*%
X256698750Y-44450000D03*
%TO.P,U1,37,3V3_EN*%
%TO.N,unconnected-(U1-Pad37)*%
X259238750Y-44450000D03*
D13*
%TO.P,U1,38,GND*%
%TO.N,unconnected-(U1-Pad38)*%
X261778750Y-44450000D03*
D12*
%TO.P,U1,39,VSYS*%
%TO.N,unconnected-(U1-Pad39)*%
X264318750Y-44450000D03*
%TO.P,U1,40,VBUS*%
%TO.N,unconnected-(U1-Pad40)*%
X266858750Y-44450000D03*
%TD*%
D14*
%TO.N,COL0*%
X36512500Y-57150000D03*
%TO.N,COL1*%
X55562500Y-58033250D03*
%TO.N,COL2*%
X74612500Y-58827000D03*
%TO.N,COL3*%
X93662500Y-59620750D03*
%TO.N,COL4*%
X112712500Y-60414500D03*
%TO.N,COL5*%
X131762500Y-61208250D03*
%TO.N,COL6*%
X150812500Y-62002000D03*
%TO.N,COL7*%
X169862500Y-62795750D03*
%TD*%
D15*
%TO.N,COL0*%
X36512500Y-86518750D02*
X38893750Y-88900000D01*
X36512500Y-69850000D02*
X36512500Y-86518750D01*
X38893750Y-105568750D02*
X41275000Y-107950000D01*
X38893750Y-88900000D02*
X38893750Y-105568750D01*
X36512500Y-57150000D02*
X36512500Y-69850000D01*
X36512500Y-50800000D02*
X36512500Y-57150000D01*
%TO.N,COL1*%
X55562500Y-50800000D02*
X55562500Y-69850000D01*
X55562500Y-69850000D02*
X55562500Y-84137500D01*
X60325000Y-100806250D02*
X67468750Y-107950000D01*
X55562500Y-84137500D02*
X60325000Y-88900000D01*
X60325000Y-88900000D02*
X60325000Y-100806250D01*
%TO.N,COL2*%
X74612500Y-69850000D02*
X74612500Y-84137500D01*
X74612500Y-50800000D02*
X74612500Y-69850000D01*
X74612500Y-84137500D02*
X79375000Y-88900000D01*
%TO.N,COL3*%
X98425000Y-88900000D02*
X96798655Y-88900000D01*
X93662500Y-84137500D02*
X98425000Y-88900000D01*
X93662500Y-69850000D02*
X93662500Y-84137500D01*
X96798655Y-88900000D02*
X93662500Y-92036155D01*
X93662500Y-50800000D02*
X93662500Y-69850000D01*
X93662500Y-92036155D02*
X93662500Y-107950000D01*
%TO.N,COL4*%
X112712500Y-50800000D02*
X112712500Y-69850000D01*
X112712500Y-69850000D02*
X112712500Y-84137500D01*
X112712500Y-84137500D02*
X117475000Y-88900000D01*
%TO.N,COL5*%
X131762500Y-50800000D02*
X131762500Y-69850000D01*
X131762500Y-84137500D02*
X136525000Y-88900000D01*
X136525000Y-88900000D02*
X136525000Y-107950000D01*
X131762500Y-69850000D02*
X131762500Y-84137500D01*
%TO.N,COL6*%
X150812500Y-50800000D02*
X150812500Y-69850000D01*
X150812500Y-69850000D02*
X150812500Y-84137500D01*
X150812500Y-84137500D02*
X155575000Y-88900000D01*
%TO.N,COL7*%
X174625000Y-88900000D02*
X174625000Y-103187500D01*
X174625000Y-103187500D02*
X179387500Y-107950000D01*
X169862500Y-84137500D02*
X174625000Y-88900000D01*
X169862500Y-69850000D02*
X169862500Y-84137500D01*
X169862500Y-50800000D02*
X169862500Y-69850000D01*
%TO.N,COL8*%
X188912500Y-84137500D02*
X193675000Y-88900000D01*
X188912500Y-69850000D02*
X188912500Y-84137500D01*
X188912500Y-50800000D02*
X188912500Y-69850000D01*
%TO.N,COL9*%
X212725000Y-88900000D02*
X212725000Y-100806250D01*
X212725000Y-100806250D02*
X205581250Y-107950000D01*
X207962500Y-69850000D02*
X207962500Y-84137500D01*
X207962500Y-50800000D02*
X207962500Y-69850000D01*
X207962500Y-84137500D02*
X212725000Y-88900000D01*
%TO.N,COL10*%
X227012500Y-84137500D02*
X231775000Y-88900000D01*
X231775000Y-88900000D02*
X231775000Y-105568750D01*
X231775000Y-105568750D02*
X229393750Y-107950000D01*
X227012500Y-69850000D02*
X227012500Y-84137500D01*
X227393750Y-69468750D02*
X227012500Y-69850000D01*
X227012500Y-50800000D02*
X227393750Y-51181250D01*
X227393750Y-51181250D02*
X227393750Y-69468750D01*
%TO.N,COL11*%
X250825000Y-50800000D02*
X250825000Y-61118750D01*
X250825000Y-69850000D02*
X250825000Y-86518750D01*
X250825000Y-61118750D02*
X250253750Y-61690000D01*
X253206250Y-88900000D02*
X253206250Y-107950000D01*
X250253750Y-69278750D02*
X250825000Y-69850000D01*
X250825000Y-86518750D02*
X253206250Y-88900000D01*
X250253750Y-61690000D02*
X250253750Y-69278750D01*
%TD*%
M02*
