%TF.GenerationSoftware,KiCad,Pcbnew,7.0.9*%
%TF.CreationDate,2024-02-13T22:10:24+01:00*%
%TF.ProjectId,bratski_keyboard,62726174-736b-4695-9f6b-6579626f6172,rev?*%
%TF.SameCoordinates,Original*%
%TF.FileFunction,Legend,Bot*%
%TF.FilePolarity,Positive*%
%FSLAX46Y46*%
G04 Gerber Fmt 4.6, Leading zero omitted, Abs format (unit mm)*
G04 Created by KiCad (PCBNEW 7.0.9) date 2024-02-13 22:10:24*
%MOMM*%
%LPD*%
G01*
G04 APERTURE LIST*
%ADD10C,0.150000*%
%ADD11C,0.120000*%
G04 APERTURE END LIST*
D10*
X217402319Y-52919464D02*
X216402319Y-52919464D01*
X216402319Y-52919464D02*
X216402319Y-53157559D01*
X216402319Y-53157559D02*
X216449938Y-53300416D01*
X216449938Y-53300416D02*
X216545176Y-53395654D01*
X216545176Y-53395654D02*
X216640414Y-53443273D01*
X216640414Y-53443273D02*
X216830890Y-53490892D01*
X216830890Y-53490892D02*
X216973747Y-53490892D01*
X216973747Y-53490892D02*
X217164223Y-53443273D01*
X217164223Y-53443273D02*
X217259461Y-53395654D01*
X217259461Y-53395654D02*
X217354700Y-53300416D01*
X217354700Y-53300416D02*
X217402319Y-53157559D01*
X217402319Y-53157559D02*
X217402319Y-52919464D01*
X217402319Y-54443273D02*
X217402319Y-53871845D01*
X217402319Y-54157559D02*
X216402319Y-54157559D01*
X216402319Y-54157559D02*
X216545176Y-54062321D01*
X216545176Y-54062321D02*
X216640414Y-53967083D01*
X216640414Y-53967083D02*
X216688033Y-53871845D01*
X216402319Y-55062321D02*
X216402319Y-55157559D01*
X216402319Y-55157559D02*
X216449938Y-55252797D01*
X216449938Y-55252797D02*
X216497557Y-55300416D01*
X216497557Y-55300416D02*
X216592795Y-55348035D01*
X216592795Y-55348035D02*
X216783271Y-55395654D01*
X216783271Y-55395654D02*
X217021366Y-55395654D01*
X217021366Y-55395654D02*
X217211842Y-55348035D01*
X217211842Y-55348035D02*
X217307080Y-55300416D01*
X217307080Y-55300416D02*
X217354700Y-55252797D01*
X217354700Y-55252797D02*
X217402319Y-55157559D01*
X217402319Y-55157559D02*
X217402319Y-55062321D01*
X217402319Y-55062321D02*
X217354700Y-54967083D01*
X217354700Y-54967083D02*
X217307080Y-54919464D01*
X217307080Y-54919464D02*
X217211842Y-54871845D01*
X217211842Y-54871845D02*
X217021366Y-54824226D01*
X217021366Y-54824226D02*
X216783271Y-54824226D01*
X216783271Y-54824226D02*
X216592795Y-54871845D01*
X216592795Y-54871845D02*
X216497557Y-54919464D01*
X216497557Y-54919464D02*
X216449938Y-54967083D01*
X216449938Y-54967083D02*
X216402319Y-55062321D01*
X103102319Y-71969464D02*
X102102319Y-71969464D01*
X102102319Y-71969464D02*
X102102319Y-72207559D01*
X102102319Y-72207559D02*
X102149938Y-72350416D01*
X102149938Y-72350416D02*
X102245176Y-72445654D01*
X102245176Y-72445654D02*
X102340414Y-72493273D01*
X102340414Y-72493273D02*
X102530890Y-72540892D01*
X102530890Y-72540892D02*
X102673747Y-72540892D01*
X102673747Y-72540892D02*
X102864223Y-72493273D01*
X102864223Y-72493273D02*
X102959461Y-72445654D01*
X102959461Y-72445654D02*
X103054700Y-72350416D01*
X103054700Y-72350416D02*
X103102319Y-72207559D01*
X103102319Y-72207559D02*
X103102319Y-71969464D01*
X103102319Y-73493273D02*
X103102319Y-72921845D01*
X103102319Y-73207559D02*
X102102319Y-73207559D01*
X102102319Y-73207559D02*
X102245176Y-73112321D01*
X102245176Y-73112321D02*
X102340414Y-73017083D01*
X102340414Y-73017083D02*
X102388033Y-72921845D01*
X102102319Y-74350416D02*
X102102319Y-74159940D01*
X102102319Y-74159940D02*
X102149938Y-74064702D01*
X102149938Y-74064702D02*
X102197557Y-74017083D01*
X102197557Y-74017083D02*
X102340414Y-73921845D01*
X102340414Y-73921845D02*
X102530890Y-73874226D01*
X102530890Y-73874226D02*
X102911842Y-73874226D01*
X102911842Y-73874226D02*
X103007080Y-73921845D01*
X103007080Y-73921845D02*
X103054700Y-73969464D01*
X103054700Y-73969464D02*
X103102319Y-74064702D01*
X103102319Y-74064702D02*
X103102319Y-74255178D01*
X103102319Y-74255178D02*
X103054700Y-74350416D01*
X103054700Y-74350416D02*
X103007080Y-74398035D01*
X103007080Y-74398035D02*
X102911842Y-74445654D01*
X102911842Y-74445654D02*
X102673747Y-74445654D01*
X102673747Y-74445654D02*
X102578509Y-74398035D01*
X102578509Y-74398035D02*
X102530890Y-74350416D01*
X102530890Y-74350416D02*
X102483271Y-74255178D01*
X102483271Y-74255178D02*
X102483271Y-74064702D01*
X102483271Y-74064702D02*
X102530890Y-73969464D01*
X102530890Y-73969464D02*
X102578509Y-73921845D01*
X102578509Y-73921845D02*
X102673747Y-73874226D01*
X160252319Y-71969464D02*
X159252319Y-71969464D01*
X159252319Y-71969464D02*
X159252319Y-72207559D01*
X159252319Y-72207559D02*
X159299938Y-72350416D01*
X159299938Y-72350416D02*
X159395176Y-72445654D01*
X159395176Y-72445654D02*
X159490414Y-72493273D01*
X159490414Y-72493273D02*
X159680890Y-72540892D01*
X159680890Y-72540892D02*
X159823747Y-72540892D01*
X159823747Y-72540892D02*
X160014223Y-72493273D01*
X160014223Y-72493273D02*
X160109461Y-72445654D01*
X160109461Y-72445654D02*
X160204700Y-72350416D01*
X160204700Y-72350416D02*
X160252319Y-72207559D01*
X160252319Y-72207559D02*
X160252319Y-71969464D01*
X160252319Y-73493273D02*
X160252319Y-72921845D01*
X160252319Y-73207559D02*
X159252319Y-73207559D01*
X159252319Y-73207559D02*
X159395176Y-73112321D01*
X159395176Y-73112321D02*
X159490414Y-73017083D01*
X159490414Y-73017083D02*
X159538033Y-72921845D01*
X160252319Y-73969464D02*
X160252319Y-74159940D01*
X160252319Y-74159940D02*
X160204700Y-74255178D01*
X160204700Y-74255178D02*
X160157080Y-74302797D01*
X160157080Y-74302797D02*
X160014223Y-74398035D01*
X160014223Y-74398035D02*
X159823747Y-74445654D01*
X159823747Y-74445654D02*
X159442795Y-74445654D01*
X159442795Y-74445654D02*
X159347557Y-74398035D01*
X159347557Y-74398035D02*
X159299938Y-74350416D01*
X159299938Y-74350416D02*
X159252319Y-74255178D01*
X159252319Y-74255178D02*
X159252319Y-74064702D01*
X159252319Y-74064702D02*
X159299938Y-73969464D01*
X159299938Y-73969464D02*
X159347557Y-73921845D01*
X159347557Y-73921845D02*
X159442795Y-73874226D01*
X159442795Y-73874226D02*
X159680890Y-73874226D01*
X159680890Y-73874226D02*
X159776128Y-73921845D01*
X159776128Y-73921845D02*
X159823747Y-73969464D01*
X159823747Y-73969464D02*
X159871366Y-74064702D01*
X159871366Y-74064702D02*
X159871366Y-74255178D01*
X159871366Y-74255178D02*
X159823747Y-74350416D01*
X159823747Y-74350416D02*
X159776128Y-74398035D01*
X159776128Y-74398035D02*
X159680890Y-74445654D01*
X160252319Y-53395655D02*
X159252319Y-53395655D01*
X159252319Y-53395655D02*
X159252319Y-53633750D01*
X159252319Y-53633750D02*
X159299938Y-53776607D01*
X159299938Y-53776607D02*
X159395176Y-53871845D01*
X159395176Y-53871845D02*
X159490414Y-53919464D01*
X159490414Y-53919464D02*
X159680890Y-53967083D01*
X159680890Y-53967083D02*
X159823747Y-53967083D01*
X159823747Y-53967083D02*
X160014223Y-53919464D01*
X160014223Y-53919464D02*
X160109461Y-53871845D01*
X160109461Y-53871845D02*
X160204700Y-53776607D01*
X160204700Y-53776607D02*
X160252319Y-53633750D01*
X160252319Y-53633750D02*
X160252319Y-53395655D01*
X159252319Y-54300417D02*
X159252319Y-54967083D01*
X159252319Y-54967083D02*
X160252319Y-54538512D01*
X222164819Y-90956964D02*
X221164819Y-90956964D01*
X221164819Y-90956964D02*
X221164819Y-91195059D01*
X221164819Y-91195059D02*
X221212438Y-91337916D01*
X221212438Y-91337916D02*
X221307676Y-91433154D01*
X221307676Y-91433154D02*
X221402914Y-91480773D01*
X221402914Y-91480773D02*
X221593390Y-91528392D01*
X221593390Y-91528392D02*
X221736247Y-91528392D01*
X221736247Y-91528392D02*
X221926723Y-91480773D01*
X221926723Y-91480773D02*
X222021961Y-91433154D01*
X222021961Y-91433154D02*
X222117200Y-91337916D01*
X222117200Y-91337916D02*
X222164819Y-91195059D01*
X222164819Y-91195059D02*
X222164819Y-90956964D01*
X221164819Y-91861726D02*
X221164819Y-92480773D01*
X221164819Y-92480773D02*
X221545771Y-92147440D01*
X221545771Y-92147440D02*
X221545771Y-92290297D01*
X221545771Y-92290297D02*
X221593390Y-92385535D01*
X221593390Y-92385535D02*
X221641009Y-92433154D01*
X221641009Y-92433154D02*
X221736247Y-92480773D01*
X221736247Y-92480773D02*
X221974342Y-92480773D01*
X221974342Y-92480773D02*
X222069580Y-92433154D01*
X222069580Y-92433154D02*
X222117200Y-92385535D01*
X222117200Y-92385535D02*
X222164819Y-92290297D01*
X222164819Y-92290297D02*
X222164819Y-92004583D01*
X222164819Y-92004583D02*
X222117200Y-91909345D01*
X222117200Y-91909345D02*
X222069580Y-91861726D01*
X221498152Y-93337916D02*
X222164819Y-93337916D01*
X221117200Y-93099821D02*
X221831485Y-92861726D01*
X221831485Y-92861726D02*
X221831485Y-93480773D01*
X45952319Y-53395655D02*
X44952319Y-53395655D01*
X44952319Y-53395655D02*
X44952319Y-53633750D01*
X44952319Y-53633750D02*
X44999938Y-53776607D01*
X44999938Y-53776607D02*
X45095176Y-53871845D01*
X45095176Y-53871845D02*
X45190414Y-53919464D01*
X45190414Y-53919464D02*
X45380890Y-53967083D01*
X45380890Y-53967083D02*
X45523747Y-53967083D01*
X45523747Y-53967083D02*
X45714223Y-53919464D01*
X45714223Y-53919464D02*
X45809461Y-53871845D01*
X45809461Y-53871845D02*
X45904700Y-53776607D01*
X45904700Y-53776607D02*
X45952319Y-53633750D01*
X45952319Y-53633750D02*
X45952319Y-53395655D01*
X45952319Y-54919464D02*
X45952319Y-54348036D01*
X45952319Y-54633750D02*
X44952319Y-54633750D01*
X44952319Y-54633750D02*
X45095176Y-54538512D01*
X45095176Y-54538512D02*
X45190414Y-54443274D01*
X45190414Y-54443274D02*
X45238033Y-54348036D01*
X238833569Y-110069464D02*
X237833569Y-110069464D01*
X237833569Y-110069464D02*
X237833569Y-110307559D01*
X237833569Y-110307559D02*
X237881188Y-110450416D01*
X237881188Y-110450416D02*
X237976426Y-110545654D01*
X237976426Y-110545654D02*
X238071664Y-110593273D01*
X238071664Y-110593273D02*
X238262140Y-110640892D01*
X238262140Y-110640892D02*
X238404997Y-110640892D01*
X238404997Y-110640892D02*
X238595473Y-110593273D01*
X238595473Y-110593273D02*
X238690711Y-110545654D01*
X238690711Y-110545654D02*
X238785950Y-110450416D01*
X238785950Y-110450416D02*
X238833569Y-110307559D01*
X238833569Y-110307559D02*
X238833569Y-110069464D01*
X238166902Y-111498035D02*
X238833569Y-111498035D01*
X237785950Y-111259940D02*
X238500235Y-111021845D01*
X238500235Y-111021845D02*
X238500235Y-111640892D01*
X237833569Y-111926607D02*
X237833569Y-112545654D01*
X237833569Y-112545654D02*
X238214521Y-112212321D01*
X238214521Y-112212321D02*
X238214521Y-112355178D01*
X238214521Y-112355178D02*
X238262140Y-112450416D01*
X238262140Y-112450416D02*
X238309759Y-112498035D01*
X238309759Y-112498035D02*
X238404997Y-112545654D01*
X238404997Y-112545654D02*
X238643092Y-112545654D01*
X238643092Y-112545654D02*
X238738330Y-112498035D01*
X238738330Y-112498035D02*
X238785950Y-112450416D01*
X238785950Y-112450416D02*
X238833569Y-112355178D01*
X238833569Y-112355178D02*
X238833569Y-112069464D01*
X238833569Y-112069464D02*
X238785950Y-111974226D01*
X238785950Y-111974226D02*
X238738330Y-111926607D01*
X260264819Y-71969464D02*
X259264819Y-71969464D01*
X259264819Y-71969464D02*
X259264819Y-72207559D01*
X259264819Y-72207559D02*
X259312438Y-72350416D01*
X259312438Y-72350416D02*
X259407676Y-72445654D01*
X259407676Y-72445654D02*
X259502914Y-72493273D01*
X259502914Y-72493273D02*
X259693390Y-72540892D01*
X259693390Y-72540892D02*
X259836247Y-72540892D01*
X259836247Y-72540892D02*
X260026723Y-72493273D01*
X260026723Y-72493273D02*
X260121961Y-72445654D01*
X260121961Y-72445654D02*
X260217200Y-72350416D01*
X260217200Y-72350416D02*
X260264819Y-72207559D01*
X260264819Y-72207559D02*
X260264819Y-71969464D01*
X259360057Y-72921845D02*
X259312438Y-72969464D01*
X259312438Y-72969464D02*
X259264819Y-73064702D01*
X259264819Y-73064702D02*
X259264819Y-73302797D01*
X259264819Y-73302797D02*
X259312438Y-73398035D01*
X259312438Y-73398035D02*
X259360057Y-73445654D01*
X259360057Y-73445654D02*
X259455295Y-73493273D01*
X259455295Y-73493273D02*
X259550533Y-73493273D01*
X259550533Y-73493273D02*
X259693390Y-73445654D01*
X259693390Y-73445654D02*
X260264819Y-72874226D01*
X260264819Y-72874226D02*
X260264819Y-73493273D01*
X259598152Y-74350416D02*
X260264819Y-74350416D01*
X259217200Y-74112321D02*
X259931485Y-73874226D01*
X259931485Y-73874226D02*
X259931485Y-74493273D01*
X145964819Y-110069464D02*
X144964819Y-110069464D01*
X144964819Y-110069464D02*
X144964819Y-110307559D01*
X144964819Y-110307559D02*
X145012438Y-110450416D01*
X145012438Y-110450416D02*
X145107676Y-110545654D01*
X145107676Y-110545654D02*
X145202914Y-110593273D01*
X145202914Y-110593273D02*
X145393390Y-110640892D01*
X145393390Y-110640892D02*
X145536247Y-110640892D01*
X145536247Y-110640892D02*
X145726723Y-110593273D01*
X145726723Y-110593273D02*
X145821961Y-110545654D01*
X145821961Y-110545654D02*
X145917200Y-110450416D01*
X145917200Y-110450416D02*
X145964819Y-110307559D01*
X145964819Y-110307559D02*
X145964819Y-110069464D01*
X145298152Y-111498035D02*
X145964819Y-111498035D01*
X144917200Y-111259940D02*
X145631485Y-111021845D01*
X145631485Y-111021845D02*
X145631485Y-111640892D01*
X144964819Y-112212321D02*
X144964819Y-112307559D01*
X144964819Y-112307559D02*
X145012438Y-112402797D01*
X145012438Y-112402797D02*
X145060057Y-112450416D01*
X145060057Y-112450416D02*
X145155295Y-112498035D01*
X145155295Y-112498035D02*
X145345771Y-112545654D01*
X145345771Y-112545654D02*
X145583866Y-112545654D01*
X145583866Y-112545654D02*
X145774342Y-112498035D01*
X145774342Y-112498035D02*
X145869580Y-112450416D01*
X145869580Y-112450416D02*
X145917200Y-112402797D01*
X145917200Y-112402797D02*
X145964819Y-112307559D01*
X145964819Y-112307559D02*
X145964819Y-112212321D01*
X145964819Y-112212321D02*
X145917200Y-112117083D01*
X145917200Y-112117083D02*
X145869580Y-112069464D01*
X145869580Y-112069464D02*
X145774342Y-112021845D01*
X145774342Y-112021845D02*
X145583866Y-111974226D01*
X145583866Y-111974226D02*
X145345771Y-111974226D01*
X145345771Y-111974226D02*
X145155295Y-112021845D01*
X145155295Y-112021845D02*
X145060057Y-112069464D01*
X145060057Y-112069464D02*
X145012438Y-112117083D01*
X145012438Y-112117083D02*
X144964819Y-112212321D01*
X165014819Y-91019464D02*
X164014819Y-91019464D01*
X164014819Y-91019464D02*
X164014819Y-91257559D01*
X164014819Y-91257559D02*
X164062438Y-91400416D01*
X164062438Y-91400416D02*
X164157676Y-91495654D01*
X164157676Y-91495654D02*
X164252914Y-91543273D01*
X164252914Y-91543273D02*
X164443390Y-91590892D01*
X164443390Y-91590892D02*
X164586247Y-91590892D01*
X164586247Y-91590892D02*
X164776723Y-91543273D01*
X164776723Y-91543273D02*
X164871961Y-91495654D01*
X164871961Y-91495654D02*
X164967200Y-91400416D01*
X164967200Y-91400416D02*
X165014819Y-91257559D01*
X165014819Y-91257559D02*
X165014819Y-91019464D01*
X164014819Y-91924226D02*
X164014819Y-92543273D01*
X164014819Y-92543273D02*
X164395771Y-92209940D01*
X164395771Y-92209940D02*
X164395771Y-92352797D01*
X164395771Y-92352797D02*
X164443390Y-92448035D01*
X164443390Y-92448035D02*
X164491009Y-92495654D01*
X164491009Y-92495654D02*
X164586247Y-92543273D01*
X164586247Y-92543273D02*
X164824342Y-92543273D01*
X164824342Y-92543273D02*
X164919580Y-92495654D01*
X164919580Y-92495654D02*
X164967200Y-92448035D01*
X164967200Y-92448035D02*
X165014819Y-92352797D01*
X165014819Y-92352797D02*
X165014819Y-92067083D01*
X165014819Y-92067083D02*
X164967200Y-91971845D01*
X164967200Y-91971845D02*
X164919580Y-91924226D01*
X165014819Y-93495654D02*
X165014819Y-92924226D01*
X165014819Y-93209940D02*
X164014819Y-93209940D01*
X164014819Y-93209940D02*
X164157676Y-93114702D01*
X164157676Y-93114702D02*
X164252914Y-93019464D01*
X164252914Y-93019464D02*
X164300533Y-92924226D01*
X217402319Y-71969464D02*
X216402319Y-71969464D01*
X216402319Y-71969464D02*
X216402319Y-72207559D01*
X216402319Y-72207559D02*
X216449938Y-72350416D01*
X216449938Y-72350416D02*
X216545176Y-72445654D01*
X216545176Y-72445654D02*
X216640414Y-72493273D01*
X216640414Y-72493273D02*
X216830890Y-72540892D01*
X216830890Y-72540892D02*
X216973747Y-72540892D01*
X216973747Y-72540892D02*
X217164223Y-72493273D01*
X217164223Y-72493273D02*
X217259461Y-72445654D01*
X217259461Y-72445654D02*
X217354700Y-72350416D01*
X217354700Y-72350416D02*
X217402319Y-72207559D01*
X217402319Y-72207559D02*
X217402319Y-71969464D01*
X216497557Y-72921845D02*
X216449938Y-72969464D01*
X216449938Y-72969464D02*
X216402319Y-73064702D01*
X216402319Y-73064702D02*
X216402319Y-73302797D01*
X216402319Y-73302797D02*
X216449938Y-73398035D01*
X216449938Y-73398035D02*
X216497557Y-73445654D01*
X216497557Y-73445654D02*
X216592795Y-73493273D01*
X216592795Y-73493273D02*
X216688033Y-73493273D01*
X216688033Y-73493273D02*
X216830890Y-73445654D01*
X216830890Y-73445654D02*
X217402319Y-72874226D01*
X217402319Y-72874226D02*
X217402319Y-73493273D01*
X216497557Y-73874226D02*
X216449938Y-73921845D01*
X216449938Y-73921845D02*
X216402319Y-74017083D01*
X216402319Y-74017083D02*
X216402319Y-74255178D01*
X216402319Y-74255178D02*
X216449938Y-74350416D01*
X216449938Y-74350416D02*
X216497557Y-74398035D01*
X216497557Y-74398035D02*
X216592795Y-74445654D01*
X216592795Y-74445654D02*
X216688033Y-74445654D01*
X216688033Y-74445654D02*
X216830890Y-74398035D01*
X216830890Y-74398035D02*
X217402319Y-73826607D01*
X217402319Y-73826607D02*
X217402319Y-74445654D01*
X65002319Y-53395655D02*
X64002319Y-53395655D01*
X64002319Y-53395655D02*
X64002319Y-53633750D01*
X64002319Y-53633750D02*
X64049938Y-53776607D01*
X64049938Y-53776607D02*
X64145176Y-53871845D01*
X64145176Y-53871845D02*
X64240414Y-53919464D01*
X64240414Y-53919464D02*
X64430890Y-53967083D01*
X64430890Y-53967083D02*
X64573747Y-53967083D01*
X64573747Y-53967083D02*
X64764223Y-53919464D01*
X64764223Y-53919464D02*
X64859461Y-53871845D01*
X64859461Y-53871845D02*
X64954700Y-53776607D01*
X64954700Y-53776607D02*
X65002319Y-53633750D01*
X65002319Y-53633750D02*
X65002319Y-53395655D01*
X64097557Y-54348036D02*
X64049938Y-54395655D01*
X64049938Y-54395655D02*
X64002319Y-54490893D01*
X64002319Y-54490893D02*
X64002319Y-54728988D01*
X64002319Y-54728988D02*
X64049938Y-54824226D01*
X64049938Y-54824226D02*
X64097557Y-54871845D01*
X64097557Y-54871845D02*
X64192795Y-54919464D01*
X64192795Y-54919464D02*
X64288033Y-54919464D01*
X64288033Y-54919464D02*
X64430890Y-54871845D01*
X64430890Y-54871845D02*
X65002319Y-54300417D01*
X65002319Y-54300417D02*
X65002319Y-54919464D01*
X88814819Y-91019464D02*
X87814819Y-91019464D01*
X87814819Y-91019464D02*
X87814819Y-91257559D01*
X87814819Y-91257559D02*
X87862438Y-91400416D01*
X87862438Y-91400416D02*
X87957676Y-91495654D01*
X87957676Y-91495654D02*
X88052914Y-91543273D01*
X88052914Y-91543273D02*
X88243390Y-91590892D01*
X88243390Y-91590892D02*
X88386247Y-91590892D01*
X88386247Y-91590892D02*
X88576723Y-91543273D01*
X88576723Y-91543273D02*
X88671961Y-91495654D01*
X88671961Y-91495654D02*
X88767200Y-91400416D01*
X88767200Y-91400416D02*
X88814819Y-91257559D01*
X88814819Y-91257559D02*
X88814819Y-91019464D01*
X87910057Y-91971845D02*
X87862438Y-92019464D01*
X87862438Y-92019464D02*
X87814819Y-92114702D01*
X87814819Y-92114702D02*
X87814819Y-92352797D01*
X87814819Y-92352797D02*
X87862438Y-92448035D01*
X87862438Y-92448035D02*
X87910057Y-92495654D01*
X87910057Y-92495654D02*
X88005295Y-92543273D01*
X88005295Y-92543273D02*
X88100533Y-92543273D01*
X88100533Y-92543273D02*
X88243390Y-92495654D01*
X88243390Y-92495654D02*
X88814819Y-91924226D01*
X88814819Y-91924226D02*
X88814819Y-92543273D01*
X87814819Y-92876607D02*
X87814819Y-93543273D01*
X87814819Y-93543273D02*
X88814819Y-93114702D01*
X84052319Y-53395655D02*
X83052319Y-53395655D01*
X83052319Y-53395655D02*
X83052319Y-53633750D01*
X83052319Y-53633750D02*
X83099938Y-53776607D01*
X83099938Y-53776607D02*
X83195176Y-53871845D01*
X83195176Y-53871845D02*
X83290414Y-53919464D01*
X83290414Y-53919464D02*
X83480890Y-53967083D01*
X83480890Y-53967083D02*
X83623747Y-53967083D01*
X83623747Y-53967083D02*
X83814223Y-53919464D01*
X83814223Y-53919464D02*
X83909461Y-53871845D01*
X83909461Y-53871845D02*
X84004700Y-53776607D01*
X84004700Y-53776607D02*
X84052319Y-53633750D01*
X84052319Y-53633750D02*
X84052319Y-53395655D01*
X83052319Y-54300417D02*
X83052319Y-54919464D01*
X83052319Y-54919464D02*
X83433271Y-54586131D01*
X83433271Y-54586131D02*
X83433271Y-54728988D01*
X83433271Y-54728988D02*
X83480890Y-54824226D01*
X83480890Y-54824226D02*
X83528509Y-54871845D01*
X83528509Y-54871845D02*
X83623747Y-54919464D01*
X83623747Y-54919464D02*
X83861842Y-54919464D01*
X83861842Y-54919464D02*
X83957080Y-54871845D01*
X83957080Y-54871845D02*
X84004700Y-54824226D01*
X84004700Y-54824226D02*
X84052319Y-54728988D01*
X84052319Y-54728988D02*
X84052319Y-54443274D01*
X84052319Y-54443274D02*
X84004700Y-54348036D01*
X84004700Y-54348036D02*
X83957080Y-54300417D01*
X126914819Y-91019464D02*
X125914819Y-91019464D01*
X125914819Y-91019464D02*
X125914819Y-91257559D01*
X125914819Y-91257559D02*
X125962438Y-91400416D01*
X125962438Y-91400416D02*
X126057676Y-91495654D01*
X126057676Y-91495654D02*
X126152914Y-91543273D01*
X126152914Y-91543273D02*
X126343390Y-91590892D01*
X126343390Y-91590892D02*
X126486247Y-91590892D01*
X126486247Y-91590892D02*
X126676723Y-91543273D01*
X126676723Y-91543273D02*
X126771961Y-91495654D01*
X126771961Y-91495654D02*
X126867200Y-91400416D01*
X126867200Y-91400416D02*
X126914819Y-91257559D01*
X126914819Y-91257559D02*
X126914819Y-91019464D01*
X126010057Y-91971845D02*
X125962438Y-92019464D01*
X125962438Y-92019464D02*
X125914819Y-92114702D01*
X125914819Y-92114702D02*
X125914819Y-92352797D01*
X125914819Y-92352797D02*
X125962438Y-92448035D01*
X125962438Y-92448035D02*
X126010057Y-92495654D01*
X126010057Y-92495654D02*
X126105295Y-92543273D01*
X126105295Y-92543273D02*
X126200533Y-92543273D01*
X126200533Y-92543273D02*
X126343390Y-92495654D01*
X126343390Y-92495654D02*
X126914819Y-91924226D01*
X126914819Y-91924226D02*
X126914819Y-92543273D01*
X126914819Y-93019464D02*
X126914819Y-93209940D01*
X126914819Y-93209940D02*
X126867200Y-93305178D01*
X126867200Y-93305178D02*
X126819580Y-93352797D01*
X126819580Y-93352797D02*
X126676723Y-93448035D01*
X126676723Y-93448035D02*
X126486247Y-93495654D01*
X126486247Y-93495654D02*
X126105295Y-93495654D01*
X126105295Y-93495654D02*
X126010057Y-93448035D01*
X126010057Y-93448035D02*
X125962438Y-93400416D01*
X125962438Y-93400416D02*
X125914819Y-93305178D01*
X125914819Y-93305178D02*
X125914819Y-93114702D01*
X125914819Y-93114702D02*
X125962438Y-93019464D01*
X125962438Y-93019464D02*
X126010057Y-92971845D01*
X126010057Y-92971845D02*
X126105295Y-92924226D01*
X126105295Y-92924226D02*
X126343390Y-92924226D01*
X126343390Y-92924226D02*
X126438628Y-92971845D01*
X126438628Y-92971845D02*
X126486247Y-93019464D01*
X126486247Y-93019464D02*
X126533866Y-93114702D01*
X126533866Y-93114702D02*
X126533866Y-93305178D01*
X126533866Y-93305178D02*
X126486247Y-93400416D01*
X126486247Y-93400416D02*
X126438628Y-93448035D01*
X126438628Y-93448035D02*
X126343390Y-93495654D01*
X262646069Y-110069464D02*
X261646069Y-110069464D01*
X261646069Y-110069464D02*
X261646069Y-110307559D01*
X261646069Y-110307559D02*
X261693688Y-110450416D01*
X261693688Y-110450416D02*
X261788926Y-110545654D01*
X261788926Y-110545654D02*
X261884164Y-110593273D01*
X261884164Y-110593273D02*
X262074640Y-110640892D01*
X262074640Y-110640892D02*
X262217497Y-110640892D01*
X262217497Y-110640892D02*
X262407973Y-110593273D01*
X262407973Y-110593273D02*
X262503211Y-110545654D01*
X262503211Y-110545654D02*
X262598450Y-110450416D01*
X262598450Y-110450416D02*
X262646069Y-110307559D01*
X262646069Y-110307559D02*
X262646069Y-110069464D01*
X261979402Y-111498035D02*
X262646069Y-111498035D01*
X261598450Y-111259940D02*
X262312735Y-111021845D01*
X262312735Y-111021845D02*
X262312735Y-111640892D01*
X261979402Y-112450416D02*
X262646069Y-112450416D01*
X261598450Y-112212321D02*
X262312735Y-111974226D01*
X262312735Y-111974226D02*
X262312735Y-112593273D01*
X260264819Y-52919464D02*
X259264819Y-52919464D01*
X259264819Y-52919464D02*
X259264819Y-53157559D01*
X259264819Y-53157559D02*
X259312438Y-53300416D01*
X259312438Y-53300416D02*
X259407676Y-53395654D01*
X259407676Y-53395654D02*
X259502914Y-53443273D01*
X259502914Y-53443273D02*
X259693390Y-53490892D01*
X259693390Y-53490892D02*
X259836247Y-53490892D01*
X259836247Y-53490892D02*
X260026723Y-53443273D01*
X260026723Y-53443273D02*
X260121961Y-53395654D01*
X260121961Y-53395654D02*
X260217200Y-53300416D01*
X260217200Y-53300416D02*
X260264819Y-53157559D01*
X260264819Y-53157559D02*
X260264819Y-52919464D01*
X260264819Y-54443273D02*
X260264819Y-53871845D01*
X260264819Y-54157559D02*
X259264819Y-54157559D01*
X259264819Y-54157559D02*
X259407676Y-54062321D01*
X259407676Y-54062321D02*
X259502914Y-53967083D01*
X259502914Y-53967083D02*
X259550533Y-53871845D01*
X259360057Y-54824226D02*
X259312438Y-54871845D01*
X259312438Y-54871845D02*
X259264819Y-54967083D01*
X259264819Y-54967083D02*
X259264819Y-55205178D01*
X259264819Y-55205178D02*
X259312438Y-55300416D01*
X259312438Y-55300416D02*
X259360057Y-55348035D01*
X259360057Y-55348035D02*
X259455295Y-55395654D01*
X259455295Y-55395654D02*
X259550533Y-55395654D01*
X259550533Y-55395654D02*
X259693390Y-55348035D01*
X259693390Y-55348035D02*
X260264819Y-54776607D01*
X260264819Y-54776607D02*
X260264819Y-55395654D01*
X65002319Y-71969464D02*
X64002319Y-71969464D01*
X64002319Y-71969464D02*
X64002319Y-72207559D01*
X64002319Y-72207559D02*
X64049938Y-72350416D01*
X64049938Y-72350416D02*
X64145176Y-72445654D01*
X64145176Y-72445654D02*
X64240414Y-72493273D01*
X64240414Y-72493273D02*
X64430890Y-72540892D01*
X64430890Y-72540892D02*
X64573747Y-72540892D01*
X64573747Y-72540892D02*
X64764223Y-72493273D01*
X64764223Y-72493273D02*
X64859461Y-72445654D01*
X64859461Y-72445654D02*
X64954700Y-72350416D01*
X64954700Y-72350416D02*
X65002319Y-72207559D01*
X65002319Y-72207559D02*
X65002319Y-71969464D01*
X65002319Y-73493273D02*
X65002319Y-72921845D01*
X65002319Y-73207559D02*
X64002319Y-73207559D01*
X64002319Y-73207559D02*
X64145176Y-73112321D01*
X64145176Y-73112321D02*
X64240414Y-73017083D01*
X64240414Y-73017083D02*
X64288033Y-72921845D01*
X64335652Y-74350416D02*
X65002319Y-74350416D01*
X63954700Y-74112321D02*
X64668985Y-73874226D01*
X64668985Y-73874226D02*
X64668985Y-74493273D01*
X145964819Y-91019464D02*
X144964819Y-91019464D01*
X144964819Y-91019464D02*
X144964819Y-91257559D01*
X144964819Y-91257559D02*
X145012438Y-91400416D01*
X145012438Y-91400416D02*
X145107676Y-91495654D01*
X145107676Y-91495654D02*
X145202914Y-91543273D01*
X145202914Y-91543273D02*
X145393390Y-91590892D01*
X145393390Y-91590892D02*
X145536247Y-91590892D01*
X145536247Y-91590892D02*
X145726723Y-91543273D01*
X145726723Y-91543273D02*
X145821961Y-91495654D01*
X145821961Y-91495654D02*
X145917200Y-91400416D01*
X145917200Y-91400416D02*
X145964819Y-91257559D01*
X145964819Y-91257559D02*
X145964819Y-91019464D01*
X144964819Y-91924226D02*
X144964819Y-92543273D01*
X144964819Y-92543273D02*
X145345771Y-92209940D01*
X145345771Y-92209940D02*
X145345771Y-92352797D01*
X145345771Y-92352797D02*
X145393390Y-92448035D01*
X145393390Y-92448035D02*
X145441009Y-92495654D01*
X145441009Y-92495654D02*
X145536247Y-92543273D01*
X145536247Y-92543273D02*
X145774342Y-92543273D01*
X145774342Y-92543273D02*
X145869580Y-92495654D01*
X145869580Y-92495654D02*
X145917200Y-92448035D01*
X145917200Y-92448035D02*
X145964819Y-92352797D01*
X145964819Y-92352797D02*
X145964819Y-92067083D01*
X145964819Y-92067083D02*
X145917200Y-91971845D01*
X145917200Y-91971845D02*
X145869580Y-91924226D01*
X144964819Y-93162321D02*
X144964819Y-93257559D01*
X144964819Y-93257559D02*
X145012438Y-93352797D01*
X145012438Y-93352797D02*
X145060057Y-93400416D01*
X145060057Y-93400416D02*
X145155295Y-93448035D01*
X145155295Y-93448035D02*
X145345771Y-93495654D01*
X145345771Y-93495654D02*
X145583866Y-93495654D01*
X145583866Y-93495654D02*
X145774342Y-93448035D01*
X145774342Y-93448035D02*
X145869580Y-93400416D01*
X145869580Y-93400416D02*
X145917200Y-93352797D01*
X145917200Y-93352797D02*
X145964819Y-93257559D01*
X145964819Y-93257559D02*
X145964819Y-93162321D01*
X145964819Y-93162321D02*
X145917200Y-93067083D01*
X145917200Y-93067083D02*
X145869580Y-93019464D01*
X145869580Y-93019464D02*
X145774342Y-92971845D01*
X145774342Y-92971845D02*
X145583866Y-92924226D01*
X145583866Y-92924226D02*
X145345771Y-92924226D01*
X145345771Y-92924226D02*
X145155295Y-92971845D01*
X145155295Y-92971845D02*
X145060057Y-93019464D01*
X145060057Y-93019464D02*
X145012438Y-93067083D01*
X145012438Y-93067083D02*
X144964819Y-93162321D01*
X179302319Y-53395655D02*
X178302319Y-53395655D01*
X178302319Y-53395655D02*
X178302319Y-53633750D01*
X178302319Y-53633750D02*
X178349938Y-53776607D01*
X178349938Y-53776607D02*
X178445176Y-53871845D01*
X178445176Y-53871845D02*
X178540414Y-53919464D01*
X178540414Y-53919464D02*
X178730890Y-53967083D01*
X178730890Y-53967083D02*
X178873747Y-53967083D01*
X178873747Y-53967083D02*
X179064223Y-53919464D01*
X179064223Y-53919464D02*
X179159461Y-53871845D01*
X179159461Y-53871845D02*
X179254700Y-53776607D01*
X179254700Y-53776607D02*
X179302319Y-53633750D01*
X179302319Y-53633750D02*
X179302319Y-53395655D01*
X178730890Y-54538512D02*
X178683271Y-54443274D01*
X178683271Y-54443274D02*
X178635652Y-54395655D01*
X178635652Y-54395655D02*
X178540414Y-54348036D01*
X178540414Y-54348036D02*
X178492795Y-54348036D01*
X178492795Y-54348036D02*
X178397557Y-54395655D01*
X178397557Y-54395655D02*
X178349938Y-54443274D01*
X178349938Y-54443274D02*
X178302319Y-54538512D01*
X178302319Y-54538512D02*
X178302319Y-54728988D01*
X178302319Y-54728988D02*
X178349938Y-54824226D01*
X178349938Y-54824226D02*
X178397557Y-54871845D01*
X178397557Y-54871845D02*
X178492795Y-54919464D01*
X178492795Y-54919464D02*
X178540414Y-54919464D01*
X178540414Y-54919464D02*
X178635652Y-54871845D01*
X178635652Y-54871845D02*
X178683271Y-54824226D01*
X178683271Y-54824226D02*
X178730890Y-54728988D01*
X178730890Y-54728988D02*
X178730890Y-54538512D01*
X178730890Y-54538512D02*
X178778509Y-54443274D01*
X178778509Y-54443274D02*
X178826128Y-54395655D01*
X178826128Y-54395655D02*
X178921366Y-54348036D01*
X178921366Y-54348036D02*
X179111842Y-54348036D01*
X179111842Y-54348036D02*
X179207080Y-54395655D01*
X179207080Y-54395655D02*
X179254700Y-54443274D01*
X179254700Y-54443274D02*
X179302319Y-54538512D01*
X179302319Y-54538512D02*
X179302319Y-54728988D01*
X179302319Y-54728988D02*
X179254700Y-54824226D01*
X179254700Y-54824226D02*
X179207080Y-54871845D01*
X179207080Y-54871845D02*
X179111842Y-54919464D01*
X179111842Y-54919464D02*
X178921366Y-54919464D01*
X178921366Y-54919464D02*
X178826128Y-54871845D01*
X178826128Y-54871845D02*
X178778509Y-54824226D01*
X178778509Y-54824226D02*
X178730890Y-54728988D01*
X188827319Y-110069464D02*
X187827319Y-110069464D01*
X187827319Y-110069464D02*
X187827319Y-110307559D01*
X187827319Y-110307559D02*
X187874938Y-110450416D01*
X187874938Y-110450416D02*
X187970176Y-110545654D01*
X187970176Y-110545654D02*
X188065414Y-110593273D01*
X188065414Y-110593273D02*
X188255890Y-110640892D01*
X188255890Y-110640892D02*
X188398747Y-110640892D01*
X188398747Y-110640892D02*
X188589223Y-110593273D01*
X188589223Y-110593273D02*
X188684461Y-110545654D01*
X188684461Y-110545654D02*
X188779700Y-110450416D01*
X188779700Y-110450416D02*
X188827319Y-110307559D01*
X188827319Y-110307559D02*
X188827319Y-110069464D01*
X188160652Y-111498035D02*
X188827319Y-111498035D01*
X187779700Y-111259940D02*
X188493985Y-111021845D01*
X188493985Y-111021845D02*
X188493985Y-111640892D01*
X188827319Y-112545654D02*
X188827319Y-111974226D01*
X188827319Y-112259940D02*
X187827319Y-112259940D01*
X187827319Y-112259940D02*
X187970176Y-112164702D01*
X187970176Y-112164702D02*
X188065414Y-112069464D01*
X188065414Y-112069464D02*
X188113033Y-111974226D01*
X50714819Y-110069464D02*
X49714819Y-110069464D01*
X49714819Y-110069464D02*
X49714819Y-110307559D01*
X49714819Y-110307559D02*
X49762438Y-110450416D01*
X49762438Y-110450416D02*
X49857676Y-110545654D01*
X49857676Y-110545654D02*
X49952914Y-110593273D01*
X49952914Y-110593273D02*
X50143390Y-110640892D01*
X50143390Y-110640892D02*
X50286247Y-110640892D01*
X50286247Y-110640892D02*
X50476723Y-110593273D01*
X50476723Y-110593273D02*
X50571961Y-110545654D01*
X50571961Y-110545654D02*
X50667200Y-110450416D01*
X50667200Y-110450416D02*
X50714819Y-110307559D01*
X50714819Y-110307559D02*
X50714819Y-110069464D01*
X49714819Y-110974226D02*
X49714819Y-111593273D01*
X49714819Y-111593273D02*
X50095771Y-111259940D01*
X50095771Y-111259940D02*
X50095771Y-111402797D01*
X50095771Y-111402797D02*
X50143390Y-111498035D01*
X50143390Y-111498035D02*
X50191009Y-111545654D01*
X50191009Y-111545654D02*
X50286247Y-111593273D01*
X50286247Y-111593273D02*
X50524342Y-111593273D01*
X50524342Y-111593273D02*
X50619580Y-111545654D01*
X50619580Y-111545654D02*
X50667200Y-111498035D01*
X50667200Y-111498035D02*
X50714819Y-111402797D01*
X50714819Y-111402797D02*
X50714819Y-111117083D01*
X50714819Y-111117083D02*
X50667200Y-111021845D01*
X50667200Y-111021845D02*
X50619580Y-110974226D01*
X49714819Y-111926607D02*
X49714819Y-112593273D01*
X49714819Y-112593273D02*
X50714819Y-112164702D01*
X179302319Y-71969464D02*
X178302319Y-71969464D01*
X178302319Y-71969464D02*
X178302319Y-72207559D01*
X178302319Y-72207559D02*
X178349938Y-72350416D01*
X178349938Y-72350416D02*
X178445176Y-72445654D01*
X178445176Y-72445654D02*
X178540414Y-72493273D01*
X178540414Y-72493273D02*
X178730890Y-72540892D01*
X178730890Y-72540892D02*
X178873747Y-72540892D01*
X178873747Y-72540892D02*
X179064223Y-72493273D01*
X179064223Y-72493273D02*
X179159461Y-72445654D01*
X179159461Y-72445654D02*
X179254700Y-72350416D01*
X179254700Y-72350416D02*
X179302319Y-72207559D01*
X179302319Y-72207559D02*
X179302319Y-71969464D01*
X178397557Y-72921845D02*
X178349938Y-72969464D01*
X178349938Y-72969464D02*
X178302319Y-73064702D01*
X178302319Y-73064702D02*
X178302319Y-73302797D01*
X178302319Y-73302797D02*
X178349938Y-73398035D01*
X178349938Y-73398035D02*
X178397557Y-73445654D01*
X178397557Y-73445654D02*
X178492795Y-73493273D01*
X178492795Y-73493273D02*
X178588033Y-73493273D01*
X178588033Y-73493273D02*
X178730890Y-73445654D01*
X178730890Y-73445654D02*
X179302319Y-72874226D01*
X179302319Y-72874226D02*
X179302319Y-73493273D01*
X178302319Y-74112321D02*
X178302319Y-74207559D01*
X178302319Y-74207559D02*
X178349938Y-74302797D01*
X178349938Y-74302797D02*
X178397557Y-74350416D01*
X178397557Y-74350416D02*
X178492795Y-74398035D01*
X178492795Y-74398035D02*
X178683271Y-74445654D01*
X178683271Y-74445654D02*
X178921366Y-74445654D01*
X178921366Y-74445654D02*
X179111842Y-74398035D01*
X179111842Y-74398035D02*
X179207080Y-74350416D01*
X179207080Y-74350416D02*
X179254700Y-74302797D01*
X179254700Y-74302797D02*
X179302319Y-74207559D01*
X179302319Y-74207559D02*
X179302319Y-74112321D01*
X179302319Y-74112321D02*
X179254700Y-74017083D01*
X179254700Y-74017083D02*
X179207080Y-73969464D01*
X179207080Y-73969464D02*
X179111842Y-73921845D01*
X179111842Y-73921845D02*
X178921366Y-73874226D01*
X178921366Y-73874226D02*
X178683271Y-73874226D01*
X178683271Y-73874226D02*
X178492795Y-73921845D01*
X178492795Y-73921845D02*
X178397557Y-73969464D01*
X178397557Y-73969464D02*
X178349938Y-74017083D01*
X178349938Y-74017083D02*
X178302319Y-74112321D01*
X241214819Y-91019464D02*
X240214819Y-91019464D01*
X240214819Y-91019464D02*
X240214819Y-91257559D01*
X240214819Y-91257559D02*
X240262438Y-91400416D01*
X240262438Y-91400416D02*
X240357676Y-91495654D01*
X240357676Y-91495654D02*
X240452914Y-91543273D01*
X240452914Y-91543273D02*
X240643390Y-91590892D01*
X240643390Y-91590892D02*
X240786247Y-91590892D01*
X240786247Y-91590892D02*
X240976723Y-91543273D01*
X240976723Y-91543273D02*
X241071961Y-91495654D01*
X241071961Y-91495654D02*
X241167200Y-91400416D01*
X241167200Y-91400416D02*
X241214819Y-91257559D01*
X241214819Y-91257559D02*
X241214819Y-91019464D01*
X240214819Y-91924226D02*
X240214819Y-92543273D01*
X240214819Y-92543273D02*
X240595771Y-92209940D01*
X240595771Y-92209940D02*
X240595771Y-92352797D01*
X240595771Y-92352797D02*
X240643390Y-92448035D01*
X240643390Y-92448035D02*
X240691009Y-92495654D01*
X240691009Y-92495654D02*
X240786247Y-92543273D01*
X240786247Y-92543273D02*
X241024342Y-92543273D01*
X241024342Y-92543273D02*
X241119580Y-92495654D01*
X241119580Y-92495654D02*
X241167200Y-92448035D01*
X241167200Y-92448035D02*
X241214819Y-92352797D01*
X241214819Y-92352797D02*
X241214819Y-92067083D01*
X241214819Y-92067083D02*
X241167200Y-91971845D01*
X241167200Y-91971845D02*
X241119580Y-91924226D01*
X240214819Y-93448035D02*
X240214819Y-92971845D01*
X240214819Y-92971845D02*
X240691009Y-92924226D01*
X240691009Y-92924226D02*
X240643390Y-92971845D01*
X240643390Y-92971845D02*
X240595771Y-93067083D01*
X240595771Y-93067083D02*
X240595771Y-93305178D01*
X240595771Y-93305178D02*
X240643390Y-93400416D01*
X240643390Y-93400416D02*
X240691009Y-93448035D01*
X240691009Y-93448035D02*
X240786247Y-93495654D01*
X240786247Y-93495654D02*
X241024342Y-93495654D01*
X241024342Y-93495654D02*
X241119580Y-93448035D01*
X241119580Y-93448035D02*
X241167200Y-93400416D01*
X241167200Y-93400416D02*
X241214819Y-93305178D01*
X241214819Y-93305178D02*
X241214819Y-93067083D01*
X241214819Y-93067083D02*
X241167200Y-92971845D01*
X241167200Y-92971845D02*
X241119580Y-92924226D01*
X242183569Y-52578095D02*
X242993092Y-52578095D01*
X242993092Y-52578095D02*
X243088330Y-52625714D01*
X243088330Y-52625714D02*
X243135950Y-52673333D01*
X243135950Y-52673333D02*
X243183569Y-52768571D01*
X243183569Y-52768571D02*
X243183569Y-52959047D01*
X243183569Y-52959047D02*
X243135950Y-53054285D01*
X243135950Y-53054285D02*
X243088330Y-53101904D01*
X243088330Y-53101904D02*
X242993092Y-53149523D01*
X242993092Y-53149523D02*
X242183569Y-53149523D01*
X243183569Y-54149523D02*
X243183569Y-53578095D01*
X243183569Y-53863809D02*
X242183569Y-53863809D01*
X242183569Y-53863809D02*
X242326426Y-53768571D01*
X242326426Y-53768571D02*
X242421664Y-53673333D01*
X242421664Y-53673333D02*
X242469283Y-53578095D01*
X266980244Y-65453372D02*
X267007181Y-65372560D01*
X267007181Y-65372560D02*
X267087993Y-65291748D01*
X267087993Y-65291748D02*
X267195743Y-65237873D01*
X267195743Y-65237873D02*
X267303492Y-65237873D01*
X267303492Y-65237873D02*
X267384305Y-65264810D01*
X267384305Y-65264810D02*
X267518992Y-65345623D01*
X267518992Y-65345623D02*
X267599804Y-65426435D01*
X267599804Y-65426435D02*
X267680616Y-65561122D01*
X267680616Y-65561122D02*
X267707553Y-65641934D01*
X267707553Y-65641934D02*
X267707553Y-65749684D01*
X267707553Y-65749684D02*
X267653679Y-65857433D01*
X267653679Y-65857433D02*
X267599804Y-65911308D01*
X267599804Y-65911308D02*
X267492054Y-65965183D01*
X267492054Y-65965183D02*
X267438179Y-65965183D01*
X267438179Y-65965183D02*
X267249618Y-65776621D01*
X267249618Y-65776621D02*
X267357367Y-65668871D01*
X267249618Y-66261494D02*
X266683932Y-65695809D01*
X266683932Y-65695809D02*
X266468433Y-65911308D01*
X266468433Y-65911308D02*
X266441496Y-65992120D01*
X266441496Y-65992120D02*
X266441496Y-66045995D01*
X266441496Y-66045995D02*
X266468433Y-66126807D01*
X266468433Y-66126807D02*
X266549245Y-66207619D01*
X266549245Y-66207619D02*
X266630057Y-66234557D01*
X266630057Y-66234557D02*
X266683932Y-66234557D01*
X266683932Y-66234557D02*
X266764744Y-66207619D01*
X266764744Y-66207619D02*
X266980244Y-65992120D01*
X266010497Y-66369244D02*
X265956622Y-66423119D01*
X265956622Y-66423119D02*
X265929685Y-66503931D01*
X265929685Y-66503931D02*
X265929685Y-66557806D01*
X265929685Y-66557806D02*
X265956622Y-66638618D01*
X265956622Y-66638618D02*
X266037435Y-66773305D01*
X266037435Y-66773305D02*
X266172122Y-66907992D01*
X266172122Y-66907992D02*
X266306809Y-66988804D01*
X266306809Y-66988804D02*
X266387621Y-67015741D01*
X266387621Y-67015741D02*
X266441496Y-67015741D01*
X266441496Y-67015741D02*
X266522308Y-66988804D01*
X266522308Y-66988804D02*
X266576183Y-66934929D01*
X266576183Y-66934929D02*
X266603120Y-66854117D01*
X266603120Y-66854117D02*
X266603120Y-66800242D01*
X266603120Y-66800242D02*
X266576183Y-66719430D01*
X266576183Y-66719430D02*
X266495370Y-66584743D01*
X266495370Y-66584743D02*
X266360683Y-66450056D01*
X266360683Y-66450056D02*
X266225996Y-66369244D01*
X266225996Y-66369244D02*
X266145184Y-66342306D01*
X266145184Y-66342306D02*
X266091309Y-66342306D01*
X266091309Y-66342306D02*
X266010497Y-66369244D01*
X254280244Y-65453372D02*
X254307181Y-65372560D01*
X254307181Y-65372560D02*
X254387993Y-65291748D01*
X254387993Y-65291748D02*
X254495743Y-65237873D01*
X254495743Y-65237873D02*
X254603492Y-65237873D01*
X254603492Y-65237873D02*
X254684305Y-65264810D01*
X254684305Y-65264810D02*
X254818992Y-65345623D01*
X254818992Y-65345623D02*
X254899804Y-65426435D01*
X254899804Y-65426435D02*
X254980616Y-65561122D01*
X254980616Y-65561122D02*
X255007553Y-65641934D01*
X255007553Y-65641934D02*
X255007553Y-65749684D01*
X255007553Y-65749684D02*
X254953679Y-65857433D01*
X254953679Y-65857433D02*
X254899804Y-65911308D01*
X254899804Y-65911308D02*
X254792054Y-65965183D01*
X254792054Y-65965183D02*
X254738179Y-65965183D01*
X254738179Y-65965183D02*
X254549618Y-65776621D01*
X254549618Y-65776621D02*
X254657367Y-65668871D01*
X254549618Y-66261494D02*
X253983932Y-65695809D01*
X253983932Y-65695809D02*
X253768433Y-65911308D01*
X253768433Y-65911308D02*
X253741496Y-65992120D01*
X253741496Y-65992120D02*
X253741496Y-66045995D01*
X253741496Y-66045995D02*
X253768433Y-66126807D01*
X253768433Y-66126807D02*
X253849245Y-66207619D01*
X253849245Y-66207619D02*
X253930057Y-66234557D01*
X253930057Y-66234557D02*
X253983932Y-66234557D01*
X253983932Y-66234557D02*
X254064744Y-66207619D01*
X254064744Y-66207619D02*
X254280244Y-65992120D01*
X253364372Y-66692493D02*
X253741496Y-67069616D01*
X253283560Y-66342306D02*
X253822308Y-66611680D01*
X253822308Y-66611680D02*
X253472122Y-66961867D01*
X226609618Y-65437998D02*
X226636555Y-65357185D01*
X226636555Y-65357185D02*
X226717368Y-65276373D01*
X226717368Y-65276373D02*
X226825117Y-65222498D01*
X226825117Y-65222498D02*
X226932867Y-65222498D01*
X226932867Y-65222498D02*
X227013679Y-65249436D01*
X227013679Y-65249436D02*
X227148366Y-65330248D01*
X227148366Y-65330248D02*
X227229178Y-65411060D01*
X227229178Y-65411060D02*
X227309991Y-65545747D01*
X227309991Y-65545747D02*
X227336928Y-65626560D01*
X227336928Y-65626560D02*
X227336928Y-65734309D01*
X227336928Y-65734309D02*
X227283053Y-65842059D01*
X227283053Y-65842059D02*
X227229178Y-65895934D01*
X227229178Y-65895934D02*
X227121429Y-65949808D01*
X227121429Y-65949808D02*
X227067554Y-65949808D01*
X227067554Y-65949808D02*
X226878992Y-65761247D01*
X226878992Y-65761247D02*
X226986742Y-65653497D01*
X226878992Y-66246120D02*
X226313307Y-65680434D01*
X226313307Y-65680434D02*
X226097807Y-65895934D01*
X226097807Y-65895934D02*
X226070870Y-65976746D01*
X226070870Y-65976746D02*
X226070870Y-66030621D01*
X226070870Y-66030621D02*
X226097807Y-66111433D01*
X226097807Y-66111433D02*
X226178620Y-66192245D01*
X226178620Y-66192245D02*
X226259432Y-66219182D01*
X226259432Y-66219182D02*
X226313307Y-66219182D01*
X226313307Y-66219182D02*
X226394119Y-66192245D01*
X226394119Y-66192245D02*
X226609618Y-65976746D01*
X226016995Y-67108117D02*
X226340244Y-66784868D01*
X226178620Y-66946492D02*
X225612934Y-66380807D01*
X225612934Y-66380807D02*
X225747621Y-66407744D01*
X225747621Y-66407744D02*
X225855371Y-66407744D01*
X225855371Y-66407744D02*
X225936183Y-66380807D01*
X225262748Y-66730993D02*
X224912562Y-67081179D01*
X224912562Y-67081179D02*
X225316623Y-67108117D01*
X225316623Y-67108117D02*
X225235810Y-67188929D01*
X225235810Y-67188929D02*
X225208873Y-67269741D01*
X225208873Y-67269741D02*
X225208873Y-67323616D01*
X225208873Y-67323616D02*
X225235810Y-67404428D01*
X225235810Y-67404428D02*
X225370497Y-67539115D01*
X225370497Y-67539115D02*
X225451310Y-67566053D01*
X225451310Y-67566053D02*
X225505184Y-67566053D01*
X225505184Y-67566053D02*
X225585997Y-67539115D01*
X225585997Y-67539115D02*
X225747621Y-67377491D01*
X225747621Y-67377491D02*
X225774558Y-67296679D01*
X225774558Y-67296679D02*
X225774558Y-67242804D01*
X251740244Y-65453372D02*
X251767181Y-65372560D01*
X251767181Y-65372560D02*
X251847993Y-65291748D01*
X251847993Y-65291748D02*
X251955743Y-65237873D01*
X251955743Y-65237873D02*
X252063492Y-65237873D01*
X252063492Y-65237873D02*
X252144305Y-65264810D01*
X252144305Y-65264810D02*
X252278992Y-65345623D01*
X252278992Y-65345623D02*
X252359804Y-65426435D01*
X252359804Y-65426435D02*
X252440616Y-65561122D01*
X252440616Y-65561122D02*
X252467553Y-65641934D01*
X252467553Y-65641934D02*
X252467553Y-65749684D01*
X252467553Y-65749684D02*
X252413679Y-65857433D01*
X252413679Y-65857433D02*
X252359804Y-65911308D01*
X252359804Y-65911308D02*
X252252054Y-65965183D01*
X252252054Y-65965183D02*
X252198179Y-65965183D01*
X252198179Y-65965183D02*
X252009618Y-65776621D01*
X252009618Y-65776621D02*
X252117367Y-65668871D01*
X252009618Y-66261494D02*
X251443932Y-65695809D01*
X251443932Y-65695809D02*
X251228433Y-65911308D01*
X251228433Y-65911308D02*
X251201496Y-65992120D01*
X251201496Y-65992120D02*
X251201496Y-66045995D01*
X251201496Y-66045995D02*
X251228433Y-66126807D01*
X251228433Y-66126807D02*
X251309245Y-66207619D01*
X251309245Y-66207619D02*
X251390057Y-66234557D01*
X251390057Y-66234557D02*
X251443932Y-66234557D01*
X251443932Y-66234557D02*
X251524744Y-66207619D01*
X251524744Y-66207619D02*
X251740244Y-65992120D01*
X250608873Y-66530868D02*
X250878247Y-66261494D01*
X250878247Y-66261494D02*
X251174558Y-66503931D01*
X251174558Y-66503931D02*
X251120683Y-66503931D01*
X251120683Y-66503931D02*
X251039871Y-66530868D01*
X251039871Y-66530868D02*
X250905184Y-66665555D01*
X250905184Y-66665555D02*
X250878247Y-66746367D01*
X250878247Y-66746367D02*
X250878247Y-66800242D01*
X250878247Y-66800242D02*
X250905184Y-66881054D01*
X250905184Y-66881054D02*
X251039871Y-67015741D01*
X251039871Y-67015741D02*
X251120683Y-67042679D01*
X251120683Y-67042679D02*
X251174558Y-67042679D01*
X251174558Y-67042679D02*
X251255370Y-67015741D01*
X251255370Y-67015741D02*
X251390057Y-66881054D01*
X251390057Y-66881054D02*
X251416995Y-66800242D01*
X251416995Y-66800242D02*
X251416995Y-66746367D01*
X234229618Y-65437998D02*
X234256555Y-65357185D01*
X234256555Y-65357185D02*
X234337368Y-65276373D01*
X234337368Y-65276373D02*
X234445117Y-65222498D01*
X234445117Y-65222498D02*
X234552867Y-65222498D01*
X234552867Y-65222498D02*
X234633679Y-65249436D01*
X234633679Y-65249436D02*
X234768366Y-65330248D01*
X234768366Y-65330248D02*
X234849178Y-65411060D01*
X234849178Y-65411060D02*
X234929991Y-65545747D01*
X234929991Y-65545747D02*
X234956928Y-65626560D01*
X234956928Y-65626560D02*
X234956928Y-65734309D01*
X234956928Y-65734309D02*
X234903053Y-65842059D01*
X234903053Y-65842059D02*
X234849178Y-65895934D01*
X234849178Y-65895934D02*
X234741429Y-65949808D01*
X234741429Y-65949808D02*
X234687554Y-65949808D01*
X234687554Y-65949808D02*
X234498992Y-65761247D01*
X234498992Y-65761247D02*
X234606742Y-65653497D01*
X234498992Y-66246120D02*
X233933307Y-65680434D01*
X233933307Y-65680434D02*
X233717807Y-65895934D01*
X233717807Y-65895934D02*
X233690870Y-65976746D01*
X233690870Y-65976746D02*
X233690870Y-66030621D01*
X233690870Y-66030621D02*
X233717807Y-66111433D01*
X233717807Y-66111433D02*
X233798620Y-66192245D01*
X233798620Y-66192245D02*
X233879432Y-66219182D01*
X233879432Y-66219182D02*
X233933307Y-66219182D01*
X233933307Y-66219182D02*
X234014119Y-66192245D01*
X234014119Y-66192245D02*
X234229618Y-65976746D01*
X233636995Y-67108117D02*
X233960244Y-66784868D01*
X233798620Y-66946492D02*
X233232934Y-66380807D01*
X233232934Y-66380807D02*
X233367621Y-66407744D01*
X233367621Y-66407744D02*
X233475371Y-66407744D01*
X233475371Y-66407744D02*
X233556183Y-66380807D01*
X232721123Y-66892618D02*
X232667249Y-66946492D01*
X232667249Y-66946492D02*
X232640311Y-67027305D01*
X232640311Y-67027305D02*
X232640311Y-67081179D01*
X232640311Y-67081179D02*
X232667249Y-67161992D01*
X232667249Y-67161992D02*
X232748061Y-67296679D01*
X232748061Y-67296679D02*
X232882748Y-67431366D01*
X232882748Y-67431366D02*
X233017435Y-67512178D01*
X233017435Y-67512178D02*
X233098247Y-67539115D01*
X233098247Y-67539115D02*
X233152122Y-67539115D01*
X233152122Y-67539115D02*
X233232934Y-67512178D01*
X233232934Y-67512178D02*
X233286809Y-67458303D01*
X233286809Y-67458303D02*
X233313746Y-67377491D01*
X233313746Y-67377491D02*
X233313746Y-67323616D01*
X233313746Y-67323616D02*
X233286809Y-67242804D01*
X233286809Y-67242804D02*
X233205997Y-67108117D01*
X233205997Y-67108117D02*
X233071310Y-66973430D01*
X233071310Y-66973430D02*
X232936623Y-66892618D01*
X232936623Y-66892618D02*
X232855810Y-66865680D01*
X232855810Y-66865680D02*
X232801936Y-66865680D01*
X232801936Y-66865680D02*
X232721123Y-66892618D01*
X259360244Y-65553372D02*
X259387181Y-65472560D01*
X259387181Y-65472560D02*
X259467993Y-65391748D01*
X259467993Y-65391748D02*
X259575743Y-65337873D01*
X259575743Y-65337873D02*
X259683492Y-65337873D01*
X259683492Y-65337873D02*
X259764305Y-65364810D01*
X259764305Y-65364810D02*
X259898992Y-65445623D01*
X259898992Y-65445623D02*
X259979804Y-65526435D01*
X259979804Y-65526435D02*
X260060616Y-65661122D01*
X260060616Y-65661122D02*
X260087553Y-65741934D01*
X260087553Y-65741934D02*
X260087553Y-65849684D01*
X260087553Y-65849684D02*
X260033679Y-65957433D01*
X260033679Y-65957433D02*
X259979804Y-66011308D01*
X259979804Y-66011308D02*
X259872054Y-66065183D01*
X259872054Y-66065183D02*
X259818179Y-66065183D01*
X259818179Y-66065183D02*
X259629618Y-65876621D01*
X259629618Y-65876621D02*
X259737367Y-65768871D01*
X259629618Y-66361494D02*
X259063932Y-65795809D01*
X259063932Y-65795809D02*
X258848433Y-66011308D01*
X258848433Y-66011308D02*
X258821496Y-66092120D01*
X258821496Y-66092120D02*
X258821496Y-66145995D01*
X258821496Y-66145995D02*
X258848433Y-66226807D01*
X258848433Y-66226807D02*
X258929245Y-66307619D01*
X258929245Y-66307619D02*
X259010057Y-66334557D01*
X259010057Y-66334557D02*
X259063932Y-66334557D01*
X259063932Y-66334557D02*
X259144744Y-66307619D01*
X259144744Y-66307619D02*
X259360244Y-66092120D01*
X258579059Y-66388432D02*
X258525184Y-66388432D01*
X258525184Y-66388432D02*
X258444372Y-66415369D01*
X258444372Y-66415369D02*
X258309685Y-66550056D01*
X258309685Y-66550056D02*
X258282748Y-66630868D01*
X258282748Y-66630868D02*
X258282748Y-66684743D01*
X258282748Y-66684743D02*
X258309685Y-66765555D01*
X258309685Y-66765555D02*
X258363560Y-66819430D01*
X258363560Y-66819430D02*
X258471309Y-66873305D01*
X258471309Y-66873305D02*
X259117807Y-66873305D01*
X259117807Y-66873305D02*
X258767621Y-67223491D01*
X221529618Y-65483998D02*
X221556555Y-65403185D01*
X221556555Y-65403185D02*
X221637368Y-65322373D01*
X221637368Y-65322373D02*
X221745117Y-65268498D01*
X221745117Y-65268498D02*
X221852867Y-65268498D01*
X221852867Y-65268498D02*
X221933679Y-65295436D01*
X221933679Y-65295436D02*
X222068366Y-65376248D01*
X222068366Y-65376248D02*
X222149178Y-65457060D01*
X222149178Y-65457060D02*
X222229991Y-65591747D01*
X222229991Y-65591747D02*
X222256928Y-65672560D01*
X222256928Y-65672560D02*
X222256928Y-65780309D01*
X222256928Y-65780309D02*
X222203053Y-65888059D01*
X222203053Y-65888059D02*
X222149178Y-65941934D01*
X222149178Y-65941934D02*
X222041429Y-65995808D01*
X222041429Y-65995808D02*
X221987554Y-65995808D01*
X221987554Y-65995808D02*
X221798992Y-65807247D01*
X221798992Y-65807247D02*
X221906742Y-65699497D01*
X221798992Y-66292120D02*
X221233307Y-65726434D01*
X221233307Y-65726434D02*
X221017807Y-65941934D01*
X221017807Y-65941934D02*
X220990870Y-66022746D01*
X220990870Y-66022746D02*
X220990870Y-66076621D01*
X220990870Y-66076621D02*
X221017807Y-66157433D01*
X221017807Y-66157433D02*
X221098620Y-66238245D01*
X221098620Y-66238245D02*
X221179432Y-66265182D01*
X221179432Y-66265182D02*
X221233307Y-66265182D01*
X221233307Y-66265182D02*
X221314119Y-66238245D01*
X221314119Y-66238245D02*
X221529618Y-66022746D01*
X220936995Y-67154117D02*
X221260244Y-66830868D01*
X221098620Y-66992492D02*
X220532934Y-66426807D01*
X220532934Y-66426807D02*
X220667621Y-66453744D01*
X220667621Y-66453744D02*
X220775371Y-66453744D01*
X220775371Y-66453744D02*
X220856183Y-66426807D01*
X220074998Y-67261866D02*
X220452122Y-67638990D01*
X219994186Y-66911680D02*
X220532934Y-67181054D01*
X220532934Y-67181054D02*
X220182748Y-67531240D01*
X218989618Y-65437998D02*
X219016555Y-65357185D01*
X219016555Y-65357185D02*
X219097368Y-65276373D01*
X219097368Y-65276373D02*
X219205117Y-65222498D01*
X219205117Y-65222498D02*
X219312867Y-65222498D01*
X219312867Y-65222498D02*
X219393679Y-65249436D01*
X219393679Y-65249436D02*
X219528366Y-65330248D01*
X219528366Y-65330248D02*
X219609178Y-65411060D01*
X219609178Y-65411060D02*
X219689991Y-65545747D01*
X219689991Y-65545747D02*
X219716928Y-65626560D01*
X219716928Y-65626560D02*
X219716928Y-65734309D01*
X219716928Y-65734309D02*
X219663053Y-65842059D01*
X219663053Y-65842059D02*
X219609178Y-65895934D01*
X219609178Y-65895934D02*
X219501429Y-65949808D01*
X219501429Y-65949808D02*
X219447554Y-65949808D01*
X219447554Y-65949808D02*
X219258992Y-65761247D01*
X219258992Y-65761247D02*
X219366742Y-65653497D01*
X219258992Y-66246120D02*
X218693307Y-65680434D01*
X218693307Y-65680434D02*
X218477807Y-65895934D01*
X218477807Y-65895934D02*
X218450870Y-65976746D01*
X218450870Y-65976746D02*
X218450870Y-66030621D01*
X218450870Y-66030621D02*
X218477807Y-66111433D01*
X218477807Y-66111433D02*
X218558620Y-66192245D01*
X218558620Y-66192245D02*
X218639432Y-66219182D01*
X218639432Y-66219182D02*
X218693307Y-66219182D01*
X218693307Y-66219182D02*
X218774119Y-66192245D01*
X218774119Y-66192245D02*
X218989618Y-65976746D01*
X218396995Y-67108117D02*
X218720244Y-66784868D01*
X218558620Y-66946492D02*
X217992934Y-66380807D01*
X217992934Y-66380807D02*
X218127621Y-66407744D01*
X218127621Y-66407744D02*
X218235371Y-66407744D01*
X218235371Y-66407744D02*
X218316183Y-66380807D01*
X217319499Y-67054242D02*
X217588873Y-66784868D01*
X217588873Y-66784868D02*
X217885184Y-67027305D01*
X217885184Y-67027305D02*
X217831310Y-67027305D01*
X217831310Y-67027305D02*
X217750497Y-67054242D01*
X217750497Y-67054242D02*
X217615810Y-67188929D01*
X217615810Y-67188929D02*
X217588873Y-67269741D01*
X217588873Y-67269741D02*
X217588873Y-67323616D01*
X217588873Y-67323616D02*
X217615810Y-67404428D01*
X217615810Y-67404428D02*
X217750497Y-67539115D01*
X217750497Y-67539115D02*
X217831310Y-67566053D01*
X217831310Y-67566053D02*
X217885184Y-67566053D01*
X217885184Y-67566053D02*
X217965997Y-67539115D01*
X217965997Y-67539115D02*
X218100684Y-67404428D01*
X218100684Y-67404428D02*
X218127621Y-67323616D01*
X218127621Y-67323616D02*
X218127621Y-67269741D01*
X241580244Y-65453372D02*
X241607181Y-65372560D01*
X241607181Y-65372560D02*
X241687993Y-65291748D01*
X241687993Y-65291748D02*
X241795743Y-65237873D01*
X241795743Y-65237873D02*
X241903492Y-65237873D01*
X241903492Y-65237873D02*
X241984305Y-65264810D01*
X241984305Y-65264810D02*
X242118992Y-65345623D01*
X242118992Y-65345623D02*
X242199804Y-65426435D01*
X242199804Y-65426435D02*
X242280616Y-65561122D01*
X242280616Y-65561122D02*
X242307553Y-65641934D01*
X242307553Y-65641934D02*
X242307553Y-65749684D01*
X242307553Y-65749684D02*
X242253679Y-65857433D01*
X242253679Y-65857433D02*
X242199804Y-65911308D01*
X242199804Y-65911308D02*
X242092054Y-65965183D01*
X242092054Y-65965183D02*
X242038179Y-65965183D01*
X242038179Y-65965183D02*
X241849618Y-65776621D01*
X241849618Y-65776621D02*
X241957367Y-65668871D01*
X241849618Y-66261494D02*
X241283932Y-65695809D01*
X241283932Y-65695809D02*
X241068433Y-65911308D01*
X241068433Y-65911308D02*
X241041496Y-65992120D01*
X241041496Y-65992120D02*
X241041496Y-66045995D01*
X241041496Y-66045995D02*
X241068433Y-66126807D01*
X241068433Y-66126807D02*
X241149245Y-66207619D01*
X241149245Y-66207619D02*
X241230057Y-66234557D01*
X241230057Y-66234557D02*
X241283932Y-66234557D01*
X241283932Y-66234557D02*
X241364744Y-66207619D01*
X241364744Y-66207619D02*
X241580244Y-65992120D01*
X240879871Y-66584743D02*
X240906809Y-66503931D01*
X240906809Y-66503931D02*
X240906809Y-66450056D01*
X240906809Y-66450056D02*
X240879871Y-66369244D01*
X240879871Y-66369244D02*
X240852934Y-66342306D01*
X240852934Y-66342306D02*
X240772122Y-66315369D01*
X240772122Y-66315369D02*
X240718247Y-66315369D01*
X240718247Y-66315369D02*
X240637435Y-66342306D01*
X240637435Y-66342306D02*
X240529685Y-66450056D01*
X240529685Y-66450056D02*
X240502748Y-66530868D01*
X240502748Y-66530868D02*
X240502748Y-66584743D01*
X240502748Y-66584743D02*
X240529685Y-66665555D01*
X240529685Y-66665555D02*
X240556622Y-66692493D01*
X240556622Y-66692493D02*
X240637435Y-66719430D01*
X240637435Y-66719430D02*
X240691309Y-66719430D01*
X240691309Y-66719430D02*
X240772122Y-66692493D01*
X240772122Y-66692493D02*
X240879871Y-66584743D01*
X240879871Y-66584743D02*
X240960683Y-66557806D01*
X240960683Y-66557806D02*
X241014558Y-66557806D01*
X241014558Y-66557806D02*
X241095370Y-66584743D01*
X241095370Y-66584743D02*
X241203120Y-66692493D01*
X241203120Y-66692493D02*
X241230057Y-66773305D01*
X241230057Y-66773305D02*
X241230057Y-66827180D01*
X241230057Y-66827180D02*
X241203120Y-66907992D01*
X241203120Y-66907992D02*
X241095370Y-67015741D01*
X241095370Y-67015741D02*
X241014558Y-67042679D01*
X241014558Y-67042679D02*
X240960683Y-67042679D01*
X240960683Y-67042679D02*
X240879871Y-67015741D01*
X240879871Y-67015741D02*
X240772122Y-66907992D01*
X240772122Y-66907992D02*
X240745184Y-66827180D01*
X240745184Y-66827180D02*
X240745184Y-66773305D01*
X240745184Y-66773305D02*
X240772122Y-66692493D01*
X239040244Y-65453372D02*
X239067181Y-65372560D01*
X239067181Y-65372560D02*
X239147993Y-65291748D01*
X239147993Y-65291748D02*
X239255743Y-65237873D01*
X239255743Y-65237873D02*
X239363492Y-65237873D01*
X239363492Y-65237873D02*
X239444305Y-65264810D01*
X239444305Y-65264810D02*
X239578992Y-65345623D01*
X239578992Y-65345623D02*
X239659804Y-65426435D01*
X239659804Y-65426435D02*
X239740616Y-65561122D01*
X239740616Y-65561122D02*
X239767553Y-65641934D01*
X239767553Y-65641934D02*
X239767553Y-65749684D01*
X239767553Y-65749684D02*
X239713679Y-65857433D01*
X239713679Y-65857433D02*
X239659804Y-65911308D01*
X239659804Y-65911308D02*
X239552054Y-65965183D01*
X239552054Y-65965183D02*
X239498179Y-65965183D01*
X239498179Y-65965183D02*
X239309618Y-65776621D01*
X239309618Y-65776621D02*
X239417367Y-65668871D01*
X239309618Y-66261494D02*
X238743932Y-65695809D01*
X238743932Y-65695809D02*
X238528433Y-65911308D01*
X238528433Y-65911308D02*
X238501496Y-65992120D01*
X238501496Y-65992120D02*
X238501496Y-66045995D01*
X238501496Y-66045995D02*
X238528433Y-66126807D01*
X238528433Y-66126807D02*
X238609245Y-66207619D01*
X238609245Y-66207619D02*
X238690057Y-66234557D01*
X238690057Y-66234557D02*
X238743932Y-66234557D01*
X238743932Y-66234557D02*
X238824744Y-66207619D01*
X238824744Y-66207619D02*
X239040244Y-65992120D01*
X238716995Y-66854117D02*
X238609245Y-66961867D01*
X238609245Y-66961867D02*
X238528433Y-66988804D01*
X238528433Y-66988804D02*
X238474558Y-66988804D01*
X238474558Y-66988804D02*
X238339871Y-66961867D01*
X238339871Y-66961867D02*
X238205184Y-66881054D01*
X238205184Y-66881054D02*
X237989685Y-66665555D01*
X237989685Y-66665555D02*
X237962748Y-66584743D01*
X237962748Y-66584743D02*
X237962748Y-66530868D01*
X237962748Y-66530868D02*
X237989685Y-66450056D01*
X237989685Y-66450056D02*
X238097435Y-66342306D01*
X238097435Y-66342306D02*
X238178247Y-66315369D01*
X238178247Y-66315369D02*
X238232122Y-66315369D01*
X238232122Y-66315369D02*
X238312934Y-66342306D01*
X238312934Y-66342306D02*
X238447621Y-66476993D01*
X238447621Y-66476993D02*
X238474558Y-66557806D01*
X238474558Y-66557806D02*
X238474558Y-66611680D01*
X238474558Y-66611680D02*
X238447621Y-66692493D01*
X238447621Y-66692493D02*
X238339871Y-66800242D01*
X238339871Y-66800242D02*
X238259059Y-66827180D01*
X238259059Y-66827180D02*
X238205184Y-66827180D01*
X238205184Y-66827180D02*
X238124372Y-66800242D01*
X223827181Y-65426435D02*
X223854118Y-65345623D01*
X223854118Y-65345623D02*
X223934930Y-65264811D01*
X223934930Y-65264811D02*
X224042680Y-65210936D01*
X224042680Y-65210936D02*
X224150430Y-65210936D01*
X224150430Y-65210936D02*
X224231242Y-65237873D01*
X224231242Y-65237873D02*
X224365929Y-65318685D01*
X224365929Y-65318685D02*
X224446741Y-65399498D01*
X224446741Y-65399498D02*
X224527553Y-65534185D01*
X224527553Y-65534185D02*
X224554491Y-65614997D01*
X224554491Y-65614997D02*
X224554491Y-65722746D01*
X224554491Y-65722746D02*
X224500616Y-65830496D01*
X224500616Y-65830496D02*
X224446741Y-65884371D01*
X224446741Y-65884371D02*
X224338991Y-65938246D01*
X224338991Y-65938246D02*
X224285117Y-65938246D01*
X224285117Y-65938246D02*
X224096555Y-65749684D01*
X224096555Y-65749684D02*
X224204304Y-65641934D01*
X224096555Y-66234557D02*
X223530869Y-65668872D01*
X223530869Y-65668872D02*
X223773306Y-66557806D01*
X223773306Y-66557806D02*
X223207621Y-65992120D01*
X223503932Y-66827180D02*
X222938247Y-66261494D01*
X222938247Y-66261494D02*
X222803560Y-66396181D01*
X222803560Y-66396181D02*
X222749685Y-66503931D01*
X222749685Y-66503931D02*
X222749685Y-66611680D01*
X222749685Y-66611680D02*
X222776622Y-66692493D01*
X222776622Y-66692493D02*
X222857435Y-66827180D01*
X222857435Y-66827180D02*
X222938247Y-66907992D01*
X222938247Y-66907992D02*
X223072934Y-66988804D01*
X223072934Y-66988804D02*
X223153746Y-67015741D01*
X223153746Y-67015741D02*
X223261496Y-67015741D01*
X223261496Y-67015741D02*
X223369245Y-66961867D01*
X223369245Y-66961867D02*
X223503932Y-66827180D01*
X244150244Y-65353372D02*
X244177181Y-65272560D01*
X244177181Y-65272560D02*
X244257993Y-65191748D01*
X244257993Y-65191748D02*
X244365743Y-65137873D01*
X244365743Y-65137873D02*
X244473492Y-65137873D01*
X244473492Y-65137873D02*
X244554305Y-65164810D01*
X244554305Y-65164810D02*
X244688992Y-65245623D01*
X244688992Y-65245623D02*
X244769804Y-65326435D01*
X244769804Y-65326435D02*
X244850616Y-65461122D01*
X244850616Y-65461122D02*
X244877553Y-65541934D01*
X244877553Y-65541934D02*
X244877553Y-65649684D01*
X244877553Y-65649684D02*
X244823679Y-65757433D01*
X244823679Y-65757433D02*
X244769804Y-65811308D01*
X244769804Y-65811308D02*
X244662054Y-65865183D01*
X244662054Y-65865183D02*
X244608179Y-65865183D01*
X244608179Y-65865183D02*
X244419618Y-65676621D01*
X244419618Y-65676621D02*
X244527367Y-65568871D01*
X244419618Y-66161494D02*
X243853932Y-65595809D01*
X243853932Y-65595809D02*
X243638433Y-65811308D01*
X243638433Y-65811308D02*
X243611496Y-65892120D01*
X243611496Y-65892120D02*
X243611496Y-65945995D01*
X243611496Y-65945995D02*
X243638433Y-66026807D01*
X243638433Y-66026807D02*
X243719245Y-66107619D01*
X243719245Y-66107619D02*
X243800057Y-66134557D01*
X243800057Y-66134557D02*
X243853932Y-66134557D01*
X243853932Y-66134557D02*
X243934744Y-66107619D01*
X243934744Y-66107619D02*
X244150244Y-65892120D01*
X243342122Y-66107619D02*
X242964998Y-66484743D01*
X242964998Y-66484743D02*
X243773120Y-66807992D01*
X261927181Y-65426435D02*
X261954118Y-65345623D01*
X261954118Y-65345623D02*
X262034930Y-65264811D01*
X262034930Y-65264811D02*
X262142680Y-65210936D01*
X262142680Y-65210936D02*
X262250430Y-65210936D01*
X262250430Y-65210936D02*
X262331242Y-65237873D01*
X262331242Y-65237873D02*
X262465929Y-65318685D01*
X262465929Y-65318685D02*
X262546741Y-65399498D01*
X262546741Y-65399498D02*
X262627553Y-65534185D01*
X262627553Y-65534185D02*
X262654491Y-65614997D01*
X262654491Y-65614997D02*
X262654491Y-65722746D01*
X262654491Y-65722746D02*
X262600616Y-65830496D01*
X262600616Y-65830496D02*
X262546741Y-65884371D01*
X262546741Y-65884371D02*
X262438991Y-65938246D01*
X262438991Y-65938246D02*
X262385117Y-65938246D01*
X262385117Y-65938246D02*
X262196555Y-65749684D01*
X262196555Y-65749684D02*
X262304304Y-65641934D01*
X262196555Y-66234557D02*
X261630869Y-65668872D01*
X261630869Y-65668872D02*
X261873306Y-66557806D01*
X261873306Y-66557806D02*
X261307621Y-65992120D01*
X261603932Y-66827180D02*
X261038247Y-66261494D01*
X261038247Y-66261494D02*
X260903560Y-66396181D01*
X260903560Y-66396181D02*
X260849685Y-66503931D01*
X260849685Y-66503931D02*
X260849685Y-66611680D01*
X260849685Y-66611680D02*
X260876622Y-66692493D01*
X260876622Y-66692493D02*
X260957435Y-66827180D01*
X260957435Y-66827180D02*
X261038247Y-66907992D01*
X261038247Y-66907992D02*
X261172934Y-66988804D01*
X261172934Y-66988804D02*
X261253746Y-67015741D01*
X261253746Y-67015741D02*
X261361496Y-67015741D01*
X261361496Y-67015741D02*
X261469245Y-66961867D01*
X261469245Y-66961867D02*
X261603932Y-66827180D01*
X231689618Y-65583998D02*
X231716555Y-65503185D01*
X231716555Y-65503185D02*
X231797368Y-65422373D01*
X231797368Y-65422373D02*
X231905117Y-65368498D01*
X231905117Y-65368498D02*
X232012867Y-65368498D01*
X232012867Y-65368498D02*
X232093679Y-65395436D01*
X232093679Y-65395436D02*
X232228366Y-65476248D01*
X232228366Y-65476248D02*
X232309178Y-65557060D01*
X232309178Y-65557060D02*
X232389991Y-65691747D01*
X232389991Y-65691747D02*
X232416928Y-65772560D01*
X232416928Y-65772560D02*
X232416928Y-65880309D01*
X232416928Y-65880309D02*
X232363053Y-65988059D01*
X232363053Y-65988059D02*
X232309178Y-66041934D01*
X232309178Y-66041934D02*
X232201429Y-66095808D01*
X232201429Y-66095808D02*
X232147554Y-66095808D01*
X232147554Y-66095808D02*
X231958992Y-65907247D01*
X231958992Y-65907247D02*
X232066742Y-65799497D01*
X231958992Y-66392120D02*
X231393307Y-65826434D01*
X231393307Y-65826434D02*
X231177807Y-66041934D01*
X231177807Y-66041934D02*
X231150870Y-66122746D01*
X231150870Y-66122746D02*
X231150870Y-66176621D01*
X231150870Y-66176621D02*
X231177807Y-66257433D01*
X231177807Y-66257433D02*
X231258620Y-66338245D01*
X231258620Y-66338245D02*
X231339432Y-66365182D01*
X231339432Y-66365182D02*
X231393307Y-66365182D01*
X231393307Y-66365182D02*
X231474119Y-66338245D01*
X231474119Y-66338245D02*
X231689618Y-66122746D01*
X231096995Y-67254117D02*
X231420244Y-66930868D01*
X231258620Y-67092492D02*
X230692934Y-66526807D01*
X230692934Y-66526807D02*
X230827621Y-66553744D01*
X230827621Y-66553744D02*
X230935371Y-66553744D01*
X230935371Y-66553744D02*
X231016183Y-66526807D01*
X230558247Y-67792865D02*
X230881496Y-67469616D01*
X230719871Y-67631240D02*
X230154186Y-67065555D01*
X230154186Y-67065555D02*
X230288873Y-67092492D01*
X230288873Y-67092492D02*
X230396623Y-67092492D01*
X230396623Y-67092492D02*
X230477435Y-67065555D01*
X249227181Y-65426435D02*
X249254118Y-65345623D01*
X249254118Y-65345623D02*
X249334930Y-65264811D01*
X249334930Y-65264811D02*
X249442680Y-65210936D01*
X249442680Y-65210936D02*
X249550430Y-65210936D01*
X249550430Y-65210936D02*
X249631242Y-65237873D01*
X249631242Y-65237873D02*
X249765929Y-65318685D01*
X249765929Y-65318685D02*
X249846741Y-65399498D01*
X249846741Y-65399498D02*
X249927553Y-65534185D01*
X249927553Y-65534185D02*
X249954491Y-65614997D01*
X249954491Y-65614997D02*
X249954491Y-65722746D01*
X249954491Y-65722746D02*
X249900616Y-65830496D01*
X249900616Y-65830496D02*
X249846741Y-65884371D01*
X249846741Y-65884371D02*
X249738991Y-65938246D01*
X249738991Y-65938246D02*
X249685117Y-65938246D01*
X249685117Y-65938246D02*
X249496555Y-65749684D01*
X249496555Y-65749684D02*
X249604304Y-65641934D01*
X249496555Y-66234557D02*
X248930869Y-65668872D01*
X248930869Y-65668872D02*
X249173306Y-66557806D01*
X249173306Y-66557806D02*
X248607621Y-65992120D01*
X248903932Y-66827180D02*
X248338247Y-66261494D01*
X248338247Y-66261494D02*
X248203560Y-66396181D01*
X248203560Y-66396181D02*
X248149685Y-66503931D01*
X248149685Y-66503931D02*
X248149685Y-66611680D01*
X248149685Y-66611680D02*
X248176622Y-66692493D01*
X248176622Y-66692493D02*
X248257435Y-66827180D01*
X248257435Y-66827180D02*
X248338247Y-66907992D01*
X248338247Y-66907992D02*
X248472934Y-66988804D01*
X248472934Y-66988804D02*
X248553746Y-67015741D01*
X248553746Y-67015741D02*
X248661496Y-67015741D01*
X248661496Y-67015741D02*
X248769245Y-66961867D01*
X248769245Y-66961867D02*
X248903932Y-66827180D01*
X264450244Y-65553372D02*
X264477181Y-65472560D01*
X264477181Y-65472560D02*
X264557993Y-65391748D01*
X264557993Y-65391748D02*
X264665743Y-65337873D01*
X264665743Y-65337873D02*
X264773492Y-65337873D01*
X264773492Y-65337873D02*
X264854305Y-65364810D01*
X264854305Y-65364810D02*
X264988992Y-65445623D01*
X264988992Y-65445623D02*
X265069804Y-65526435D01*
X265069804Y-65526435D02*
X265150616Y-65661122D01*
X265150616Y-65661122D02*
X265177553Y-65741934D01*
X265177553Y-65741934D02*
X265177553Y-65849684D01*
X265177553Y-65849684D02*
X265123679Y-65957433D01*
X265123679Y-65957433D02*
X265069804Y-66011308D01*
X265069804Y-66011308D02*
X264962054Y-66065183D01*
X264962054Y-66065183D02*
X264908179Y-66065183D01*
X264908179Y-66065183D02*
X264719618Y-65876621D01*
X264719618Y-65876621D02*
X264827367Y-65768871D01*
X264719618Y-66361494D02*
X264153932Y-65795809D01*
X264153932Y-65795809D02*
X263938433Y-66011308D01*
X263938433Y-66011308D02*
X263911496Y-66092120D01*
X263911496Y-66092120D02*
X263911496Y-66145995D01*
X263911496Y-66145995D02*
X263938433Y-66226807D01*
X263938433Y-66226807D02*
X264019245Y-66307619D01*
X264019245Y-66307619D02*
X264100057Y-66334557D01*
X264100057Y-66334557D02*
X264153932Y-66334557D01*
X264153932Y-66334557D02*
X264234744Y-66307619D01*
X264234744Y-66307619D02*
X264450244Y-66092120D01*
X263857621Y-67223491D02*
X264180870Y-66900242D01*
X264019245Y-67061867D02*
X263453560Y-66496181D01*
X263453560Y-66496181D02*
X263588247Y-66523119D01*
X263588247Y-66523119D02*
X263695996Y-66523119D01*
X263695996Y-66523119D02*
X263776809Y-66496181D01*
X236527181Y-65426435D02*
X236554118Y-65345623D01*
X236554118Y-65345623D02*
X236634930Y-65264811D01*
X236634930Y-65264811D02*
X236742680Y-65210936D01*
X236742680Y-65210936D02*
X236850430Y-65210936D01*
X236850430Y-65210936D02*
X236931242Y-65237873D01*
X236931242Y-65237873D02*
X237065929Y-65318685D01*
X237065929Y-65318685D02*
X237146741Y-65399498D01*
X237146741Y-65399498D02*
X237227553Y-65534185D01*
X237227553Y-65534185D02*
X237254491Y-65614997D01*
X237254491Y-65614997D02*
X237254491Y-65722746D01*
X237254491Y-65722746D02*
X237200616Y-65830496D01*
X237200616Y-65830496D02*
X237146741Y-65884371D01*
X237146741Y-65884371D02*
X237038991Y-65938246D01*
X237038991Y-65938246D02*
X236985117Y-65938246D01*
X236985117Y-65938246D02*
X236796555Y-65749684D01*
X236796555Y-65749684D02*
X236904304Y-65641934D01*
X236796555Y-66234557D02*
X236230869Y-65668872D01*
X236230869Y-65668872D02*
X236473306Y-66557806D01*
X236473306Y-66557806D02*
X235907621Y-65992120D01*
X236203932Y-66827180D02*
X235638247Y-66261494D01*
X235638247Y-66261494D02*
X235503560Y-66396181D01*
X235503560Y-66396181D02*
X235449685Y-66503931D01*
X235449685Y-66503931D02*
X235449685Y-66611680D01*
X235449685Y-66611680D02*
X235476622Y-66692493D01*
X235476622Y-66692493D02*
X235557435Y-66827180D01*
X235557435Y-66827180D02*
X235638247Y-66907992D01*
X235638247Y-66907992D02*
X235772934Y-66988804D01*
X235772934Y-66988804D02*
X235853746Y-67015741D01*
X235853746Y-67015741D02*
X235961496Y-67015741D01*
X235961496Y-67015741D02*
X236069245Y-66961867D01*
X236069245Y-66961867D02*
X236203932Y-66827180D01*
X256820244Y-65453372D02*
X256847181Y-65372560D01*
X256847181Y-65372560D02*
X256927993Y-65291748D01*
X256927993Y-65291748D02*
X257035743Y-65237873D01*
X257035743Y-65237873D02*
X257143492Y-65237873D01*
X257143492Y-65237873D02*
X257224305Y-65264810D01*
X257224305Y-65264810D02*
X257358992Y-65345623D01*
X257358992Y-65345623D02*
X257439804Y-65426435D01*
X257439804Y-65426435D02*
X257520616Y-65561122D01*
X257520616Y-65561122D02*
X257547553Y-65641934D01*
X257547553Y-65641934D02*
X257547553Y-65749684D01*
X257547553Y-65749684D02*
X257493679Y-65857433D01*
X257493679Y-65857433D02*
X257439804Y-65911308D01*
X257439804Y-65911308D02*
X257332054Y-65965183D01*
X257332054Y-65965183D02*
X257278179Y-65965183D01*
X257278179Y-65965183D02*
X257089618Y-65776621D01*
X257089618Y-65776621D02*
X257197367Y-65668871D01*
X257089618Y-66261494D02*
X256523932Y-65695809D01*
X256523932Y-65695809D02*
X256308433Y-65911308D01*
X256308433Y-65911308D02*
X256281496Y-65992120D01*
X256281496Y-65992120D02*
X256281496Y-66045995D01*
X256281496Y-66045995D02*
X256308433Y-66126807D01*
X256308433Y-66126807D02*
X256389245Y-66207619D01*
X256389245Y-66207619D02*
X256470057Y-66234557D01*
X256470057Y-66234557D02*
X256523932Y-66234557D01*
X256523932Y-66234557D02*
X256604744Y-66207619D01*
X256604744Y-66207619D02*
X256820244Y-65992120D01*
X256012122Y-66207619D02*
X255661935Y-66557806D01*
X255661935Y-66557806D02*
X256065996Y-66584743D01*
X256065996Y-66584743D02*
X255985184Y-66665555D01*
X255985184Y-66665555D02*
X255958247Y-66746367D01*
X255958247Y-66746367D02*
X255958247Y-66800242D01*
X255958247Y-66800242D02*
X255985184Y-66881054D01*
X255985184Y-66881054D02*
X256119871Y-67015741D01*
X256119871Y-67015741D02*
X256200683Y-67042679D01*
X256200683Y-67042679D02*
X256254558Y-67042679D01*
X256254558Y-67042679D02*
X256335370Y-67015741D01*
X256335370Y-67015741D02*
X256496995Y-66854117D01*
X256496995Y-66854117D02*
X256523932Y-66773305D01*
X256523932Y-66773305D02*
X256523932Y-66719430D01*
X246660244Y-65453372D02*
X246687181Y-65372560D01*
X246687181Y-65372560D02*
X246767993Y-65291748D01*
X246767993Y-65291748D02*
X246875743Y-65237873D01*
X246875743Y-65237873D02*
X246983492Y-65237873D01*
X246983492Y-65237873D02*
X247064305Y-65264810D01*
X247064305Y-65264810D02*
X247198992Y-65345623D01*
X247198992Y-65345623D02*
X247279804Y-65426435D01*
X247279804Y-65426435D02*
X247360616Y-65561122D01*
X247360616Y-65561122D02*
X247387553Y-65641934D01*
X247387553Y-65641934D02*
X247387553Y-65749684D01*
X247387553Y-65749684D02*
X247333679Y-65857433D01*
X247333679Y-65857433D02*
X247279804Y-65911308D01*
X247279804Y-65911308D02*
X247172054Y-65965183D01*
X247172054Y-65965183D02*
X247118179Y-65965183D01*
X247118179Y-65965183D02*
X246929618Y-65776621D01*
X246929618Y-65776621D02*
X247037367Y-65668871D01*
X246929618Y-66261494D02*
X246363932Y-65695809D01*
X246363932Y-65695809D02*
X246148433Y-65911308D01*
X246148433Y-65911308D02*
X246121496Y-65992120D01*
X246121496Y-65992120D02*
X246121496Y-66045995D01*
X246121496Y-66045995D02*
X246148433Y-66126807D01*
X246148433Y-66126807D02*
X246229245Y-66207619D01*
X246229245Y-66207619D02*
X246310057Y-66234557D01*
X246310057Y-66234557D02*
X246363932Y-66234557D01*
X246363932Y-66234557D02*
X246444744Y-66207619D01*
X246444744Y-66207619D02*
X246660244Y-65992120D01*
X245555810Y-66503931D02*
X245663560Y-66396181D01*
X245663560Y-66396181D02*
X245744372Y-66369244D01*
X245744372Y-66369244D02*
X245798247Y-66369244D01*
X245798247Y-66369244D02*
X245932934Y-66396181D01*
X245932934Y-66396181D02*
X246067621Y-66476993D01*
X246067621Y-66476993D02*
X246283120Y-66692493D01*
X246283120Y-66692493D02*
X246310057Y-66773305D01*
X246310057Y-66773305D02*
X246310057Y-66827180D01*
X246310057Y-66827180D02*
X246283120Y-66907992D01*
X246283120Y-66907992D02*
X246175370Y-67015741D01*
X246175370Y-67015741D02*
X246094558Y-67042679D01*
X246094558Y-67042679D02*
X246040683Y-67042679D01*
X246040683Y-67042679D02*
X245959871Y-67015741D01*
X245959871Y-67015741D02*
X245825184Y-66881054D01*
X245825184Y-66881054D02*
X245798247Y-66800242D01*
X245798247Y-66800242D02*
X245798247Y-66746367D01*
X245798247Y-66746367D02*
X245825184Y-66665555D01*
X245825184Y-66665555D02*
X245932934Y-66557806D01*
X245932934Y-66557806D02*
X246013746Y-66530868D01*
X246013746Y-66530868D02*
X246067621Y-66530868D01*
X246067621Y-66530868D02*
X246148433Y-66557806D01*
X229149618Y-65583998D02*
X229176555Y-65503185D01*
X229176555Y-65503185D02*
X229257368Y-65422373D01*
X229257368Y-65422373D02*
X229365117Y-65368498D01*
X229365117Y-65368498D02*
X229472867Y-65368498D01*
X229472867Y-65368498D02*
X229553679Y-65395436D01*
X229553679Y-65395436D02*
X229688366Y-65476248D01*
X229688366Y-65476248D02*
X229769178Y-65557060D01*
X229769178Y-65557060D02*
X229849991Y-65691747D01*
X229849991Y-65691747D02*
X229876928Y-65772560D01*
X229876928Y-65772560D02*
X229876928Y-65880309D01*
X229876928Y-65880309D02*
X229823053Y-65988059D01*
X229823053Y-65988059D02*
X229769178Y-66041934D01*
X229769178Y-66041934D02*
X229661429Y-66095808D01*
X229661429Y-66095808D02*
X229607554Y-66095808D01*
X229607554Y-66095808D02*
X229418992Y-65907247D01*
X229418992Y-65907247D02*
X229526742Y-65799497D01*
X229418992Y-66392120D02*
X228853307Y-65826434D01*
X228853307Y-65826434D02*
X228637807Y-66041934D01*
X228637807Y-66041934D02*
X228610870Y-66122746D01*
X228610870Y-66122746D02*
X228610870Y-66176621D01*
X228610870Y-66176621D02*
X228637807Y-66257433D01*
X228637807Y-66257433D02*
X228718620Y-66338245D01*
X228718620Y-66338245D02*
X228799432Y-66365182D01*
X228799432Y-66365182D02*
X228853307Y-66365182D01*
X228853307Y-66365182D02*
X228934119Y-66338245D01*
X228934119Y-66338245D02*
X229149618Y-66122746D01*
X228556995Y-67254117D02*
X228880244Y-66930868D01*
X228718620Y-67092492D02*
X228152934Y-66526807D01*
X228152934Y-66526807D02*
X228287621Y-66553744D01*
X228287621Y-66553744D02*
X228395371Y-66553744D01*
X228395371Y-66553744D02*
X228476183Y-66526807D01*
X227829685Y-66957805D02*
X227775810Y-66957805D01*
X227775810Y-66957805D02*
X227694998Y-66984743D01*
X227694998Y-66984743D02*
X227560311Y-67119430D01*
X227560311Y-67119430D02*
X227533374Y-67200242D01*
X227533374Y-67200242D02*
X227533374Y-67254117D01*
X227533374Y-67254117D02*
X227560311Y-67334929D01*
X227560311Y-67334929D02*
X227614186Y-67388804D01*
X227614186Y-67388804D02*
X227721936Y-67442679D01*
X227721936Y-67442679D02*
X228368433Y-67442679D01*
X228368433Y-67442679D02*
X228018247Y-67792865D01*
X103102319Y-53395655D02*
X102102319Y-53395655D01*
X102102319Y-53395655D02*
X102102319Y-53633750D01*
X102102319Y-53633750D02*
X102149938Y-53776607D01*
X102149938Y-53776607D02*
X102245176Y-53871845D01*
X102245176Y-53871845D02*
X102340414Y-53919464D01*
X102340414Y-53919464D02*
X102530890Y-53967083D01*
X102530890Y-53967083D02*
X102673747Y-53967083D01*
X102673747Y-53967083D02*
X102864223Y-53919464D01*
X102864223Y-53919464D02*
X102959461Y-53871845D01*
X102959461Y-53871845D02*
X103054700Y-53776607D01*
X103054700Y-53776607D02*
X103102319Y-53633750D01*
X103102319Y-53633750D02*
X103102319Y-53395655D01*
X102435652Y-54824226D02*
X103102319Y-54824226D01*
X102054700Y-54586131D02*
X102768985Y-54348036D01*
X102768985Y-54348036D02*
X102768985Y-54967083D01*
X84052319Y-71969464D02*
X83052319Y-71969464D01*
X83052319Y-71969464D02*
X83052319Y-72207559D01*
X83052319Y-72207559D02*
X83099938Y-72350416D01*
X83099938Y-72350416D02*
X83195176Y-72445654D01*
X83195176Y-72445654D02*
X83290414Y-72493273D01*
X83290414Y-72493273D02*
X83480890Y-72540892D01*
X83480890Y-72540892D02*
X83623747Y-72540892D01*
X83623747Y-72540892D02*
X83814223Y-72493273D01*
X83814223Y-72493273D02*
X83909461Y-72445654D01*
X83909461Y-72445654D02*
X84004700Y-72350416D01*
X84004700Y-72350416D02*
X84052319Y-72207559D01*
X84052319Y-72207559D02*
X84052319Y-71969464D01*
X84052319Y-73493273D02*
X84052319Y-72921845D01*
X84052319Y-73207559D02*
X83052319Y-73207559D01*
X83052319Y-73207559D02*
X83195176Y-73112321D01*
X83195176Y-73112321D02*
X83290414Y-73017083D01*
X83290414Y-73017083D02*
X83338033Y-72921845D01*
X83052319Y-74398035D02*
X83052319Y-73921845D01*
X83052319Y-73921845D02*
X83528509Y-73874226D01*
X83528509Y-73874226D02*
X83480890Y-73921845D01*
X83480890Y-73921845D02*
X83433271Y-74017083D01*
X83433271Y-74017083D02*
X83433271Y-74255178D01*
X83433271Y-74255178D02*
X83480890Y-74350416D01*
X83480890Y-74350416D02*
X83528509Y-74398035D01*
X83528509Y-74398035D02*
X83623747Y-74445654D01*
X83623747Y-74445654D02*
X83861842Y-74445654D01*
X83861842Y-74445654D02*
X83957080Y-74398035D01*
X83957080Y-74398035D02*
X84004700Y-74350416D01*
X84004700Y-74350416D02*
X84052319Y-74255178D01*
X84052319Y-74255178D02*
X84052319Y-74017083D01*
X84052319Y-74017083D02*
X84004700Y-73921845D01*
X84004700Y-73921845D02*
X83957080Y-73874226D01*
X236452319Y-52919464D02*
X235452319Y-52919464D01*
X235452319Y-52919464D02*
X235452319Y-53157559D01*
X235452319Y-53157559D02*
X235499938Y-53300416D01*
X235499938Y-53300416D02*
X235595176Y-53395654D01*
X235595176Y-53395654D02*
X235690414Y-53443273D01*
X235690414Y-53443273D02*
X235880890Y-53490892D01*
X235880890Y-53490892D02*
X236023747Y-53490892D01*
X236023747Y-53490892D02*
X236214223Y-53443273D01*
X236214223Y-53443273D02*
X236309461Y-53395654D01*
X236309461Y-53395654D02*
X236404700Y-53300416D01*
X236404700Y-53300416D02*
X236452319Y-53157559D01*
X236452319Y-53157559D02*
X236452319Y-52919464D01*
X236452319Y-54443273D02*
X236452319Y-53871845D01*
X236452319Y-54157559D02*
X235452319Y-54157559D01*
X235452319Y-54157559D02*
X235595176Y-54062321D01*
X235595176Y-54062321D02*
X235690414Y-53967083D01*
X235690414Y-53967083D02*
X235738033Y-53871845D01*
X236452319Y-55395654D02*
X236452319Y-54824226D01*
X236452319Y-55109940D02*
X235452319Y-55109940D01*
X235452319Y-55109940D02*
X235595176Y-55014702D01*
X235595176Y-55014702D02*
X235690414Y-54919464D01*
X235690414Y-54919464D02*
X235738033Y-54824226D01*
X215021069Y-110069464D02*
X214021069Y-110069464D01*
X214021069Y-110069464D02*
X214021069Y-110307559D01*
X214021069Y-110307559D02*
X214068688Y-110450416D01*
X214068688Y-110450416D02*
X214163926Y-110545654D01*
X214163926Y-110545654D02*
X214259164Y-110593273D01*
X214259164Y-110593273D02*
X214449640Y-110640892D01*
X214449640Y-110640892D02*
X214592497Y-110640892D01*
X214592497Y-110640892D02*
X214782973Y-110593273D01*
X214782973Y-110593273D02*
X214878211Y-110545654D01*
X214878211Y-110545654D02*
X214973450Y-110450416D01*
X214973450Y-110450416D02*
X215021069Y-110307559D01*
X215021069Y-110307559D02*
X215021069Y-110069464D01*
X214354402Y-111498035D02*
X215021069Y-111498035D01*
X213973450Y-111259940D02*
X214687735Y-111021845D01*
X214687735Y-111021845D02*
X214687735Y-111640892D01*
X214116307Y-111974226D02*
X214068688Y-112021845D01*
X214068688Y-112021845D02*
X214021069Y-112117083D01*
X214021069Y-112117083D02*
X214021069Y-112355178D01*
X214021069Y-112355178D02*
X214068688Y-112450416D01*
X214068688Y-112450416D02*
X214116307Y-112498035D01*
X214116307Y-112498035D02*
X214211545Y-112545654D01*
X214211545Y-112545654D02*
X214306783Y-112545654D01*
X214306783Y-112545654D02*
X214449640Y-112498035D01*
X214449640Y-112498035D02*
X215021069Y-111926607D01*
X215021069Y-111926607D02*
X215021069Y-112545654D01*
X48333569Y-91019464D02*
X47333569Y-91019464D01*
X47333569Y-91019464D02*
X47333569Y-91257559D01*
X47333569Y-91257559D02*
X47381188Y-91400416D01*
X47381188Y-91400416D02*
X47476426Y-91495654D01*
X47476426Y-91495654D02*
X47571664Y-91543273D01*
X47571664Y-91543273D02*
X47762140Y-91590892D01*
X47762140Y-91590892D02*
X47904997Y-91590892D01*
X47904997Y-91590892D02*
X48095473Y-91543273D01*
X48095473Y-91543273D02*
X48190711Y-91495654D01*
X48190711Y-91495654D02*
X48285950Y-91400416D01*
X48285950Y-91400416D02*
X48333569Y-91257559D01*
X48333569Y-91257559D02*
X48333569Y-91019464D01*
X47428807Y-91971845D02*
X47381188Y-92019464D01*
X47381188Y-92019464D02*
X47333569Y-92114702D01*
X47333569Y-92114702D02*
X47333569Y-92352797D01*
X47333569Y-92352797D02*
X47381188Y-92448035D01*
X47381188Y-92448035D02*
X47428807Y-92495654D01*
X47428807Y-92495654D02*
X47524045Y-92543273D01*
X47524045Y-92543273D02*
X47619283Y-92543273D01*
X47619283Y-92543273D02*
X47762140Y-92495654D01*
X47762140Y-92495654D02*
X48333569Y-91924226D01*
X48333569Y-91924226D02*
X48333569Y-92543273D01*
X47333569Y-93448035D02*
X47333569Y-92971845D01*
X47333569Y-92971845D02*
X47809759Y-92924226D01*
X47809759Y-92924226D02*
X47762140Y-92971845D01*
X47762140Y-92971845D02*
X47714521Y-93067083D01*
X47714521Y-93067083D02*
X47714521Y-93305178D01*
X47714521Y-93305178D02*
X47762140Y-93400416D01*
X47762140Y-93400416D02*
X47809759Y-93448035D01*
X47809759Y-93448035D02*
X47904997Y-93495654D01*
X47904997Y-93495654D02*
X48143092Y-93495654D01*
X48143092Y-93495654D02*
X48238330Y-93448035D01*
X48238330Y-93448035D02*
X48285950Y-93400416D01*
X48285950Y-93400416D02*
X48333569Y-93305178D01*
X48333569Y-93305178D02*
X48333569Y-93067083D01*
X48333569Y-93067083D02*
X48285950Y-92971845D01*
X48285950Y-92971845D02*
X48238330Y-92924226D01*
X107864819Y-90956964D02*
X106864819Y-90956964D01*
X106864819Y-90956964D02*
X106864819Y-91195059D01*
X106864819Y-91195059D02*
X106912438Y-91337916D01*
X106912438Y-91337916D02*
X107007676Y-91433154D01*
X107007676Y-91433154D02*
X107102914Y-91480773D01*
X107102914Y-91480773D02*
X107293390Y-91528392D01*
X107293390Y-91528392D02*
X107436247Y-91528392D01*
X107436247Y-91528392D02*
X107626723Y-91480773D01*
X107626723Y-91480773D02*
X107721961Y-91433154D01*
X107721961Y-91433154D02*
X107817200Y-91337916D01*
X107817200Y-91337916D02*
X107864819Y-91195059D01*
X107864819Y-91195059D02*
X107864819Y-90956964D01*
X106960057Y-91909345D02*
X106912438Y-91956964D01*
X106912438Y-91956964D02*
X106864819Y-92052202D01*
X106864819Y-92052202D02*
X106864819Y-92290297D01*
X106864819Y-92290297D02*
X106912438Y-92385535D01*
X106912438Y-92385535D02*
X106960057Y-92433154D01*
X106960057Y-92433154D02*
X107055295Y-92480773D01*
X107055295Y-92480773D02*
X107150533Y-92480773D01*
X107150533Y-92480773D02*
X107293390Y-92433154D01*
X107293390Y-92433154D02*
X107864819Y-91861726D01*
X107864819Y-91861726D02*
X107864819Y-92480773D01*
X107293390Y-93052202D02*
X107245771Y-92956964D01*
X107245771Y-92956964D02*
X107198152Y-92909345D01*
X107198152Y-92909345D02*
X107102914Y-92861726D01*
X107102914Y-92861726D02*
X107055295Y-92861726D01*
X107055295Y-92861726D02*
X106960057Y-92909345D01*
X106960057Y-92909345D02*
X106912438Y-92956964D01*
X106912438Y-92956964D02*
X106864819Y-93052202D01*
X106864819Y-93052202D02*
X106864819Y-93242678D01*
X106864819Y-93242678D02*
X106912438Y-93337916D01*
X106912438Y-93337916D02*
X106960057Y-93385535D01*
X106960057Y-93385535D02*
X107055295Y-93433154D01*
X107055295Y-93433154D02*
X107102914Y-93433154D01*
X107102914Y-93433154D02*
X107198152Y-93385535D01*
X107198152Y-93385535D02*
X107245771Y-93337916D01*
X107245771Y-93337916D02*
X107293390Y-93242678D01*
X107293390Y-93242678D02*
X107293390Y-93052202D01*
X107293390Y-93052202D02*
X107341009Y-92956964D01*
X107341009Y-92956964D02*
X107388628Y-92909345D01*
X107388628Y-92909345D02*
X107483866Y-92861726D01*
X107483866Y-92861726D02*
X107674342Y-92861726D01*
X107674342Y-92861726D02*
X107769580Y-92909345D01*
X107769580Y-92909345D02*
X107817200Y-92956964D01*
X107817200Y-92956964D02*
X107864819Y-93052202D01*
X107864819Y-93052202D02*
X107864819Y-93242678D01*
X107864819Y-93242678D02*
X107817200Y-93337916D01*
X107817200Y-93337916D02*
X107769580Y-93385535D01*
X107769580Y-93385535D02*
X107674342Y-93433154D01*
X107674342Y-93433154D02*
X107483866Y-93433154D01*
X107483866Y-93433154D02*
X107388628Y-93385535D01*
X107388628Y-93385535D02*
X107341009Y-93337916D01*
X107341009Y-93337916D02*
X107293390Y-93242678D01*
X103102319Y-110069464D02*
X102102319Y-110069464D01*
X102102319Y-110069464D02*
X102102319Y-110307559D01*
X102102319Y-110307559D02*
X102149938Y-110450416D01*
X102149938Y-110450416D02*
X102245176Y-110545654D01*
X102245176Y-110545654D02*
X102340414Y-110593273D01*
X102340414Y-110593273D02*
X102530890Y-110640892D01*
X102530890Y-110640892D02*
X102673747Y-110640892D01*
X102673747Y-110640892D02*
X102864223Y-110593273D01*
X102864223Y-110593273D02*
X102959461Y-110545654D01*
X102959461Y-110545654D02*
X103054700Y-110450416D01*
X103054700Y-110450416D02*
X103102319Y-110307559D01*
X103102319Y-110307559D02*
X103102319Y-110069464D01*
X102102319Y-110974226D02*
X102102319Y-111593273D01*
X102102319Y-111593273D02*
X102483271Y-111259940D01*
X102483271Y-111259940D02*
X102483271Y-111402797D01*
X102483271Y-111402797D02*
X102530890Y-111498035D01*
X102530890Y-111498035D02*
X102578509Y-111545654D01*
X102578509Y-111545654D02*
X102673747Y-111593273D01*
X102673747Y-111593273D02*
X102911842Y-111593273D01*
X102911842Y-111593273D02*
X103007080Y-111545654D01*
X103007080Y-111545654D02*
X103054700Y-111498035D01*
X103054700Y-111498035D02*
X103102319Y-111402797D01*
X103102319Y-111402797D02*
X103102319Y-111117083D01*
X103102319Y-111117083D02*
X103054700Y-111021845D01*
X103054700Y-111021845D02*
X103007080Y-110974226D01*
X103102319Y-112069464D02*
X103102319Y-112259940D01*
X103102319Y-112259940D02*
X103054700Y-112355178D01*
X103054700Y-112355178D02*
X103007080Y-112402797D01*
X103007080Y-112402797D02*
X102864223Y-112498035D01*
X102864223Y-112498035D02*
X102673747Y-112545654D01*
X102673747Y-112545654D02*
X102292795Y-112545654D01*
X102292795Y-112545654D02*
X102197557Y-112498035D01*
X102197557Y-112498035D02*
X102149938Y-112450416D01*
X102149938Y-112450416D02*
X102102319Y-112355178D01*
X102102319Y-112355178D02*
X102102319Y-112164702D01*
X102102319Y-112164702D02*
X102149938Y-112069464D01*
X102149938Y-112069464D02*
X102197557Y-112021845D01*
X102197557Y-112021845D02*
X102292795Y-111974226D01*
X102292795Y-111974226D02*
X102530890Y-111974226D01*
X102530890Y-111974226D02*
X102626128Y-112021845D01*
X102626128Y-112021845D02*
X102673747Y-112069464D01*
X102673747Y-112069464D02*
X102721366Y-112164702D01*
X102721366Y-112164702D02*
X102721366Y-112355178D01*
X102721366Y-112355178D02*
X102673747Y-112450416D01*
X102673747Y-112450416D02*
X102626128Y-112498035D01*
X102626128Y-112498035D02*
X102530890Y-112545654D01*
X122152319Y-71969464D02*
X121152319Y-71969464D01*
X121152319Y-71969464D02*
X121152319Y-72207559D01*
X121152319Y-72207559D02*
X121199938Y-72350416D01*
X121199938Y-72350416D02*
X121295176Y-72445654D01*
X121295176Y-72445654D02*
X121390414Y-72493273D01*
X121390414Y-72493273D02*
X121580890Y-72540892D01*
X121580890Y-72540892D02*
X121723747Y-72540892D01*
X121723747Y-72540892D02*
X121914223Y-72493273D01*
X121914223Y-72493273D02*
X122009461Y-72445654D01*
X122009461Y-72445654D02*
X122104700Y-72350416D01*
X122104700Y-72350416D02*
X122152319Y-72207559D01*
X122152319Y-72207559D02*
X122152319Y-71969464D01*
X122152319Y-73493273D02*
X122152319Y-72921845D01*
X122152319Y-73207559D02*
X121152319Y-73207559D01*
X121152319Y-73207559D02*
X121295176Y-73112321D01*
X121295176Y-73112321D02*
X121390414Y-73017083D01*
X121390414Y-73017083D02*
X121438033Y-72921845D01*
X121152319Y-73826607D02*
X121152319Y-74493273D01*
X121152319Y-74493273D02*
X122152319Y-74064702D01*
X45952319Y-71969464D02*
X44952319Y-71969464D01*
X44952319Y-71969464D02*
X44952319Y-72207559D01*
X44952319Y-72207559D02*
X44999938Y-72350416D01*
X44999938Y-72350416D02*
X45095176Y-72445654D01*
X45095176Y-72445654D02*
X45190414Y-72493273D01*
X45190414Y-72493273D02*
X45380890Y-72540892D01*
X45380890Y-72540892D02*
X45523747Y-72540892D01*
X45523747Y-72540892D02*
X45714223Y-72493273D01*
X45714223Y-72493273D02*
X45809461Y-72445654D01*
X45809461Y-72445654D02*
X45904700Y-72350416D01*
X45904700Y-72350416D02*
X45952319Y-72207559D01*
X45952319Y-72207559D02*
X45952319Y-71969464D01*
X45952319Y-73493273D02*
X45952319Y-72921845D01*
X45952319Y-73207559D02*
X44952319Y-73207559D01*
X44952319Y-73207559D02*
X45095176Y-73112321D01*
X45095176Y-73112321D02*
X45190414Y-73017083D01*
X45190414Y-73017083D02*
X45238033Y-72921845D01*
X44952319Y-73826607D02*
X44952319Y-74445654D01*
X44952319Y-74445654D02*
X45333271Y-74112321D01*
X45333271Y-74112321D02*
X45333271Y-74255178D01*
X45333271Y-74255178D02*
X45380890Y-74350416D01*
X45380890Y-74350416D02*
X45428509Y-74398035D01*
X45428509Y-74398035D02*
X45523747Y-74445654D01*
X45523747Y-74445654D02*
X45761842Y-74445654D01*
X45761842Y-74445654D02*
X45857080Y-74398035D01*
X45857080Y-74398035D02*
X45904700Y-74350416D01*
X45904700Y-74350416D02*
X45952319Y-74255178D01*
X45952319Y-74255178D02*
X45952319Y-73969464D01*
X45952319Y-73969464D02*
X45904700Y-73874226D01*
X45904700Y-73874226D02*
X45857080Y-73826607D01*
X198352319Y-53395655D02*
X197352319Y-53395655D01*
X197352319Y-53395655D02*
X197352319Y-53633750D01*
X197352319Y-53633750D02*
X197399938Y-53776607D01*
X197399938Y-53776607D02*
X197495176Y-53871845D01*
X197495176Y-53871845D02*
X197590414Y-53919464D01*
X197590414Y-53919464D02*
X197780890Y-53967083D01*
X197780890Y-53967083D02*
X197923747Y-53967083D01*
X197923747Y-53967083D02*
X198114223Y-53919464D01*
X198114223Y-53919464D02*
X198209461Y-53871845D01*
X198209461Y-53871845D02*
X198304700Y-53776607D01*
X198304700Y-53776607D02*
X198352319Y-53633750D01*
X198352319Y-53633750D02*
X198352319Y-53395655D01*
X198352319Y-54443274D02*
X198352319Y-54633750D01*
X198352319Y-54633750D02*
X198304700Y-54728988D01*
X198304700Y-54728988D02*
X198257080Y-54776607D01*
X198257080Y-54776607D02*
X198114223Y-54871845D01*
X198114223Y-54871845D02*
X197923747Y-54919464D01*
X197923747Y-54919464D02*
X197542795Y-54919464D01*
X197542795Y-54919464D02*
X197447557Y-54871845D01*
X197447557Y-54871845D02*
X197399938Y-54824226D01*
X197399938Y-54824226D02*
X197352319Y-54728988D01*
X197352319Y-54728988D02*
X197352319Y-54538512D01*
X197352319Y-54538512D02*
X197399938Y-54443274D01*
X197399938Y-54443274D02*
X197447557Y-54395655D01*
X197447557Y-54395655D02*
X197542795Y-54348036D01*
X197542795Y-54348036D02*
X197780890Y-54348036D01*
X197780890Y-54348036D02*
X197876128Y-54395655D01*
X197876128Y-54395655D02*
X197923747Y-54443274D01*
X197923747Y-54443274D02*
X197971366Y-54538512D01*
X197971366Y-54538512D02*
X197971366Y-54728988D01*
X197971366Y-54728988D02*
X197923747Y-54824226D01*
X197923747Y-54824226D02*
X197876128Y-54871845D01*
X197876128Y-54871845D02*
X197780890Y-54919464D01*
X262646069Y-91019464D02*
X261646069Y-91019464D01*
X261646069Y-91019464D02*
X261646069Y-91257559D01*
X261646069Y-91257559D02*
X261693688Y-91400416D01*
X261693688Y-91400416D02*
X261788926Y-91495654D01*
X261788926Y-91495654D02*
X261884164Y-91543273D01*
X261884164Y-91543273D02*
X262074640Y-91590892D01*
X262074640Y-91590892D02*
X262217497Y-91590892D01*
X262217497Y-91590892D02*
X262407973Y-91543273D01*
X262407973Y-91543273D02*
X262503211Y-91495654D01*
X262503211Y-91495654D02*
X262598450Y-91400416D01*
X262598450Y-91400416D02*
X262646069Y-91257559D01*
X262646069Y-91257559D02*
X262646069Y-91019464D01*
X261646069Y-91924226D02*
X261646069Y-92543273D01*
X261646069Y-92543273D02*
X262027021Y-92209940D01*
X262027021Y-92209940D02*
X262027021Y-92352797D01*
X262027021Y-92352797D02*
X262074640Y-92448035D01*
X262074640Y-92448035D02*
X262122259Y-92495654D01*
X262122259Y-92495654D02*
X262217497Y-92543273D01*
X262217497Y-92543273D02*
X262455592Y-92543273D01*
X262455592Y-92543273D02*
X262550830Y-92495654D01*
X262550830Y-92495654D02*
X262598450Y-92448035D01*
X262598450Y-92448035D02*
X262646069Y-92352797D01*
X262646069Y-92352797D02*
X262646069Y-92067083D01*
X262646069Y-92067083D02*
X262598450Y-91971845D01*
X262598450Y-91971845D02*
X262550830Y-91924226D01*
X261646069Y-93400416D02*
X261646069Y-93209940D01*
X261646069Y-93209940D02*
X261693688Y-93114702D01*
X261693688Y-93114702D02*
X261741307Y-93067083D01*
X261741307Y-93067083D02*
X261884164Y-92971845D01*
X261884164Y-92971845D02*
X262074640Y-92924226D01*
X262074640Y-92924226D02*
X262455592Y-92924226D01*
X262455592Y-92924226D02*
X262550830Y-92971845D01*
X262550830Y-92971845D02*
X262598450Y-93019464D01*
X262598450Y-93019464D02*
X262646069Y-93114702D01*
X262646069Y-93114702D02*
X262646069Y-93305178D01*
X262646069Y-93305178D02*
X262598450Y-93400416D01*
X262598450Y-93400416D02*
X262550830Y-93448035D01*
X262550830Y-93448035D02*
X262455592Y-93495654D01*
X262455592Y-93495654D02*
X262217497Y-93495654D01*
X262217497Y-93495654D02*
X262122259Y-93448035D01*
X262122259Y-93448035D02*
X262074640Y-93400416D01*
X262074640Y-93400416D02*
X262027021Y-93305178D01*
X262027021Y-93305178D02*
X262027021Y-93114702D01*
X262027021Y-93114702D02*
X262074640Y-93019464D01*
X262074640Y-93019464D02*
X262122259Y-92971845D01*
X262122259Y-92971845D02*
X262217497Y-92924226D01*
X198352319Y-71969464D02*
X197352319Y-71969464D01*
X197352319Y-71969464D02*
X197352319Y-72207559D01*
X197352319Y-72207559D02*
X197399938Y-72350416D01*
X197399938Y-72350416D02*
X197495176Y-72445654D01*
X197495176Y-72445654D02*
X197590414Y-72493273D01*
X197590414Y-72493273D02*
X197780890Y-72540892D01*
X197780890Y-72540892D02*
X197923747Y-72540892D01*
X197923747Y-72540892D02*
X198114223Y-72493273D01*
X198114223Y-72493273D02*
X198209461Y-72445654D01*
X198209461Y-72445654D02*
X198304700Y-72350416D01*
X198304700Y-72350416D02*
X198352319Y-72207559D01*
X198352319Y-72207559D02*
X198352319Y-71969464D01*
X197447557Y-72921845D02*
X197399938Y-72969464D01*
X197399938Y-72969464D02*
X197352319Y-73064702D01*
X197352319Y-73064702D02*
X197352319Y-73302797D01*
X197352319Y-73302797D02*
X197399938Y-73398035D01*
X197399938Y-73398035D02*
X197447557Y-73445654D01*
X197447557Y-73445654D02*
X197542795Y-73493273D01*
X197542795Y-73493273D02*
X197638033Y-73493273D01*
X197638033Y-73493273D02*
X197780890Y-73445654D01*
X197780890Y-73445654D02*
X198352319Y-72874226D01*
X198352319Y-72874226D02*
X198352319Y-73493273D01*
X198352319Y-74445654D02*
X198352319Y-73874226D01*
X198352319Y-74159940D02*
X197352319Y-74159940D01*
X197352319Y-74159940D02*
X197495176Y-74064702D01*
X197495176Y-74064702D02*
X197590414Y-73969464D01*
X197590414Y-73969464D02*
X197638033Y-73874226D01*
X236452319Y-71969464D02*
X235452319Y-71969464D01*
X235452319Y-71969464D02*
X235452319Y-72207559D01*
X235452319Y-72207559D02*
X235499938Y-72350416D01*
X235499938Y-72350416D02*
X235595176Y-72445654D01*
X235595176Y-72445654D02*
X235690414Y-72493273D01*
X235690414Y-72493273D02*
X235880890Y-72540892D01*
X235880890Y-72540892D02*
X236023747Y-72540892D01*
X236023747Y-72540892D02*
X236214223Y-72493273D01*
X236214223Y-72493273D02*
X236309461Y-72445654D01*
X236309461Y-72445654D02*
X236404700Y-72350416D01*
X236404700Y-72350416D02*
X236452319Y-72207559D01*
X236452319Y-72207559D02*
X236452319Y-71969464D01*
X235547557Y-72921845D02*
X235499938Y-72969464D01*
X235499938Y-72969464D02*
X235452319Y-73064702D01*
X235452319Y-73064702D02*
X235452319Y-73302797D01*
X235452319Y-73302797D02*
X235499938Y-73398035D01*
X235499938Y-73398035D02*
X235547557Y-73445654D01*
X235547557Y-73445654D02*
X235642795Y-73493273D01*
X235642795Y-73493273D02*
X235738033Y-73493273D01*
X235738033Y-73493273D02*
X235880890Y-73445654D01*
X235880890Y-73445654D02*
X236452319Y-72874226D01*
X236452319Y-72874226D02*
X236452319Y-73493273D01*
X235452319Y-73826607D02*
X235452319Y-74445654D01*
X235452319Y-74445654D02*
X235833271Y-74112321D01*
X235833271Y-74112321D02*
X235833271Y-74255178D01*
X235833271Y-74255178D02*
X235880890Y-74350416D01*
X235880890Y-74350416D02*
X235928509Y-74398035D01*
X235928509Y-74398035D02*
X236023747Y-74445654D01*
X236023747Y-74445654D02*
X236261842Y-74445654D01*
X236261842Y-74445654D02*
X236357080Y-74398035D01*
X236357080Y-74398035D02*
X236404700Y-74350416D01*
X236404700Y-74350416D02*
X236452319Y-74255178D01*
X236452319Y-74255178D02*
X236452319Y-73969464D01*
X236452319Y-73969464D02*
X236404700Y-73874226D01*
X236404700Y-73874226D02*
X236357080Y-73826607D01*
X184064819Y-91019464D02*
X183064819Y-91019464D01*
X183064819Y-91019464D02*
X183064819Y-91257559D01*
X183064819Y-91257559D02*
X183112438Y-91400416D01*
X183112438Y-91400416D02*
X183207676Y-91495654D01*
X183207676Y-91495654D02*
X183302914Y-91543273D01*
X183302914Y-91543273D02*
X183493390Y-91590892D01*
X183493390Y-91590892D02*
X183636247Y-91590892D01*
X183636247Y-91590892D02*
X183826723Y-91543273D01*
X183826723Y-91543273D02*
X183921961Y-91495654D01*
X183921961Y-91495654D02*
X184017200Y-91400416D01*
X184017200Y-91400416D02*
X184064819Y-91257559D01*
X184064819Y-91257559D02*
X184064819Y-91019464D01*
X183064819Y-91924226D02*
X183064819Y-92543273D01*
X183064819Y-92543273D02*
X183445771Y-92209940D01*
X183445771Y-92209940D02*
X183445771Y-92352797D01*
X183445771Y-92352797D02*
X183493390Y-92448035D01*
X183493390Y-92448035D02*
X183541009Y-92495654D01*
X183541009Y-92495654D02*
X183636247Y-92543273D01*
X183636247Y-92543273D02*
X183874342Y-92543273D01*
X183874342Y-92543273D02*
X183969580Y-92495654D01*
X183969580Y-92495654D02*
X184017200Y-92448035D01*
X184017200Y-92448035D02*
X184064819Y-92352797D01*
X184064819Y-92352797D02*
X184064819Y-92067083D01*
X184064819Y-92067083D02*
X184017200Y-91971845D01*
X184017200Y-91971845D02*
X183969580Y-91924226D01*
X183160057Y-92924226D02*
X183112438Y-92971845D01*
X183112438Y-92971845D02*
X183064819Y-93067083D01*
X183064819Y-93067083D02*
X183064819Y-93305178D01*
X183064819Y-93305178D02*
X183112438Y-93400416D01*
X183112438Y-93400416D02*
X183160057Y-93448035D01*
X183160057Y-93448035D02*
X183255295Y-93495654D01*
X183255295Y-93495654D02*
X183350533Y-93495654D01*
X183350533Y-93495654D02*
X183493390Y-93448035D01*
X183493390Y-93448035D02*
X184064819Y-92876607D01*
X184064819Y-92876607D02*
X184064819Y-93495654D01*
X141202319Y-53395655D02*
X140202319Y-53395655D01*
X140202319Y-53395655D02*
X140202319Y-53633750D01*
X140202319Y-53633750D02*
X140249938Y-53776607D01*
X140249938Y-53776607D02*
X140345176Y-53871845D01*
X140345176Y-53871845D02*
X140440414Y-53919464D01*
X140440414Y-53919464D02*
X140630890Y-53967083D01*
X140630890Y-53967083D02*
X140773747Y-53967083D01*
X140773747Y-53967083D02*
X140964223Y-53919464D01*
X140964223Y-53919464D02*
X141059461Y-53871845D01*
X141059461Y-53871845D02*
X141154700Y-53776607D01*
X141154700Y-53776607D02*
X141202319Y-53633750D01*
X141202319Y-53633750D02*
X141202319Y-53395655D01*
X140202319Y-54824226D02*
X140202319Y-54633750D01*
X140202319Y-54633750D02*
X140249938Y-54538512D01*
X140249938Y-54538512D02*
X140297557Y-54490893D01*
X140297557Y-54490893D02*
X140440414Y-54395655D01*
X140440414Y-54395655D02*
X140630890Y-54348036D01*
X140630890Y-54348036D02*
X141011842Y-54348036D01*
X141011842Y-54348036D02*
X141107080Y-54395655D01*
X141107080Y-54395655D02*
X141154700Y-54443274D01*
X141154700Y-54443274D02*
X141202319Y-54538512D01*
X141202319Y-54538512D02*
X141202319Y-54728988D01*
X141202319Y-54728988D02*
X141154700Y-54824226D01*
X141154700Y-54824226D02*
X141107080Y-54871845D01*
X141107080Y-54871845D02*
X141011842Y-54919464D01*
X141011842Y-54919464D02*
X140773747Y-54919464D01*
X140773747Y-54919464D02*
X140678509Y-54871845D01*
X140678509Y-54871845D02*
X140630890Y-54824226D01*
X140630890Y-54824226D02*
X140583271Y-54728988D01*
X140583271Y-54728988D02*
X140583271Y-54538512D01*
X140583271Y-54538512D02*
X140630890Y-54443274D01*
X140630890Y-54443274D02*
X140678509Y-54395655D01*
X140678509Y-54395655D02*
X140773747Y-54348036D01*
X141202319Y-71969464D02*
X140202319Y-71969464D01*
X140202319Y-71969464D02*
X140202319Y-72207559D01*
X140202319Y-72207559D02*
X140249938Y-72350416D01*
X140249938Y-72350416D02*
X140345176Y-72445654D01*
X140345176Y-72445654D02*
X140440414Y-72493273D01*
X140440414Y-72493273D02*
X140630890Y-72540892D01*
X140630890Y-72540892D02*
X140773747Y-72540892D01*
X140773747Y-72540892D02*
X140964223Y-72493273D01*
X140964223Y-72493273D02*
X141059461Y-72445654D01*
X141059461Y-72445654D02*
X141154700Y-72350416D01*
X141154700Y-72350416D02*
X141202319Y-72207559D01*
X141202319Y-72207559D02*
X141202319Y-71969464D01*
X141202319Y-73493273D02*
X141202319Y-72921845D01*
X141202319Y-73207559D02*
X140202319Y-73207559D01*
X140202319Y-73207559D02*
X140345176Y-73112321D01*
X140345176Y-73112321D02*
X140440414Y-73017083D01*
X140440414Y-73017083D02*
X140488033Y-72921845D01*
X140630890Y-74064702D02*
X140583271Y-73969464D01*
X140583271Y-73969464D02*
X140535652Y-73921845D01*
X140535652Y-73921845D02*
X140440414Y-73874226D01*
X140440414Y-73874226D02*
X140392795Y-73874226D01*
X140392795Y-73874226D02*
X140297557Y-73921845D01*
X140297557Y-73921845D02*
X140249938Y-73969464D01*
X140249938Y-73969464D02*
X140202319Y-74064702D01*
X140202319Y-74064702D02*
X140202319Y-74255178D01*
X140202319Y-74255178D02*
X140249938Y-74350416D01*
X140249938Y-74350416D02*
X140297557Y-74398035D01*
X140297557Y-74398035D02*
X140392795Y-74445654D01*
X140392795Y-74445654D02*
X140440414Y-74445654D01*
X140440414Y-74445654D02*
X140535652Y-74398035D01*
X140535652Y-74398035D02*
X140583271Y-74350416D01*
X140583271Y-74350416D02*
X140630890Y-74255178D01*
X140630890Y-74255178D02*
X140630890Y-74064702D01*
X140630890Y-74064702D02*
X140678509Y-73969464D01*
X140678509Y-73969464D02*
X140726128Y-73921845D01*
X140726128Y-73921845D02*
X140821366Y-73874226D01*
X140821366Y-73874226D02*
X141011842Y-73874226D01*
X141011842Y-73874226D02*
X141107080Y-73921845D01*
X141107080Y-73921845D02*
X141154700Y-73969464D01*
X141154700Y-73969464D02*
X141202319Y-74064702D01*
X141202319Y-74064702D02*
X141202319Y-74255178D01*
X141202319Y-74255178D02*
X141154700Y-74350416D01*
X141154700Y-74350416D02*
X141107080Y-74398035D01*
X141107080Y-74398035D02*
X141011842Y-74445654D01*
X141011842Y-74445654D02*
X140821366Y-74445654D01*
X140821366Y-74445654D02*
X140726128Y-74398035D01*
X140726128Y-74398035D02*
X140678509Y-74350416D01*
X140678509Y-74350416D02*
X140630890Y-74255178D01*
X69764819Y-91019464D02*
X68764819Y-91019464D01*
X68764819Y-91019464D02*
X68764819Y-91257559D01*
X68764819Y-91257559D02*
X68812438Y-91400416D01*
X68812438Y-91400416D02*
X68907676Y-91495654D01*
X68907676Y-91495654D02*
X69002914Y-91543273D01*
X69002914Y-91543273D02*
X69193390Y-91590892D01*
X69193390Y-91590892D02*
X69336247Y-91590892D01*
X69336247Y-91590892D02*
X69526723Y-91543273D01*
X69526723Y-91543273D02*
X69621961Y-91495654D01*
X69621961Y-91495654D02*
X69717200Y-91400416D01*
X69717200Y-91400416D02*
X69764819Y-91257559D01*
X69764819Y-91257559D02*
X69764819Y-91019464D01*
X68860057Y-91971845D02*
X68812438Y-92019464D01*
X68812438Y-92019464D02*
X68764819Y-92114702D01*
X68764819Y-92114702D02*
X68764819Y-92352797D01*
X68764819Y-92352797D02*
X68812438Y-92448035D01*
X68812438Y-92448035D02*
X68860057Y-92495654D01*
X68860057Y-92495654D02*
X68955295Y-92543273D01*
X68955295Y-92543273D02*
X69050533Y-92543273D01*
X69050533Y-92543273D02*
X69193390Y-92495654D01*
X69193390Y-92495654D02*
X69764819Y-91924226D01*
X69764819Y-91924226D02*
X69764819Y-92543273D01*
X68764819Y-93400416D02*
X68764819Y-93209940D01*
X68764819Y-93209940D02*
X68812438Y-93114702D01*
X68812438Y-93114702D02*
X68860057Y-93067083D01*
X68860057Y-93067083D02*
X69002914Y-92971845D01*
X69002914Y-92971845D02*
X69193390Y-92924226D01*
X69193390Y-92924226D02*
X69574342Y-92924226D01*
X69574342Y-92924226D02*
X69669580Y-92971845D01*
X69669580Y-92971845D02*
X69717200Y-93019464D01*
X69717200Y-93019464D02*
X69764819Y-93114702D01*
X69764819Y-93114702D02*
X69764819Y-93305178D01*
X69764819Y-93305178D02*
X69717200Y-93400416D01*
X69717200Y-93400416D02*
X69669580Y-93448035D01*
X69669580Y-93448035D02*
X69574342Y-93495654D01*
X69574342Y-93495654D02*
X69336247Y-93495654D01*
X69336247Y-93495654D02*
X69241009Y-93448035D01*
X69241009Y-93448035D02*
X69193390Y-93400416D01*
X69193390Y-93400416D02*
X69145771Y-93305178D01*
X69145771Y-93305178D02*
X69145771Y-93114702D01*
X69145771Y-93114702D02*
X69193390Y-93019464D01*
X69193390Y-93019464D02*
X69241009Y-92971845D01*
X69241009Y-92971845D02*
X69336247Y-92924226D01*
X76908569Y-110069464D02*
X75908569Y-110069464D01*
X75908569Y-110069464D02*
X75908569Y-110307559D01*
X75908569Y-110307559D02*
X75956188Y-110450416D01*
X75956188Y-110450416D02*
X76051426Y-110545654D01*
X76051426Y-110545654D02*
X76146664Y-110593273D01*
X76146664Y-110593273D02*
X76337140Y-110640892D01*
X76337140Y-110640892D02*
X76479997Y-110640892D01*
X76479997Y-110640892D02*
X76670473Y-110593273D01*
X76670473Y-110593273D02*
X76765711Y-110545654D01*
X76765711Y-110545654D02*
X76860950Y-110450416D01*
X76860950Y-110450416D02*
X76908569Y-110307559D01*
X76908569Y-110307559D02*
X76908569Y-110069464D01*
X75908569Y-110974226D02*
X75908569Y-111593273D01*
X75908569Y-111593273D02*
X76289521Y-111259940D01*
X76289521Y-111259940D02*
X76289521Y-111402797D01*
X76289521Y-111402797D02*
X76337140Y-111498035D01*
X76337140Y-111498035D02*
X76384759Y-111545654D01*
X76384759Y-111545654D02*
X76479997Y-111593273D01*
X76479997Y-111593273D02*
X76718092Y-111593273D01*
X76718092Y-111593273D02*
X76813330Y-111545654D01*
X76813330Y-111545654D02*
X76860950Y-111498035D01*
X76860950Y-111498035D02*
X76908569Y-111402797D01*
X76908569Y-111402797D02*
X76908569Y-111117083D01*
X76908569Y-111117083D02*
X76860950Y-111021845D01*
X76860950Y-111021845D02*
X76813330Y-110974226D01*
X76337140Y-112164702D02*
X76289521Y-112069464D01*
X76289521Y-112069464D02*
X76241902Y-112021845D01*
X76241902Y-112021845D02*
X76146664Y-111974226D01*
X76146664Y-111974226D02*
X76099045Y-111974226D01*
X76099045Y-111974226D02*
X76003807Y-112021845D01*
X76003807Y-112021845D02*
X75956188Y-112069464D01*
X75956188Y-112069464D02*
X75908569Y-112164702D01*
X75908569Y-112164702D02*
X75908569Y-112355178D01*
X75908569Y-112355178D02*
X75956188Y-112450416D01*
X75956188Y-112450416D02*
X76003807Y-112498035D01*
X76003807Y-112498035D02*
X76099045Y-112545654D01*
X76099045Y-112545654D02*
X76146664Y-112545654D01*
X76146664Y-112545654D02*
X76241902Y-112498035D01*
X76241902Y-112498035D02*
X76289521Y-112450416D01*
X76289521Y-112450416D02*
X76337140Y-112355178D01*
X76337140Y-112355178D02*
X76337140Y-112164702D01*
X76337140Y-112164702D02*
X76384759Y-112069464D01*
X76384759Y-112069464D02*
X76432378Y-112021845D01*
X76432378Y-112021845D02*
X76527616Y-111974226D01*
X76527616Y-111974226D02*
X76718092Y-111974226D01*
X76718092Y-111974226D02*
X76813330Y-112021845D01*
X76813330Y-112021845D02*
X76860950Y-112069464D01*
X76860950Y-112069464D02*
X76908569Y-112164702D01*
X76908569Y-112164702D02*
X76908569Y-112355178D01*
X76908569Y-112355178D02*
X76860950Y-112450416D01*
X76860950Y-112450416D02*
X76813330Y-112498035D01*
X76813330Y-112498035D02*
X76718092Y-112545654D01*
X76718092Y-112545654D02*
X76527616Y-112545654D01*
X76527616Y-112545654D02*
X76432378Y-112498035D01*
X76432378Y-112498035D02*
X76384759Y-112450416D01*
X76384759Y-112450416D02*
X76337140Y-112355178D01*
X122152319Y-53395655D02*
X121152319Y-53395655D01*
X121152319Y-53395655D02*
X121152319Y-53633750D01*
X121152319Y-53633750D02*
X121199938Y-53776607D01*
X121199938Y-53776607D02*
X121295176Y-53871845D01*
X121295176Y-53871845D02*
X121390414Y-53919464D01*
X121390414Y-53919464D02*
X121580890Y-53967083D01*
X121580890Y-53967083D02*
X121723747Y-53967083D01*
X121723747Y-53967083D02*
X121914223Y-53919464D01*
X121914223Y-53919464D02*
X122009461Y-53871845D01*
X122009461Y-53871845D02*
X122104700Y-53776607D01*
X122104700Y-53776607D02*
X122152319Y-53633750D01*
X122152319Y-53633750D02*
X122152319Y-53395655D01*
X121152319Y-54871845D02*
X121152319Y-54395655D01*
X121152319Y-54395655D02*
X121628509Y-54348036D01*
X121628509Y-54348036D02*
X121580890Y-54395655D01*
X121580890Y-54395655D02*
X121533271Y-54490893D01*
X121533271Y-54490893D02*
X121533271Y-54728988D01*
X121533271Y-54728988D02*
X121580890Y-54824226D01*
X121580890Y-54824226D02*
X121628509Y-54871845D01*
X121628509Y-54871845D02*
X121723747Y-54919464D01*
X121723747Y-54919464D02*
X121961842Y-54919464D01*
X121961842Y-54919464D02*
X122057080Y-54871845D01*
X122057080Y-54871845D02*
X122104700Y-54824226D01*
X122104700Y-54824226D02*
X122152319Y-54728988D01*
X122152319Y-54728988D02*
X122152319Y-54490893D01*
X122152319Y-54490893D02*
X122104700Y-54395655D01*
X122104700Y-54395655D02*
X122057080Y-54348036D01*
X203114819Y-91019464D02*
X202114819Y-91019464D01*
X202114819Y-91019464D02*
X202114819Y-91257559D01*
X202114819Y-91257559D02*
X202162438Y-91400416D01*
X202162438Y-91400416D02*
X202257676Y-91495654D01*
X202257676Y-91495654D02*
X202352914Y-91543273D01*
X202352914Y-91543273D02*
X202543390Y-91590892D01*
X202543390Y-91590892D02*
X202686247Y-91590892D01*
X202686247Y-91590892D02*
X202876723Y-91543273D01*
X202876723Y-91543273D02*
X202971961Y-91495654D01*
X202971961Y-91495654D02*
X203067200Y-91400416D01*
X203067200Y-91400416D02*
X203114819Y-91257559D01*
X203114819Y-91257559D02*
X203114819Y-91019464D01*
X202114819Y-91924226D02*
X202114819Y-92543273D01*
X202114819Y-92543273D02*
X202495771Y-92209940D01*
X202495771Y-92209940D02*
X202495771Y-92352797D01*
X202495771Y-92352797D02*
X202543390Y-92448035D01*
X202543390Y-92448035D02*
X202591009Y-92495654D01*
X202591009Y-92495654D02*
X202686247Y-92543273D01*
X202686247Y-92543273D02*
X202924342Y-92543273D01*
X202924342Y-92543273D02*
X203019580Y-92495654D01*
X203019580Y-92495654D02*
X203067200Y-92448035D01*
X203067200Y-92448035D02*
X203114819Y-92352797D01*
X203114819Y-92352797D02*
X203114819Y-92067083D01*
X203114819Y-92067083D02*
X203067200Y-91971845D01*
X203067200Y-91971845D02*
X203019580Y-91924226D01*
X202114819Y-92876607D02*
X202114819Y-93495654D01*
X202114819Y-93495654D02*
X202495771Y-93162321D01*
X202495771Y-93162321D02*
X202495771Y-93305178D01*
X202495771Y-93305178D02*
X202543390Y-93400416D01*
X202543390Y-93400416D02*
X202591009Y-93448035D01*
X202591009Y-93448035D02*
X202686247Y-93495654D01*
X202686247Y-93495654D02*
X202924342Y-93495654D01*
X202924342Y-93495654D02*
X203019580Y-93448035D01*
X203019580Y-93448035D02*
X203067200Y-93400416D01*
X203067200Y-93400416D02*
X203114819Y-93305178D01*
X203114819Y-93305178D02*
X203114819Y-93019464D01*
X203114819Y-93019464D02*
X203067200Y-92924226D01*
X203067200Y-92924226D02*
X203019580Y-92876607D01*
D11*
%TO.C,D10*%
X213947500Y-56383750D02*
X213947500Y-52483750D01*
X215947500Y-56383750D02*
X213947500Y-56383750D01*
X215947500Y-56383750D02*
X215947500Y-52483750D01*
%TO.C,D16*%
X99647500Y-75433750D02*
X99647500Y-71533750D01*
X101647500Y-75433750D02*
X99647500Y-75433750D01*
X101647500Y-75433750D02*
X101647500Y-71533750D01*
%TO.C,D19*%
X156797500Y-75433750D02*
X156797500Y-71533750D01*
X158797500Y-75433750D02*
X156797500Y-75433750D01*
X158797500Y-75433750D02*
X158797500Y-71533750D01*
%TO.C,D7*%
X156797500Y-56383750D02*
X156797500Y-52483750D01*
X158797500Y-56383750D02*
X156797500Y-56383750D01*
X158797500Y-56383750D02*
X158797500Y-52483750D01*
%TO.C,D34*%
X218710000Y-94421250D02*
X218710000Y-90521250D01*
X220710000Y-94421250D02*
X218710000Y-94421250D01*
X220710000Y-94421250D02*
X220710000Y-90521250D01*
%TO.C,D1*%
X42497500Y-56383750D02*
X42497500Y-52483750D01*
X44497500Y-56383750D02*
X42497500Y-56383750D01*
X44497500Y-56383750D02*
X44497500Y-52483750D01*
%TO.C,D43*%
X235378750Y-113533750D02*
X235378750Y-109633750D01*
X237378750Y-113533750D02*
X235378750Y-113533750D01*
X237378750Y-113533750D02*
X237378750Y-109633750D01*
%TO.C,D24*%
X256810000Y-75433750D02*
X256810000Y-71533750D01*
X258810000Y-75433750D02*
X256810000Y-75433750D01*
X258810000Y-75433750D02*
X258810000Y-71533750D01*
%TO.C,D40*%
X142510000Y-113533750D02*
X142510000Y-109633750D01*
X144510000Y-113533750D02*
X142510000Y-113533750D01*
X144510000Y-113533750D02*
X144510000Y-109633750D01*
%TO.C,D31*%
X161560000Y-94483750D02*
X161560000Y-90583750D01*
X163560000Y-94483750D02*
X161560000Y-94483750D01*
X163560000Y-94483750D02*
X163560000Y-90583750D01*
%TO.C,D22*%
X213947500Y-75433750D02*
X213947500Y-71533750D01*
X215947500Y-75433750D02*
X213947500Y-75433750D01*
X215947500Y-75433750D02*
X215947500Y-71533750D01*
%TO.C,D2*%
X61547500Y-56383750D02*
X61547500Y-52483750D01*
X63547500Y-56383750D02*
X61547500Y-56383750D01*
X63547500Y-56383750D02*
X63547500Y-52483750D01*
%TO.C,D27*%
X85360000Y-94483750D02*
X85360000Y-90583750D01*
X87360000Y-94483750D02*
X85360000Y-94483750D01*
X87360000Y-94483750D02*
X87360000Y-90583750D01*
%TO.C,D3*%
X80597500Y-56383750D02*
X80597500Y-52483750D01*
X82597500Y-56383750D02*
X80597500Y-56383750D01*
X82597500Y-56383750D02*
X82597500Y-52483750D01*
%TO.C,D29*%
X123460000Y-94483750D02*
X123460000Y-90583750D01*
X125460000Y-94483750D02*
X123460000Y-94483750D01*
X125460000Y-94483750D02*
X125460000Y-90583750D01*
%TO.C,D44*%
X259191250Y-113533750D02*
X259191250Y-109633750D01*
X261191250Y-113533750D02*
X259191250Y-113533750D01*
X261191250Y-113533750D02*
X261191250Y-109633750D01*
%TO.C,D12*%
X256810000Y-56383750D02*
X256810000Y-52483750D01*
X258810000Y-56383750D02*
X256810000Y-56383750D01*
X258810000Y-56383750D02*
X258810000Y-52483750D01*
%TO.C,D14*%
X61547500Y-75433750D02*
X61547500Y-71533750D01*
X63547500Y-75433750D02*
X61547500Y-75433750D01*
X63547500Y-75433750D02*
X63547500Y-71533750D01*
%TO.C,D30*%
X142510000Y-94483750D02*
X142510000Y-90583750D01*
X144510000Y-94483750D02*
X142510000Y-94483750D01*
X144510000Y-94483750D02*
X144510000Y-90583750D01*
%TO.C,D8*%
X175847500Y-56383750D02*
X175847500Y-52483750D01*
X177847500Y-56383750D02*
X175847500Y-56383750D01*
X177847500Y-56383750D02*
X177847500Y-52483750D01*
%TO.C,D41*%
X185372500Y-113533750D02*
X185372500Y-109633750D01*
X187372500Y-113533750D02*
X185372500Y-113533750D01*
X187372500Y-113533750D02*
X187372500Y-109633750D01*
%TO.C,D37*%
X47260000Y-113533750D02*
X47260000Y-109633750D01*
X49260000Y-113533750D02*
X47260000Y-113533750D01*
X49260000Y-113533750D02*
X49260000Y-109633750D01*
%TO.C,D20*%
X175847500Y-75433750D02*
X175847500Y-71533750D01*
X177847500Y-75433750D02*
X175847500Y-75433750D01*
X177847500Y-75433750D02*
X177847500Y-71533750D01*
%TO.C,D35*%
X237760000Y-94483750D02*
X237760000Y-90583750D01*
X239760000Y-94483750D02*
X237760000Y-94483750D01*
X239760000Y-94483750D02*
X239760000Y-90583750D01*
%TO.C,D4*%
X99647500Y-56383750D02*
X99647500Y-52483750D01*
X101647500Y-56383750D02*
X99647500Y-56383750D01*
X101647500Y-56383750D02*
X101647500Y-52483750D01*
%TO.C,D15*%
X80597500Y-75433750D02*
X80597500Y-71533750D01*
X82597500Y-75433750D02*
X80597500Y-75433750D01*
X82597500Y-75433750D02*
X82597500Y-71533750D01*
%TO.C,D11*%
X232997500Y-56383750D02*
X232997500Y-52483750D01*
X234997500Y-56383750D02*
X232997500Y-56383750D01*
X234997500Y-56383750D02*
X234997500Y-52483750D01*
%TO.C,D42*%
X211566250Y-113533750D02*
X211566250Y-109633750D01*
X213566250Y-113533750D02*
X211566250Y-113533750D01*
X213566250Y-113533750D02*
X213566250Y-109633750D01*
%TO.C,D25*%
X44878750Y-94483750D02*
X44878750Y-90583750D01*
X46878750Y-94483750D02*
X44878750Y-94483750D01*
X46878750Y-94483750D02*
X46878750Y-90583750D01*
%TO.C,D28*%
X104410000Y-94421250D02*
X104410000Y-90521250D01*
X106410000Y-94421250D02*
X104410000Y-94421250D01*
X106410000Y-94421250D02*
X106410000Y-90521250D01*
%TO.C,D39*%
X99647500Y-113533750D02*
X99647500Y-109633750D01*
X101647500Y-113533750D02*
X99647500Y-113533750D01*
X101647500Y-113533750D02*
X101647500Y-109633750D01*
%TO.C,D17*%
X118697500Y-75433750D02*
X118697500Y-71533750D01*
X120697500Y-75433750D02*
X118697500Y-75433750D01*
X120697500Y-75433750D02*
X120697500Y-71533750D01*
%TO.C,D13*%
X42497500Y-75433750D02*
X42497500Y-71533750D01*
X44497500Y-75433750D02*
X42497500Y-75433750D01*
X44497500Y-75433750D02*
X44497500Y-71533750D01*
%TO.C,D9*%
X194897500Y-56383750D02*
X194897500Y-52483750D01*
X196897500Y-56383750D02*
X194897500Y-56383750D01*
X196897500Y-56383750D02*
X196897500Y-52483750D01*
%TO.C,D36*%
X259191250Y-94483750D02*
X259191250Y-90583750D01*
X261191250Y-94483750D02*
X259191250Y-94483750D01*
X261191250Y-94483750D02*
X261191250Y-90583750D01*
%TO.C,D21*%
X194897500Y-75433750D02*
X194897500Y-71533750D01*
X196897500Y-75433750D02*
X194897500Y-75433750D01*
X196897500Y-75433750D02*
X196897500Y-71533750D01*
%TO.C,D23*%
X232997500Y-75433750D02*
X232997500Y-71533750D01*
X234997500Y-75433750D02*
X232997500Y-75433750D01*
X234997500Y-75433750D02*
X234997500Y-71533750D01*
%TO.C,D32*%
X180610000Y-94483750D02*
X180610000Y-90583750D01*
X182610000Y-94483750D02*
X180610000Y-94483750D01*
X182610000Y-94483750D02*
X182610000Y-90583750D01*
%TO.C,D6*%
X137747500Y-56383750D02*
X137747500Y-52483750D01*
X139747500Y-56383750D02*
X137747500Y-56383750D01*
X139747500Y-56383750D02*
X139747500Y-52483750D01*
%TO.C,D18*%
X137747500Y-75433750D02*
X137747500Y-71533750D01*
X139747500Y-75433750D02*
X137747500Y-75433750D01*
X139747500Y-75433750D02*
X139747500Y-71533750D01*
%TO.C,D26*%
X66310000Y-94483750D02*
X66310000Y-90583750D01*
X68310000Y-94483750D02*
X66310000Y-94483750D01*
X68310000Y-94483750D02*
X68310000Y-90583750D01*
%TO.C,D38*%
X73453750Y-113533750D02*
X73453750Y-109633750D01*
X75453750Y-113533750D02*
X73453750Y-113533750D01*
X75453750Y-113533750D02*
X75453750Y-109633750D01*
%TO.C,D5*%
X118697500Y-56383750D02*
X118697500Y-52483750D01*
X120697500Y-56383750D02*
X118697500Y-56383750D01*
X120697500Y-56383750D02*
X120697500Y-52483750D01*
%TO.C,D33*%
X199660000Y-94483750D02*
X199660000Y-90583750D01*
X201660000Y-94483750D02*
X199660000Y-94483750D01*
X201660000Y-94483750D02*
X201660000Y-90583750D01*
%TD*%
M02*
