M48
; DRILL file {KiCad 7.0.9} date Tue Feb 13 22:10:19 2024
; FORMAT={-:-/ absolute / inch / decimal}
; #@! TF.CreationDate,2024-02-13T22:10:19+01:00
; #@! TF.GenerationSoftware,Kicad,Pcbnew,7.0.9
; #@! TF.FileFunction,Plated,1,2,PTH
FMAT,2
INCH
; #@! TA.AperFunction,Plated,PTH,ViaDrill
T1C0.0157
; #@! TA.AperFunction,Plated,PTH,ComponentDrill
T2C0.0402
; #@! TA.AperFunction,Plated,PTH,ComponentDrill
T3C0.0600
; #@! TA.AperFunction,Plated,PTH,ComponentDrill
T4C0.1200
%
G90
G05
T1
X1.4375Y-2.25
X2.1875Y-2.2848
X2.9375Y-2.316
X3.6875Y-2.3473
X4.4375Y-2.3785
X5.1875Y-2.4098
X5.9375Y-2.441
X6.6875Y-2.4723
T2
X8.6062Y-1.75
X8.6062Y-2.45
X8.7062Y-1.75
X8.7062Y-2.45
X8.8063Y-1.75
X8.8063Y-2.45
X8.9062Y-1.75
X8.9062Y-2.45
X9.0062Y-1.75
X9.0062Y-2.45
X9.1062Y-1.75
X9.1062Y-2.45
X9.2062Y-1.75
X9.2062Y-2.45
X9.3063Y-1.75
X9.3063Y-2.45
X9.4062Y-1.75
X9.4062Y-2.45
X9.5062Y-1.75
X9.5062Y-2.45
X9.6062Y-1.75
X9.6062Y-2.45
X9.7062Y-1.75
X9.7062Y-2.45
X9.8063Y-1.75
X9.8063Y-2.45
X9.9062Y-1.75
X9.9062Y-2.45
X10.0062Y-1.75
X10.0062Y-2.45
X10.1062Y-1.75
X10.1062Y-2.45
X10.2062Y-1.75
X10.2062Y-2.45
X10.3063Y-1.75
X10.3063Y-2.45
X10.4062Y-1.75
X10.4062Y-2.45
X10.5062Y-1.75
X10.5062Y-2.45
T3
X1.4375Y-2.0
X1.4375Y-2.75
X1.5312Y-3.5
X1.625Y-4.25
X1.6875Y-1.9
X1.6875Y-2.65
X1.7812Y-3.4
X1.875Y-4.15
X2.1875Y-2.0
X2.1875Y-2.75
X2.375Y-3.5
X2.4375Y-1.9
X2.4375Y-2.65
X2.625Y-3.4
X2.6562Y-4.25
X2.9062Y-4.15
X2.9375Y-2.0
X2.9375Y-2.75
X3.125Y-3.5
X3.1875Y-1.9
X3.1875Y-2.65
X3.375Y-3.4
X3.6875Y-2.0
X3.6875Y-2.75
X3.6875Y-4.25
X3.875Y-3.5
X3.9375Y-1.9
X3.9375Y-2.65
X3.9375Y-4.15
X4.125Y-3.4
X4.4375Y-2.0
X4.4375Y-2.75
X4.625Y-3.5
X4.6875Y-1.9
X4.6875Y-2.65
X4.875Y-3.4
X5.1875Y-2.0
X5.1875Y-2.75
X5.375Y-3.5
X5.375Y-4.25
X5.4375Y-1.9
X5.4375Y-2.65
X5.625Y-3.4
X5.625Y-4.15
X5.9375Y-2.0
X5.9375Y-2.75
X6.125Y-3.5
X6.1875Y-1.9
X6.1875Y-2.65
X6.375Y-3.4
X6.6875Y-2.0
X6.6875Y-2.75
X6.875Y-3.5
X6.9375Y-1.9
X6.9375Y-2.65
X7.0625Y-4.25
X7.125Y-3.4
X7.3125Y-4.15
X7.4375Y-2.0
X7.4375Y-2.75
X7.625Y-3.5
X7.6875Y-1.9
X7.6875Y-2.65
X7.875Y-3.4
X8.0938Y-4.25
X8.1875Y-2.0
X8.1875Y-2.75
X8.3438Y-4.15
X8.375Y-3.5
X8.4375Y-1.9
X8.4375Y-2.65
X8.625Y-3.4
X8.9375Y-2.0
X8.9375Y-2.75
X9.0312Y-4.25
X9.125Y-3.5
X9.1875Y-1.9
X9.1875Y-2.65
X9.2812Y-4.15
X9.375Y-3.4
X9.875Y-2.0
X9.875Y-2.75
X9.9688Y-3.5
X9.9688Y-4.25
X10.125Y-1.9
X10.125Y-2.65
X10.2188Y-3.4
X10.2188Y-4.15
T4
X4.775Y-4.625
X6.275Y-4.625
T0
M30
