%TF.GenerationSoftware,KiCad,Pcbnew,7.0.9*%
%TF.CreationDate,2024-02-13T22:10:24+01:00*%
%TF.ProjectId,bratski_keyboard,62726174-736b-4695-9f6b-6579626f6172,rev?*%
%TF.SameCoordinates,Original*%
%TF.FileFunction,Soldermask,Bot*%
%TF.FilePolarity,Negative*%
%FSLAX46Y46*%
G04 Gerber Fmt 4.6, Leading zero omitted, Abs format (unit mm)*
G04 Created by KiCad (PCBNEW 7.0.9) date 2024-02-13 22:10:24*
%MOMM*%
%LPD*%
G01*
G04 APERTURE LIST*
%ADD10C,1.750000*%
%ADD11C,3.987800*%
%ADD12C,2.300000*%
%ADD13C,4.000000*%
%ADD14R,1.200000X0.900000*%
%ADD15O,1.700000X1.700000*%
%ADD16R,1.700000X1.700000*%
G04 APERTURE END LIST*
D10*
%TO.C,SW42*%
X204311250Y-110490000D03*
D11*
X209391250Y-110490000D03*
D10*
X214471250Y-110490000D03*
D12*
X205581250Y-107950000D03*
X211931250Y-105410000D03*
%TD*%
D10*
%TO.C,SW9*%
X187642500Y-53340000D03*
D11*
X192722500Y-53340000D03*
D10*
X197802500Y-53340000D03*
D12*
X188912500Y-50800000D03*
X195262500Y-48260000D03*
%TD*%
D10*
%TO.C,SW5*%
X111442500Y-53340000D03*
D11*
X116522500Y-53340000D03*
D10*
X121602500Y-53340000D03*
D12*
X112712500Y-50800000D03*
X119062500Y-48260000D03*
%TD*%
D10*
%TO.C,SW24*%
X249555000Y-72390000D03*
D11*
X254635000Y-72390000D03*
D10*
X259715000Y-72390000D03*
D12*
X250825000Y-69850000D03*
X257175000Y-67310000D03*
%TD*%
D10*
%TO.C,SW17*%
X111442500Y-72390000D03*
D11*
X116522500Y-72390000D03*
D10*
X121602500Y-72390000D03*
D12*
X112712500Y-69850000D03*
X119062500Y-67310000D03*
%TD*%
D10*
%TO.C,SW27*%
X78105000Y-91440000D03*
D11*
X83185000Y-91440000D03*
D10*
X88265000Y-91440000D03*
D12*
X79375000Y-88900000D03*
X85725000Y-86360000D03*
%TD*%
D10*
%TO.C,SW30*%
X135255000Y-91440000D03*
D11*
X140335000Y-91440000D03*
D10*
X145415000Y-91440000D03*
D12*
X136525000Y-88900000D03*
X142875000Y-86360000D03*
%TD*%
D10*
%TO.C,SW39*%
X92392500Y-110490000D03*
D11*
X97472500Y-110490000D03*
D10*
X102552500Y-110490000D03*
D12*
X93662500Y-107950000D03*
X100012500Y-105410000D03*
%TD*%
D10*
%TO.C,SW6*%
X130492500Y-53340000D03*
D11*
X135572500Y-53340000D03*
D10*
X140652500Y-53340000D03*
D12*
X131762500Y-50800000D03*
X138112500Y-48260000D03*
%TD*%
D10*
%TO.C,SW11*%
X225742500Y-53340000D03*
D11*
X230822500Y-53340000D03*
D10*
X235902500Y-53340000D03*
D12*
X227012500Y-50800000D03*
X233362500Y-48260000D03*
%TD*%
D10*
%TO.C,SW13*%
X35242500Y-72390000D03*
D11*
X40322500Y-72390000D03*
D10*
X45402500Y-72390000D03*
D12*
X36512500Y-69850000D03*
X42862500Y-67310000D03*
%TD*%
%TO.C,SW35*%
X238125000Y-86360000D03*
X231775000Y-88900000D03*
D10*
X240665000Y-91440000D03*
D11*
X235585000Y-91440000D03*
D10*
X230505000Y-91440000D03*
%TD*%
%TO.C,SW44*%
X251936250Y-110490000D03*
D11*
X257016250Y-110490000D03*
D10*
X262096250Y-110490000D03*
D12*
X253206250Y-107950000D03*
X259556250Y-105410000D03*
%TD*%
D10*
%TO.C,SW38*%
X66198750Y-110490000D03*
D11*
X71278750Y-110490000D03*
D10*
X76358750Y-110490000D03*
D12*
X67468750Y-107950000D03*
X73818750Y-105410000D03*
%TD*%
D10*
%TO.C,SW29*%
X116205000Y-91440000D03*
D11*
X121285000Y-91440000D03*
D10*
X126365000Y-91440000D03*
D12*
X117475000Y-88900000D03*
X123825000Y-86360000D03*
%TD*%
D10*
%TO.C,SW22*%
X206692500Y-72390000D03*
D11*
X211772500Y-72390000D03*
D10*
X216852500Y-72390000D03*
D12*
X207962500Y-69850000D03*
X214312500Y-67310000D03*
%TD*%
D10*
%TO.C,SW31*%
X154305000Y-91440000D03*
D11*
X159385000Y-91440000D03*
D10*
X164465000Y-91440000D03*
D12*
X155575000Y-88900000D03*
X161925000Y-86360000D03*
%TD*%
D10*
%TO.C,SW1*%
X35242500Y-53340000D03*
D11*
X40322500Y-53340000D03*
D10*
X45402500Y-53340000D03*
D12*
X36512500Y-50800000D03*
X42862500Y-48260000D03*
%TD*%
D10*
%TO.C,SW10*%
X206692500Y-53340000D03*
D11*
X211772500Y-53340000D03*
D10*
X216852500Y-53340000D03*
D12*
X207962500Y-50800000D03*
X214312500Y-48260000D03*
%TD*%
D10*
%TO.C,SW19*%
X149542500Y-72390000D03*
D11*
X154622500Y-72390000D03*
D10*
X159702500Y-72390000D03*
D12*
X150812500Y-69850000D03*
X157162500Y-67310000D03*
%TD*%
D10*
%TO.C,SW37*%
X40005000Y-110490000D03*
D11*
X45085000Y-110490000D03*
D10*
X50165000Y-110490000D03*
D12*
X41275000Y-107950000D03*
X47625000Y-105410000D03*
%TD*%
D10*
%TO.C,SW18*%
X130492500Y-72390000D03*
D11*
X135572500Y-72390000D03*
D10*
X140652500Y-72390000D03*
D12*
X131762500Y-69850000D03*
X138112500Y-67310000D03*
%TD*%
D10*
%TO.C,SW12*%
X249555000Y-53340000D03*
D11*
X254635000Y-53340000D03*
D10*
X259715000Y-53340000D03*
D12*
X250825000Y-50800000D03*
X257175000Y-48260000D03*
%TD*%
D10*
%TO.C,SW8*%
X168592500Y-53340000D03*
D11*
X173672500Y-53340000D03*
D10*
X178752500Y-53340000D03*
D12*
X169862500Y-50800000D03*
X176212500Y-48260000D03*
%TD*%
D10*
%TO.C,SW21*%
X187642500Y-72390000D03*
D11*
X192722500Y-72390000D03*
D10*
X197802500Y-72390000D03*
D12*
X188912500Y-69850000D03*
X195262500Y-67310000D03*
%TD*%
D10*
%TO.C,SW43*%
X228123750Y-110490000D03*
D11*
X233203750Y-110490000D03*
D10*
X238283750Y-110490000D03*
D12*
X229393750Y-107950000D03*
X235743750Y-105410000D03*
%TD*%
D10*
%TO.C,SW16*%
X92392500Y-72390000D03*
D11*
X97472500Y-72390000D03*
D10*
X102552500Y-72390000D03*
D12*
X93662500Y-69850000D03*
X100012500Y-67310000D03*
%TD*%
D10*
%TO.C,SW3*%
X73342500Y-53340000D03*
D11*
X78422500Y-53340000D03*
D10*
X83502500Y-53340000D03*
D12*
X74612500Y-50800000D03*
X80962500Y-48260000D03*
%TD*%
D10*
%TO.C,SW40*%
X135255000Y-110490000D03*
D11*
X140335000Y-110490000D03*
D10*
X145415000Y-110490000D03*
D12*
X136525000Y-107950000D03*
X142875000Y-105410000D03*
%TD*%
D10*
%TO.C,SW25*%
X37623750Y-91440000D03*
D11*
X42703750Y-91440000D03*
D10*
X47783750Y-91440000D03*
D12*
X38893750Y-88900000D03*
X45243750Y-86360000D03*
%TD*%
D10*
%TO.C,SW36*%
X251936250Y-91440000D03*
D11*
X257016250Y-91440000D03*
D10*
X262096250Y-91440000D03*
D12*
X253206250Y-88900000D03*
X259556250Y-86360000D03*
%TD*%
D10*
%TO.C,SW32*%
X173355000Y-91440000D03*
D11*
X178435000Y-91440000D03*
D10*
X183515000Y-91440000D03*
D12*
X174625000Y-88900000D03*
X180975000Y-86360000D03*
%TD*%
D10*
%TO.C,SW4*%
X92392500Y-53340000D03*
D11*
X97472500Y-53340000D03*
D10*
X102552500Y-53340000D03*
D12*
X93662500Y-50800000D03*
X100012500Y-48260000D03*
%TD*%
D10*
%TO.C,SW15*%
X73342500Y-72390000D03*
D11*
X78422500Y-72390000D03*
D10*
X83502500Y-72390000D03*
D12*
X74612500Y-69850000D03*
X80962500Y-67310000D03*
%TD*%
D10*
%TO.C,SW23*%
X225742500Y-72390000D03*
D11*
X230822500Y-72390000D03*
D10*
X235902500Y-72390000D03*
D12*
X227012500Y-69850000D03*
X233362500Y-67310000D03*
%TD*%
D10*
%TO.C,SW2*%
X54292500Y-53340000D03*
D11*
X59372500Y-53340000D03*
D10*
X64452500Y-53340000D03*
D12*
X55562500Y-50800000D03*
X61912500Y-48260000D03*
%TD*%
D10*
%TO.C,SW26*%
X59055000Y-91440000D03*
D11*
X64135000Y-91440000D03*
D10*
X69215000Y-91440000D03*
D12*
X60325000Y-88900000D03*
X66675000Y-86360000D03*
%TD*%
D10*
%TO.C,SW14*%
X54292500Y-72390000D03*
D11*
X59372500Y-72390000D03*
D10*
X64452500Y-72390000D03*
D12*
X55562500Y-69850000D03*
X61912500Y-67310000D03*
%TD*%
D10*
%TO.C,SW20*%
X168592500Y-72390000D03*
D11*
X173672500Y-72390000D03*
D10*
X178752500Y-72390000D03*
D12*
X169862500Y-69850000D03*
X176212500Y-67310000D03*
%TD*%
D10*
%TO.C,SW34*%
X211455000Y-91440000D03*
D11*
X216535000Y-91440000D03*
D10*
X221615000Y-91440000D03*
D12*
X212725000Y-88900000D03*
X219075000Y-86360000D03*
%TD*%
D10*
%TO.C,SW33*%
X192405000Y-91440000D03*
D11*
X197485000Y-91440000D03*
D10*
X202565000Y-91440000D03*
D12*
X193675000Y-88900000D03*
X200025000Y-86360000D03*
%TD*%
D10*
%TO.C,SW28*%
X97155000Y-91440000D03*
D11*
X102235000Y-91440000D03*
D10*
X107315000Y-91440000D03*
D12*
X98425000Y-88900000D03*
X104775000Y-86360000D03*
%TD*%
D10*
%TO.C,SW41*%
X178117500Y-110490000D03*
D11*
X183197500Y-110490000D03*
D10*
X188277500Y-110490000D03*
D12*
X179387500Y-107950000D03*
X185737500Y-105410000D03*
%TD*%
D13*
%TO.C,S1*%
X159385000Y-117475000D03*
D11*
X159385000Y-102235000D03*
D13*
X121285000Y-117475000D03*
D11*
X121285000Y-102235000D03*
%TD*%
D10*
%TO.C,SW7*%
X149542500Y-53340000D03*
D11*
X154622500Y-53340000D03*
D10*
X159702500Y-53340000D03*
D12*
X150812500Y-50800000D03*
X157162500Y-48260000D03*
%TD*%
D14*
%TO.C,D10*%
X214947500Y-55783750D03*
X214947500Y-52483750D03*
%TD*%
%TO.C,D16*%
X100647500Y-74833750D03*
X100647500Y-71533750D03*
%TD*%
%TO.C,D19*%
X157797500Y-74833750D03*
X157797500Y-71533750D03*
%TD*%
%TO.C,D7*%
X157797500Y-55783750D03*
X157797500Y-52483750D03*
%TD*%
%TO.C,D34*%
X219710000Y-93821250D03*
X219710000Y-90521250D03*
%TD*%
%TO.C,D1*%
X43497500Y-55783750D03*
X43497500Y-52483750D03*
%TD*%
%TO.C,D43*%
X236378750Y-112933750D03*
X236378750Y-109633750D03*
%TD*%
%TO.C,D24*%
X257810000Y-74833750D03*
X257810000Y-71533750D03*
%TD*%
%TO.C,D40*%
X143510000Y-112933750D03*
X143510000Y-109633750D03*
%TD*%
%TO.C,D31*%
X162560000Y-93883750D03*
X162560000Y-90583750D03*
%TD*%
%TO.C,D22*%
X214947500Y-74833750D03*
X214947500Y-71533750D03*
%TD*%
%TO.C,D2*%
X62547500Y-55783750D03*
X62547500Y-52483750D03*
%TD*%
%TO.C,D27*%
X86360000Y-93883750D03*
X86360000Y-90583750D03*
%TD*%
%TO.C,D3*%
X81597500Y-55783750D03*
X81597500Y-52483750D03*
%TD*%
%TO.C,D29*%
X124460000Y-93883750D03*
X124460000Y-90583750D03*
%TD*%
%TO.C,D44*%
X260191250Y-112933750D03*
X260191250Y-109633750D03*
%TD*%
%TO.C,D12*%
X257810000Y-55783750D03*
X257810000Y-52483750D03*
%TD*%
%TO.C,D14*%
X62547500Y-74833750D03*
X62547500Y-71533750D03*
%TD*%
%TO.C,D30*%
X143510000Y-93883750D03*
X143510000Y-90583750D03*
%TD*%
%TO.C,D8*%
X176847500Y-55783750D03*
X176847500Y-52483750D03*
%TD*%
%TO.C,D41*%
X186372500Y-112933750D03*
X186372500Y-109633750D03*
%TD*%
%TO.C,D37*%
X48260000Y-112933750D03*
X48260000Y-109633750D03*
%TD*%
%TO.C,D20*%
X176847500Y-74833750D03*
X176847500Y-71533750D03*
%TD*%
%TO.C,D35*%
X238760000Y-93883750D03*
X238760000Y-90583750D03*
%TD*%
D15*
%TO.C,U1*%
X266858750Y-62230000D03*
X264318750Y-62230000D03*
D16*
X261778750Y-62230000D03*
D15*
X259238750Y-62230000D03*
X256698750Y-62230000D03*
X254158750Y-62230000D03*
X251618750Y-62230000D03*
D16*
X249078750Y-62230000D03*
D15*
X246538750Y-62230000D03*
X243998750Y-62230000D03*
X241458750Y-62230000D03*
X238918750Y-62230000D03*
D16*
X236378750Y-62230000D03*
D15*
X233838750Y-62230000D03*
X231298750Y-62230000D03*
X228758750Y-62230000D03*
X226218750Y-62230000D03*
D16*
X223678750Y-62230000D03*
D15*
X221138750Y-62230000D03*
X218598750Y-62230000D03*
X218598750Y-44450000D03*
X221138750Y-44450000D03*
D16*
X223678750Y-44450000D03*
D15*
X226218750Y-44450000D03*
X228758750Y-44450000D03*
X231298750Y-44450000D03*
X233838750Y-44450000D03*
D16*
X236378750Y-44450000D03*
D15*
X238918750Y-44450000D03*
X241458750Y-44450000D03*
X243998750Y-44450000D03*
X246538750Y-44450000D03*
D16*
X249078750Y-44450000D03*
D15*
X251618750Y-44450000D03*
X254158750Y-44450000D03*
X256698750Y-44450000D03*
X259238750Y-44450000D03*
D16*
X261778750Y-44450000D03*
D15*
X264318750Y-44450000D03*
X266858750Y-44450000D03*
%TD*%
D14*
%TO.C,D4*%
X100647500Y-55783750D03*
X100647500Y-52483750D03*
%TD*%
%TO.C,D15*%
X81597500Y-74833750D03*
X81597500Y-71533750D03*
%TD*%
%TO.C,D11*%
X233997500Y-55783750D03*
X233997500Y-52483750D03*
%TD*%
%TO.C,D42*%
X212566250Y-112933750D03*
X212566250Y-109633750D03*
%TD*%
%TO.C,D25*%
X45878750Y-93883750D03*
X45878750Y-90583750D03*
%TD*%
%TO.C,D28*%
X105410000Y-93821250D03*
X105410000Y-90521250D03*
%TD*%
%TO.C,D39*%
X100647500Y-112933750D03*
X100647500Y-109633750D03*
%TD*%
%TO.C,D17*%
X119697500Y-74833750D03*
X119697500Y-71533750D03*
%TD*%
%TO.C,D13*%
X43497500Y-74833750D03*
X43497500Y-71533750D03*
%TD*%
%TO.C,D9*%
X195897500Y-55783750D03*
X195897500Y-52483750D03*
%TD*%
%TO.C,D36*%
X260191250Y-93883750D03*
X260191250Y-90583750D03*
%TD*%
%TO.C,D21*%
X195897500Y-74833750D03*
X195897500Y-71533750D03*
%TD*%
%TO.C,D23*%
X233997500Y-74833750D03*
X233997500Y-71533750D03*
%TD*%
%TO.C,D32*%
X181610000Y-93883750D03*
X181610000Y-90583750D03*
%TD*%
%TO.C,D6*%
X138747500Y-55783750D03*
X138747500Y-52483750D03*
%TD*%
%TO.C,D18*%
X138747500Y-74833750D03*
X138747500Y-71533750D03*
%TD*%
%TO.C,D26*%
X67310000Y-93883750D03*
X67310000Y-90583750D03*
%TD*%
%TO.C,D38*%
X74453750Y-112933750D03*
X74453750Y-109633750D03*
%TD*%
%TO.C,D5*%
X119697500Y-55783750D03*
X119697500Y-52483750D03*
%TD*%
%TO.C,D33*%
X200660000Y-93883750D03*
X200660000Y-90583750D03*
%TD*%
M02*
