%TF.GenerationSoftware,KiCad,Pcbnew,7.0.9*%
%TF.CreationDate,2024-02-13T22:10:24+01:00*%
%TF.ProjectId,bratski_keyboard,62726174-736b-4695-9f6b-6579626f6172,rev?*%
%TF.SameCoordinates,Original*%
%TF.FileFunction,Soldermask,Top*%
%TF.FilePolarity,Negative*%
%FSLAX46Y46*%
G04 Gerber Fmt 4.6, Leading zero omitted, Abs format (unit mm)*
G04 Created by KiCad (PCBNEW 7.0.9) date 2024-02-13 22:10:24*
%MOMM*%
%LPD*%
G01*
G04 APERTURE LIST*
%ADD10C,1.750000*%
%ADD11C,3.987800*%
%ADD12O,1.700000X1.700000*%
%ADD13R,1.700000X1.700000*%
G04 APERTURE END LIST*
D10*
%TO.C,SW42*%
X204311250Y-110490000D03*
D11*
X209391250Y-110490000D03*
D10*
X214471250Y-110490000D03*
%TD*%
%TO.C,SW9*%
X187642500Y-53340000D03*
D11*
X192722500Y-53340000D03*
D10*
X197802500Y-53340000D03*
%TD*%
%TO.C,SW5*%
X111442500Y-53340000D03*
D11*
X116522500Y-53340000D03*
D10*
X121602500Y-53340000D03*
%TD*%
%TO.C,SW24*%
X249555000Y-72390000D03*
D11*
X254635000Y-72390000D03*
D10*
X259715000Y-72390000D03*
%TD*%
%TO.C,SW17*%
X111442500Y-72390000D03*
D11*
X116522500Y-72390000D03*
D10*
X121602500Y-72390000D03*
%TD*%
%TO.C,SW27*%
X78105000Y-91440000D03*
D11*
X83185000Y-91440000D03*
D10*
X88265000Y-91440000D03*
%TD*%
%TO.C,SW30*%
X135255000Y-91440000D03*
D11*
X140335000Y-91440000D03*
D10*
X145415000Y-91440000D03*
%TD*%
%TO.C,SW39*%
X92392500Y-110490000D03*
D11*
X97472500Y-110490000D03*
D10*
X102552500Y-110490000D03*
%TD*%
%TO.C,SW6*%
X130492500Y-53340000D03*
D11*
X135572500Y-53340000D03*
D10*
X140652500Y-53340000D03*
%TD*%
%TO.C,SW11*%
X225742500Y-53340000D03*
D11*
X230822500Y-53340000D03*
D10*
X235902500Y-53340000D03*
%TD*%
%TO.C,SW13*%
X35242500Y-72390000D03*
D11*
X40322500Y-72390000D03*
D10*
X45402500Y-72390000D03*
%TD*%
%TO.C,SW35*%
X240665000Y-91440000D03*
D11*
X235585000Y-91440000D03*
D10*
X230505000Y-91440000D03*
%TD*%
%TO.C,SW44*%
X251936250Y-110490000D03*
D11*
X257016250Y-110490000D03*
D10*
X262096250Y-110490000D03*
%TD*%
%TO.C,SW38*%
X66198750Y-110490000D03*
D11*
X71278750Y-110490000D03*
D10*
X76358750Y-110490000D03*
%TD*%
%TO.C,SW29*%
X116205000Y-91440000D03*
D11*
X121285000Y-91440000D03*
D10*
X126365000Y-91440000D03*
%TD*%
%TO.C,SW22*%
X206692500Y-72390000D03*
D11*
X211772500Y-72390000D03*
D10*
X216852500Y-72390000D03*
%TD*%
%TO.C,SW31*%
X154305000Y-91440000D03*
D11*
X159385000Y-91440000D03*
D10*
X164465000Y-91440000D03*
%TD*%
%TO.C,SW1*%
X35242500Y-53340000D03*
D11*
X40322500Y-53340000D03*
D10*
X45402500Y-53340000D03*
%TD*%
%TO.C,SW10*%
X206692500Y-53340000D03*
D11*
X211772500Y-53340000D03*
D10*
X216852500Y-53340000D03*
%TD*%
%TO.C,SW19*%
X149542500Y-72390000D03*
D11*
X154622500Y-72390000D03*
D10*
X159702500Y-72390000D03*
%TD*%
%TO.C,SW37*%
X40005000Y-110490000D03*
D11*
X45085000Y-110490000D03*
D10*
X50165000Y-110490000D03*
%TD*%
%TO.C,SW18*%
X130492500Y-72390000D03*
D11*
X135572500Y-72390000D03*
D10*
X140652500Y-72390000D03*
%TD*%
%TO.C,SW12*%
X249555000Y-53340000D03*
D11*
X254635000Y-53340000D03*
D10*
X259715000Y-53340000D03*
%TD*%
%TO.C,SW8*%
X168592500Y-53340000D03*
D11*
X173672500Y-53340000D03*
D10*
X178752500Y-53340000D03*
%TD*%
%TO.C,SW21*%
X187642500Y-72390000D03*
D11*
X192722500Y-72390000D03*
D10*
X197802500Y-72390000D03*
%TD*%
%TO.C,SW43*%
X228123750Y-110490000D03*
D11*
X233203750Y-110490000D03*
D10*
X238283750Y-110490000D03*
%TD*%
%TO.C,SW16*%
X92392500Y-72390000D03*
D11*
X97472500Y-72390000D03*
D10*
X102552500Y-72390000D03*
%TD*%
%TO.C,SW3*%
X73342500Y-53340000D03*
D11*
X78422500Y-53340000D03*
D10*
X83502500Y-53340000D03*
%TD*%
%TO.C,SW40*%
X135255000Y-110490000D03*
D11*
X140335000Y-110490000D03*
D10*
X145415000Y-110490000D03*
%TD*%
%TO.C,SW25*%
X37623750Y-91440000D03*
D11*
X42703750Y-91440000D03*
D10*
X47783750Y-91440000D03*
%TD*%
%TO.C,SW36*%
X251936250Y-91440000D03*
D11*
X257016250Y-91440000D03*
D10*
X262096250Y-91440000D03*
%TD*%
%TO.C,SW32*%
X173355000Y-91440000D03*
D11*
X178435000Y-91440000D03*
D10*
X183515000Y-91440000D03*
%TD*%
%TO.C,SW4*%
X92392500Y-53340000D03*
D11*
X97472500Y-53340000D03*
D10*
X102552500Y-53340000D03*
%TD*%
%TO.C,SW15*%
X73342500Y-72390000D03*
D11*
X78422500Y-72390000D03*
D10*
X83502500Y-72390000D03*
%TD*%
%TO.C,SW23*%
X225742500Y-72390000D03*
D11*
X230822500Y-72390000D03*
D10*
X235902500Y-72390000D03*
%TD*%
%TO.C,SW2*%
X54292500Y-53340000D03*
D11*
X59372500Y-53340000D03*
D10*
X64452500Y-53340000D03*
%TD*%
%TO.C,SW26*%
X59055000Y-91440000D03*
D11*
X64135000Y-91440000D03*
D10*
X69215000Y-91440000D03*
%TD*%
%TO.C,SW14*%
X54292500Y-72390000D03*
D11*
X59372500Y-72390000D03*
D10*
X64452500Y-72390000D03*
%TD*%
%TO.C,SW20*%
X168592500Y-72390000D03*
D11*
X173672500Y-72390000D03*
D10*
X178752500Y-72390000D03*
%TD*%
%TO.C,SW34*%
X211455000Y-91440000D03*
D11*
X216535000Y-91440000D03*
D10*
X221615000Y-91440000D03*
%TD*%
%TO.C,SW33*%
X192405000Y-91440000D03*
D11*
X197485000Y-91440000D03*
D10*
X202565000Y-91440000D03*
%TD*%
%TO.C,SW28*%
X97155000Y-91440000D03*
D11*
X102235000Y-91440000D03*
D10*
X107315000Y-91440000D03*
%TD*%
%TO.C,SW41*%
X178117500Y-110490000D03*
D11*
X183197500Y-110490000D03*
D10*
X188277500Y-110490000D03*
%TD*%
D11*
%TO.C,S1*%
X159385000Y-102235000D03*
X121285000Y-102235000D03*
%TD*%
D10*
%TO.C,SW7*%
X149542500Y-53340000D03*
D11*
X154622500Y-53340000D03*
D10*
X159702500Y-53340000D03*
%TD*%
D12*
%TO.C,U1*%
X266858750Y-62230000D03*
X264318750Y-62230000D03*
D13*
X261778750Y-62230000D03*
D12*
X259238750Y-62230000D03*
X256698750Y-62230000D03*
X254158750Y-62230000D03*
X251618750Y-62230000D03*
D13*
X249078750Y-62230000D03*
D12*
X246538750Y-62230000D03*
X243998750Y-62230000D03*
X241458750Y-62230000D03*
X238918750Y-62230000D03*
D13*
X236378750Y-62230000D03*
D12*
X233838750Y-62230000D03*
X231298750Y-62230000D03*
X228758750Y-62230000D03*
X226218750Y-62230000D03*
D13*
X223678750Y-62230000D03*
D12*
X221138750Y-62230000D03*
X218598750Y-62230000D03*
X218598750Y-44450000D03*
X221138750Y-44450000D03*
D13*
X223678750Y-44450000D03*
D12*
X226218750Y-44450000D03*
X228758750Y-44450000D03*
X231298750Y-44450000D03*
X233838750Y-44450000D03*
D13*
X236378750Y-44450000D03*
D12*
X238918750Y-44450000D03*
X241458750Y-44450000D03*
X243998750Y-44450000D03*
X246538750Y-44450000D03*
D13*
X249078750Y-44450000D03*
D12*
X251618750Y-44450000D03*
X254158750Y-44450000D03*
X256698750Y-44450000D03*
X259238750Y-44450000D03*
D13*
X261778750Y-44450000D03*
D12*
X264318750Y-44450000D03*
X266858750Y-44450000D03*
%TD*%
M02*
